<?xml version="1.0" encoding="UTF-8"?>
<svg id="Layer_2" data-name="Layer 2" xmlns="http://www.w3.org/2000/svg" xmlns:xlink="http://www.w3.org/1999/xlink"
     viewBox="0 0 282 64.88">
    <defs>
        <style>
            .cls-1 {
            fill: none;
            }

            .cls-2 {
            fill: url(#linear-gradient);
            }

            .cls-3 {
            fill: #102f41;
            }
        </style>
        <linearGradient id="linear-gradient" x1="0" y1="34.68" x2="30" y2="34.68" gradientUnits="userSpaceOnUse">
            <stop offset="0" stop-color="#4d4d4d"/>
            <stop offset=".77" stop-color="#000"/>
            <stop offset=".8" stop-color="#000"/>
            <stop offset="1" stop-color="#000"/>
        </linearGradient>
    </defs>
    <g id="Layer_1-2" data-name="Layer 1">
        <g>
            <rect class="cls-1" x="32" y="4.18" width="250" height="59"/>
            <path class="cls-3"
                  d="M40.17,25.17h-3.11l-.57,3.02h-1.55l2.75-13.17h1.83l2.77,13.17h-1.55l-.57-3.02ZM37.25,23.84h2.73l-1.36-7.29-1.36,7.29Z"/>
            <path class="cls-3"
                  d="M45.68,23.9h-.84v4.28h-1.51v-10.86h2.46c1.87,0,2.88,1.42,2.88,3.26s-.82,2.72-1.64,3.02l1.78,4.58h-1.64l-1.49-4.28ZM45.61,18.57h-.78v4.09h.78c1.03,0,1.51-.87,1.51-2.05s-.48-2.03-1.51-2.03Z"/>
            <path class="cls-3" d="M51.83,20.41v7.78h-1.45v-10.86h1.6l2.71,7.58v-7.58h1.43v10.86h-1.51l-2.77-7.78Z"/>
            <path class="cls-3"
                  d="M61.11,17.09c2.44,0,3.32,2.57,3.32,5.67s-.88,5.67-3.32,5.67-3.3-2.57-3.3-5.67.88-5.67,3.3-5.67ZM61.11,18.34c-1.39,0-1.76,2.05-1.76,4.42s.38,4.42,1.76,4.42,1.76-2.07,1.76-4.42-.38-4.42-1.76-4.42Z"/>
            <path class="cls-3" d="M66.13,17.33h1.51v9.62h3.09v1.24h-4.6v-10.86Z"/>
            <path class="cls-3"
                  d="M72.05,17.33h2.46c2.54,0,3.67,2.31,3.67,5.45s-1.13,5.41-3.67,5.41h-2.46v-10.86ZM74.51,18.57h-.94v8.37h.94c1.47,0,2.14-1.72,2.14-4.17s-.69-4.21-2.14-4.21Z"/>
            <path class="cls-3"
                  d="M88.49,28.19h-1.47l-.46-2.45h-2.52l-.46,2.45h-1.47l2.35-10.86h1.7l2.33,10.86ZM84.23,24.5h2.14l-1.07-5.55-1.07,5.55Z"/>
            <path class="cls-3" d="M90.95,20.41v7.78h-1.45v-10.86h1.6l2.71,7.58v-7.58h1.43v10.86h-1.51l-2.77-7.78Z"/>
            <path class="cls-3"
                  d="M97.29,17.33h2.46c2.54,0,3.67,2.31,3.67,5.45s-1.13,5.41-3.67,5.41h-2.46v-10.86ZM99.75,18.57h-.94v8.37h.94c1.47,0,2.14-1.72,2.14-4.17s-.69-4.21-2.14-4.21Z"/>
            <path class="cls-3"
                  d="M108.57,15.02h2.67c2.9,0,4.09,2.8,4.09,6.59s-1.18,6.58-4.09,6.58h-2.67v-13.17ZM111.24,26.87c1.76,0,2.44-2.17,2.44-5.25s-.69-5.27-2.44-5.27h-1.09v10.52h1.09Z"/>
            <path class="cls-3" d="M117.1,17.33h4.6v1.24h-3.09v3.44h2.96v1.24h-2.96v3.69h3.09v1.24h-4.6v-10.86Z"/>
            <path class="cls-3"
                  d="M128.69,28.19h-1.47l-.46-2.45h-2.52l-.46,2.45h-1.47l2.35-10.86h1.7l2.33,10.86ZM124.43,24.5h2.14l-1.07-5.55-1.07,5.55Z"/>
            <path class="cls-3" d="M131.15,20.41v7.78h-1.45v-10.86h1.6l2.71,7.58v-7.58h1.43v10.86h-1.51l-2.77-7.78Z"/>
            <path class="cls-3" d="M138.94,20.41v7.78h-1.45v-10.86h1.6l2.71,7.58v-7.58h1.43v10.86h-1.51l-2.77-7.78Z"/>
            <path class="cls-3" d="M145.28,17.33h4.6v1.24h-3.09v3.44h2.96v1.24h-2.96v3.69h3.09v1.24h-4.6v-10.86Z"/>
            <path class="cls-3"
                  d="M157.54,22.48l-.94,1.7v4.01h-1.58v-13.17h1.58v6.85l3.59-6.85h1.79l-3.55,6.26,3.82,6.91h-1.83l-2.88-5.71Z"/>
            <path class="cls-3"
                  d="M168.67,28.19h-1.47l-.46-2.45h-2.52l-.46,2.45h-1.47l2.35-10.86h1.7l2.33,10.86ZM164.41,24.5h2.14l-1.07-5.55-1.07,5.55Z"/>
            <path class="cls-3"
                  d="M169.68,17.33h2.44c2,0,2.9,1.52,2.9,3.28s-.9,3.3-2.9,3.3h-.92v4.28h-1.51v-10.86ZM171.97,18.57h-.78v4.09h.78c1.03,0,1.51-.87,1.51-2.03s-.48-2.05-1.51-2.05Z"/>
            <path class="cls-3" d="M176.38,17.33h1.51v9.62h3.09v1.24h-4.6v-10.86Z"/>
            <path class="cls-3"
                  d="M187.61,28.19h-1.47l-.46-2.45h-2.52l-.46,2.45h-1.47l2.35-10.86h1.7l2.33,10.86ZM183.35,24.5h2.14l-1.07-5.55-1.07,5.55Z"/>
            <path class="cls-3" d="M190.07,20.41v7.78h-1.45v-10.86h1.6l2.71,7.58v-7.58h1.43v10.86h-1.51l-2.77-7.78Z"/>
            <path class="cls-3"
                  d="M199.46,21.61c0-3.83,1.03-6.81,3.65-6.81,1.79,0,2.5,1.3,2.9,2.53l-1.3.47c-.34-1.03-.71-1.66-1.6-1.66-1.47,0-2.02,2.37-2.02,5.47s.55,5.47,2.02,5.47c.99,0,1.39-.87,1.64-1.99l1.32.45c-.36,1.42-1.11,2.88-2.96,2.88-2.62,0-3.65-2.98-3.65-6.81Z"/>
            <path class="cls-3"
                  d="M210.25,17.09c2.44,0,3.32,2.57,3.32,5.67s-.88,5.67-3.32,5.67-3.3-2.57-3.3-5.67.88-5.67,3.3-5.67ZM210.25,18.34c-1.39,0-1.76,2.05-1.76,4.42s.38,4.42,1.76,4.42,1.76-2.07,1.76-4.42-.38-4.42-1.76-4.42Z"/>
            <path class="cls-3" d="M215.27,17.33h1.51v9.62h3.09v1.24h-4.6v-10.86Z"/>
            <path class="cls-3" d="M221.19,17.33h1.51v9.62h3.09v1.24h-4.6v-10.86Z"/>
            <path class="cls-3" d="M227.12,17.33h4.6v1.24h-3.09v3.44h2.96v1.24h-2.96v3.69h3.09v1.24h-4.6v-10.86Z"/>
            <path class="cls-3"
                  d="M236.33,17.09c1.53,0,2.21,1.01,2.65,2.19l-1.24.39c-.31-.87-.71-1.34-1.41-1.34-1.34,0-1.76,1.95-1.76,4.42s.42,4.42,1.76,4.42c.73,0,1.15-.53,1.41-1.44l1.24.38c-.42,1.24-1.07,2.31-2.65,2.31-2.39,0-3.3-2.51-3.3-5.67s.9-5.67,3.3-5.67Z"/>
            <path class="cls-3" d="M241.23,18.57h-1.78v-1.24h5.08v1.24h-1.78v9.62h-1.51v-9.62Z"/>
            <path class="cls-3" d="M245.72,17.33h1.51v10.86h-1.51v-10.86Z"/>
            <path class="cls-3"
                  d="M252.23,17.09c2.44,0,3.32,2.57,3.32,5.67s-.88,5.67-3.32,5.67-3.3-2.57-3.3-5.67.88-5.67,3.3-5.67ZM252.23,18.34c-1.38,0-1.76,2.05-1.76,4.42s.38,4.42,1.76,4.42,1.76-2.07,1.76-4.42-.38-4.42-1.76-4.42Z"/>
            <path class="cls-3" d="M258.7,20.41v7.78h-1.45v-10.86h1.6l2.71,7.58v-7.58h1.43v10.86h-1.51l-2.77-7.78Z"/>
            <path class="cls-3"
                  d="M270.29,18.68c2.09,0,2.84,2.2,2.84,4.86s-.76,4.86-2.84,4.86-2.83-2.2-2.83-4.86.76-4.86,2.83-4.86ZM270.29,19.74c-1.19,0-1.51,1.76-1.51,3.79s.32,3.79,1.51,3.79,1.51-1.78,1.51-3.79-.32-3.79-1.51-3.79Z"/>
            <path class="cls-3" d="M274.59,18.88h3.94v1.07h-2.65v2.94h2.54v1.07h-2.54v4.23h-1.3v-9.31Z"/>
            <path class="cls-3" d="M35.84,31.61h8.93v2.27h-6.23v7.62h5.98v2.27h-5.98v8.16h6.23v2.27h-8.93v-22.57Z"/>
            <path class="cls-3"
                  d="M57.22,54.19h-2.52l-.79-4.2h-4.32l-.79,4.2h-2.52l4.03-18.61h2.92l4,18.61ZM49.92,47.86h3.67l-1.84-9.51-1.84,9.51Z"/>
            <path class="cls-3"
                  d="M63.35,46.84h-1.44v7.34h-2.59v-18.61h4.21c3.2,0,4.93,2.44,4.93,5.58s-1.4,4.67-2.81,5.18l3.06,7.85h-2.81l-2.56-7.34ZM63.24,37.71h-1.33v7.01h1.33c1.76,0,2.59-1.49,2.59-3.52s-.83-3.49-2.59-3.49Z"/>
            <path class="cls-3" d="M71.77,35.57h2.59v16.48h5.29v2.13h-7.88v-18.61Z"/>
            <path class="cls-3" d="M82.89,46.3l-4.61-10.73h2.7l3.2,8.22,3.2-8.22h2.74l-4.64,10.73v7.89h-2.59v-7.89Z"/>
            <path class="cls-3"
                  d="M105.21,49.01h-5.33l-.97,5.18h-2.66l4.72-22.57h3.13l4.75,22.57h-2.66l-.97-5.18ZM100.21,46.74h4.68l-2.34-12.49-2.34,12.49Z"/>
            <path class="cls-3"
                  d="M122.17,40.35l-3.82,13.84h-1.12l-3.78-13.84v13.84h-2.48v-18.61h3.24l3.6,12.89,3.56-12.89h3.2v18.61h-2.41v-13.84Z"/>
            <path class="cls-3" d="M128.47,35.57h7.88v2.13h-5.29v5.89h5.08v2.13h-5.08v6.33h5.29v2.13h-7.88v-18.61Z"/>
            <path class="cls-3"
                  d="M143.62,46.84h-1.44v7.34h-2.59v-18.61h4.21c3.2,0,4.93,2.44,4.93,5.58s-1.4,4.67-2.81,5.18l3.06,7.85h-2.81l-2.56-7.34ZM143.52,37.71h-1.33v7.01h1.33c1.76,0,2.59-1.49,2.59-3.52s-.83-3.49-2.59-3.49Z"/>
            <path class="cls-3" d="M152.05,35.57h2.59v18.61h-2.59v-18.61Z"/>
            <path class="cls-3"
                  d="M163.57,35.17c2.63,0,3.78,1.73,4.54,3.76l-2.12.68c-.54-1.49-1.22-2.3-2.41-2.3-2.3,0-3.02,3.35-3.02,7.58s.72,7.58,3.02,7.58c1.26,0,1.98-.91,2.41-2.47l2.12.64c-.72,2.13-1.83,3.96-4.54,3.96-4.1,0-5.65-4.3-5.65-9.71s1.55-9.71,5.65-9.71Z"/>
            <path class="cls-3"
                  d="M180.13,54.19h-2.52l-.79-4.2h-4.32l-.79,4.2h-2.52l4.03-18.61h2.92l4,18.61ZM172.82,47.86h3.67l-1.83-9.51-1.84,9.51Z"/>
            <path class="cls-3" d="M184.7,40.85v13.33h-2.48v-18.61h2.74l4.64,13v-13h2.45v18.61h-2.59l-4.75-13.33Z"/>
            <path class="cls-3"
                  d="M201.23,51.01c.76.95,1.66,1.29,2.55,1.29,1.76,0,2.81-.88,2.81-3.01v-17.67h2.7v17.77c0,3.62-2.12,5.21-5.26,5.21-1.44,0-2.7-.44-3.81-1.56l1.01-2.03Z"/>
            <path class="cls-3"
                  d="M213.39,35.57h2.59v13.47c0,2.3.76,3.42,2.41,3.42s2.38-1.15,2.38-3.42v-13.47h2.59v12.73c0,4.26-1.69,6.29-4.97,6.29s-5-2.06-5-6.29v-12.73Z"/>
            <path class="cls-3"
                  d="M227.25,35.57h4.21c4.36,0,6.3,3.96,6.3,9.34s-1.94,9.27-6.3,9.27h-4.21v-18.61ZM231.46,37.71h-1.62v14.35h1.62c2.52,0,3.67-2.94,3.67-7.14s-1.19-7.21-3.67-7.21Z"/>
            <path class="cls-3"
                  d="M250.04,54.19h-2.52l-.79-4.2h-4.32l-.79,4.2h-2.52l4.03-18.61h2.92l4,18.61ZM242.73,47.86h3.67l-1.84-9.51-1.84,9.51Z"/>
            <path class="cls-3" d="M252.13,35.57h2.59v18.61h-2.59v-18.61Z"/>
            <path class="cls-3"
                  d="M263.65,35.17c2.63,0,3.78,1.73,4.54,3.76l-2.12.68c-.54-1.49-1.22-2.3-2.41-2.3-2.3,0-3.02,3.35-3.02,7.58s.72,7.58,3.02,7.58c1.26,0,1.98-.91,2.41-2.47l2.12.64c-.72,2.13-1.84,3.96-4.54,3.96-4.1,0-5.65-4.3-5.65-9.71s1.55-9.71,5.65-9.71Z"/>
            <path class="cls-3"
                  d="M280.21,54.19h-2.52l-.79-4.2h-4.32l-.79,4.2h-2.52l4.03-18.61h2.92l4,18.61ZM272.9,47.86h3.67l-1.84-9.51-1.84,9.51Z"/>
        </g>
        <path class="cls-2"
              d="M17.32,30.6c1.55-.66,3.05-1.19,4.46-1.92,2.32-1.21,4.77-2.08,7.16-3.12.09-.04.18-.06.27-.1.2-.09.4-.22.56.04.14.24-.01.42-.18.56-.48.4-.94.81-1.44,1.17-1.69,1.23-3.41,2.42-5.09,3.67-1.39,1.04-2.75,2.14-4.2,3.28,3.74,2.95,7.5,5.71,11.15,8.65-.12.2-.18.3-.21.35-1.21-.46-2.36-.94-3.53-1.35-3.03-1.04-5.89-2.55-9.01-3.54-.14,1.07-.28,2.06-.41,3.05-.22,1.75-.41,3.49-.63,5.24-.21,1.62-.42,3.25-.65,4.87-.05.32-.17.63-.26.94-.06,0-.12,0-.19,0-.06-.18-.15-.36-.18-.55-.23-1.35-.47-2.69-.67-4.04-.13-.87-.18-1.74-.3-2.61-.2-1.38-.42-2.75-.65-4.12-.14-.89-.3-1.77-.48-2.77-.26.09-.53.16-.77.27-1.67.81-3.3,1.75-5.02,2.43-1.92.75-3.73,1.75-5.64,2.51-.35.14-.71.31-1.04-.14.08-.41.44-.6.71-.83,1.27-1.12,2.55-2.24,3.86-3.32.94-.78,1.93-1.49,2.88-2.25.69-.55,1.36-1.13,2.03-1.72.61-.54.59-.69-.07-1.23-.91-.73-1.84-1.45-2.74-2.2-1.51-1.25-3.01-2.51-4.52-3.77-.73-.61-1.46-1.23-2.19-1.85-.09-.07-.15-.17-.32-.37.26-.04.44-.13.59-.09.54.15,1.09.31,1.61.53.81.34,1.57.8,2.39,1.08,1.19.4,2.25,1.1,3.42,1.53,1.53.56,3.07,1.09,4.68,1.65.75-4.56,1.48-9.05,2.23-13.58.28.04.28.32.31.57.09.83.14,1.66.28,2.48.53,3.2,1.08,6.4,1.63,9.6.05.31.12.61.19,1ZM10.53,35.21c1.37.66,2.47.36,3.54-.48-.1-.04-.15-.09-.21-.09-.75,0-1.51-.06-2.26.01-.34.03-.66.33-1.07.55ZM12.16,38.01c.77-.25,1.9-1.86,2.09-2.82-.38.2-.74.37-1.08.58-.14.08-.29.2-.35.34-.23.58-.42,1.17-.66,1.9ZM13.57,34.23c.02-.08.03-.17.05-.25-.37-.17-.74-.49-1.12-.49-.73-.01-1.48.07-2.35.5.22.13.32.24.43.24,1,.01,1.99,0,2.99,0ZM13.17,30.55c-.07.05-.14.11-.21.16.51,1.01,1.07,1.99,1.81,3.04.07-.59.19-1.06-.08-1.42-.47-.63-1.01-1.19-1.53-1.78ZM17.56,30.83c-.88.8-1.25,1.87-1.85,2.77,1.3-.57,1.95-1.53,1.85-2.77ZM15.28,33.45c.58-.95,1.08-1.77,1.57-2.6.07-.11.03-.29.03-.44-.04-.02-.09-.05-.13-.07-.35.39-.69.78-1.05,1.16-.48.51-.62,1.11-.42,1.95ZM11.16,38.49q.56-.1.71-.52c.21-.59.33-1.25.27-1.56-.98.56-1.06.74-.98,2.08ZM14.17,33.72c-.63-.87-.98-1.94-1.75-2.73.05.42.22.8.27,1.2.12.91.71,1.29,1.48,1.53ZM9.35,36.29c1.46.45,1.74.41,2.39-.37-.83.15-1.66-.59-2.39.37ZM16.49,37.56s.08-.09.12-.14c-.44-.72-.71-1.57-1.39-2.3,0,.52-.01.88,0,1.24,0,.13.05.31.14.39.36.29.74.54,1.12.81ZM13.2,38.19c.05.04.1.07.15.11.4-.47.8-.95,1.21-1.42.34-.38.45-.78.15-1.28-.56.84-1.14,1.65-1.52,2.58ZM15.81,35.21c.63.95.92,1.94,1.63,2.66.03-.16.02-.29-.02-.42-.1-.3-.27-.58-.3-.89-.09-.73-.5-1.11-1.31-1.35ZM8.5,32.56c.34.27.56.44.77.61.58-.29,1.1-.55,1.76-.87-.97-.4-1.64.11-2.53.27ZM12.44,32.62c-.18-.55-.35-1-.45-1.46-.1-.47-.39-.6-.85-.61.13.41.28.76.36,1.13.1.47.35.78.94.94ZM17.43,33.17c1.41.44,1.6.44,2.1,0-.97-.75-1.18-.75-2.1,0ZM7.77,31.71c-.02.05-.04.11-.06.16.18.13.39.41.53.37.54-.14,1.16-.13,1.59-.63-.75-.52-1.39,0-2.06.1ZM16.02,34.09c1.01.15,2.1.08,2.59-.21-.45-.09-.82-.12-1.17-.25-.57-.21-1-.05-1.43.46ZM13.32,29.77c.21.87.86,1.33,1.49,1.99.02-.42.04-.7.06-1-.54-.34-1.05-.67-1.55-.99ZM18.28,34.61h-2.46c.7.77,1.4.61,2.46,0ZM9.63,33.3c0,.06-.02.11-.03.17.16.06.33.19.47.15.65-.16,1.29-.36,1.95-.56-.18-.2-.35-.46-.68-.35-.57.18-1.14.39-1.71.59ZM10.81,37.29c-.69.26-.9.79-.75,1.78.2-.08.39-.16.58-.24.06-.53.11-1.03.17-1.55ZM19.56,35.25c-.46.3-.88.57-1.41.91.29.12.46.26.57.23.48-.17.95-.4,1.5-.64-.27-.2-.44-.33-.67-.5ZM13.39,38.74s.08.1.12.14c.45-.19.8-.54,1.17-.86.29-.25.28-.5.09-.9-.49.57-.93,1.09-1.37,1.61ZM17.66,32.37c.74-.29.93-.84.65-1.91-.16.2-.34.33-.38.5-.12.44-.18.89-.27,1.41ZM15.11,39.89c.44.22.91.42,1.34.64.08-.53.05-.54-.17-.67-.36-.2-.73-.39-1.17-.61v.63ZM17.38,35.56c.16.12.3.23.46.35.48-.27.94-.53,1.43-.8q-.43-.3-1.89.45ZM21.18,39.37c-.27-1.19-.55-1.65-1.16-1.59.26.59.3,1.33,1.16,1.59ZM21.81,37.06c-.44-.44-.79-.4-1.53.17.59.52.68.51,1.53-.17ZM15.24,29.38c.51-.36.91-.63,1.34-.93-.05-.2-.09-.4-.18-.77-.33.7-1.25.69-1.17,1.7ZM14.81,30.18c0-.15.05-.29.01-.32-.45-.42-.92-.81-1.48-1.05-.18.34-.05.57.19.71.4.24.82.43,1.28.66ZM13.73,27.02c-.21.56-.21.58.13.8.28.18.59.33.93.51.06-.89-.61-.99-1.06-1.31ZM8.69,38.51c-.65.29-.75.53-.71,1.5.35.03.58-.09.61-.49.02-.31.06-.62.1-1.01ZM22.58,28.71c-.26.13-.44.23-.63.32-.51.26-.52.28-.38.95q.87-.3,1.01-1.27ZM15.29,31.47c.48-.7,1.13-1.14,1.42-1.88-.18.04-.3.12-.42.23-.22.21-.4.49-.66.64-.37.21-.49.48-.35,1.02ZM9.72,37.96c-.64.27-.75.54-.68,1.68.2-.15.44-.23.48-.37.11-.41.14-.84.2-1.3ZM21.05,36.4c-.24-.15-.4-.34-.52-.32-.46.1-.93.22-1.32.7.71.28,1.19-.16,1.84-.38ZM14.75,26.08c.09-.88-.06-1.12-.78-1.35-.01.29-.03.57-.04.83.29.19.53.34.82.52ZM5.87,40.99c.82-.21.87-.31.75-1.27-.63.19-.8.65-.75,1.27ZM18.74,31.78c.52-.34.66-.74.57-1.47-.61.09-.63.1-.62.61,0,.26.03.52.05.87ZM23.3,30.3c-.59-.18-1.12-.36-1.54.28.55.29,1.05.36,1.54-.28ZM7.29,31.53c.46-.2.86-.36,1.32-.56q-.48-.27-1.61,0s-.06.06-.16.17c.13.12.27.24.45.39ZM15.16,40.31c.11.33.12.59.23.65.35.19.54.69,1.02.65.11-.28.14-.51-.13-.67-.32-.19-.65-.36-1.13-.63ZM16.75,39.4c-.03-.15-.01-.35-.08-.39-.43-.26-.88-.49-1.42-.57.18.5.67.81,1.5.96ZM14.83,39.44s-.09-.06-.14-.09c-.31.28-.62.57-.94.84-.27.24-.26.46.02.75.37-.52.99-.81,1.06-1.51ZM21.4,37.9c.52.47.99.07,1.5.06-.63-.74-.74-.75-1.5-.06ZM14.75,38.58q-1.34.79-1.25,1.39c.47-.43,1.01-.76,1.25-1.39ZM16.49,38.39s.01-.09.04-.14c-.43-.33-.82-.66-1.41-1.06v.74c.44.16.95.31,1.38.46ZM18.05,38.11s.09-.01.14-.02c0-.63-.11-1.24-.43-1.79-.04-.06-.19-.06-.4-.11.26.72.48,1.32.69,1.92ZM16.09,25.77c-.45.44-1.03.64-.78,1.46.28-.49.99-.57.78-1.46ZM15.31,25.86c.78-.47.82-.58.48-1.22-.33.34-.74.63-.48,1.22ZM22.51,38.48c.46.5.97.48,1.53.32q-.45-.58-1.53-.32ZM19.05,37.27c.1.29.18.59.31.87.12.27.08.72.66.64-.26-.57-.31-1.19-.97-1.5ZM15.28,42.55c-.13.81.44.95.91,1.29.02-.71-.4-.98-.91-1.29ZM6.56,29.79c-.49-.45-.51-.45-1.22,0,.43.54.52.54,1.22,0ZM10.09,31.17c-.28-.82-.67-1.36-1.03-1.48q.43,1.22,1.03,1.48ZM13.84,41.75c.52-.29,1.02-.72,1.06-.95.02-.11-.07-.24-.12-.38q-.92.83-.94,1.34ZM14.74,27.14c.06-.54-.04-.67-.9-1.1q-.08.65.9,1.1ZM19.81,31.73q.94.62,1.35.1c-.29-.15-.58-.29-.87-.44-.17.12-.32.23-.48.34ZM13.53,27.98c-.14.26-.22.43.02.56.4.22.81.44,1.21.65.04-.05.08-.1.12-.15-.35-.43-.86-.68-1.35-1.07ZM7.01,40.42c.55-.17.69-.5.54-1.28-.61.26-.41.82-.54,1.28ZM10.06,30.12c.27.59.45,1.1.88,1.52-.01-.91-.21-1.27-.88-1.52ZM20.27,29.84c-.9.15-.45.86-.66,1.36.62-.27.7-.44.66-1.36ZM6.95,38.24q.77.32,1.2-.08c-.66-.45-.67-.45-1.2.08ZM10.25,37.01c-.58-.25-1.06-.33-1.55-.08.46.21.91.59,1.55.08ZM20.25,32.56c-.41-.25-.78-.7-1.39-.26.52.14.86.68,1.39.26ZM4.32,28.77c.29.69.53.76,1.19.32-.36-.28-.7-.58-1.19-.32ZM14.86,41.63c-.91.52-.95.58-.75,1.13.67-.47.73-.57.75-1.13ZM15.33,41.42q-.04.57,1.12,1.25c-.19-.73-.79-.82-1.12-1.25ZM15.25,28.12c1.06-.61,1.12-.69.97-1.21-.4.36-.86.64-.97,1.21ZM24.34,29.57c-.51-.3-.91-.2-1.3.23.49.17.93.37,1.3-.23ZM21.3,38.41c.51,1.26.54,1.3,1.04,1.33-.29-.46-.31-1.09-1.04-1.33ZM5.14,39.7c.49.19.86,0,1.21-.38-.74-.26-.82-.23-1.21.38ZM20.83,31.12q.91.54,1.19,0c-.38-.08-.75-.45-1.19,0ZM4.72,41.53c.75-.23.79-.29.68-1.02-.55.07-.57.52-.68,1.02ZM22.41,39.06c.26.53.35,1.04.97,1.2-.15-.56-.25-1.04-.97-1.2ZM24.53,40.73q-.2-.73-.85-.87c.04.51.29.8.85.87ZM6.27,30.57c.49.3.82-.13,1.38-.2-.64-.41-.99,0-1.38.2ZM18.87,38.47c.05-.03.11-.06.16-.1-.05-.18-.1-.37-.16-.55-.07-.21-.15-.41-.23-.61-.06-.15-.14-.28-.22-.42.16.56-.04,1.26.45,1.68ZM8.86,30.41c-.24-.38-.15-1.03-.9-1.11.23.51.37.97.9,1.11ZM25.21,39.67q-.5-.59-1.16-.26c.34.27.67.44,1.16.26ZM14.75,24.56c.2-.59-.22-.72-.52-.96q-.16.56.52.96ZM23.53,28.37q-.68.09-.58.83.45-.22.58-.83ZM7.92,37.46c.39.23.77.63,1.27.16-.44-.19-.83-.39-1.27-.16ZM21.24,29.47c-.59.17-.6.18-.51,1.11.48-.24.37-.71.51-1.11ZM24.05,28.6c.37-.16.74-.28.72-.81q-.69.17-.72.81ZM14.44,45.86q.54-.31.35-.95c-.23.27-.6.45-.35.95ZM15.7,23.58c-.42.25-.56.56-.38,1.09.23-.35.64-.55.38-1.09ZM15.02,42.95c-.68.09-.89.33-.81.88.26-.29.49-.53.81-.88ZM14.81,43.89q-.6.38-.46.99c.2-.31.54-.48.46-.99ZM15.38,43.82c-.02.55.24.81.81.85-.32-.33-.56-.59-.81-.85ZM26.73,27.6c.03.06.06.12.09.18.52-.12.84-.56,1.18-.98-.42.27-.84.53-1.27.8ZM3.76,42.02q.55-.19.53-.85c-.32.2-.58.41-.53.85ZM15.4,45.81c-.11.51,0,.8.4,1,.24-.47-.05-.68-.4-1ZM17.66,49.84c0-.41,0-.82,0-1.23,0-.06-.04-.11-.09-.25-.26.57.01,1.02.09,1.48ZM25.51,28.28c.51.28.55.26.81-.3-.33.12-.57.21-.81.3ZM17.91,47.08c.04.36-.09.69.26.88.1-.34.13-.61-.26-.88ZM16.2,29.43s-.1-.1-.15-.14c-.17.36-.78.26-.79,1,.38-.35.66-.6.94-.86ZM3.32,41.93c-.35.2-.68.29-.88.79.36-.29.82-.2.88-.79ZM15.93,45.64c-.05-.39-.28-.6-.61-.76-.08.56.32.61.61.76ZM25.3,28.92c-.37-.18-.7-.24-.99.15.37.17.7.27.99-.15ZM6.11,28.47q.16.53.6.61c-.09-.34-.24-.56-.6-.61ZM6.22,38.81c.32,0,.57.28.92-.04-.33-.05-.57-.42-.92.04ZM14.73,23.41c.14-.43-.06-.58-.37-.71-.25.44.08.54.37.71ZM25.34,41.17c.05-.04.11-.09.16-.13-.06-.3-.18-.55-.69-.58.23.3.38.5.53.71ZM14.84,22.33c-.05-.25-.1-.49-.15-.74-.31.3-.36.56.15.74ZM7.31,28.97q-.03.56.43.71c-.17-.27-.3-.49-.43-.71ZM14.97,46.22c-.06-.03-.11-.05-.17-.08-.22.17-.4.35-.15.8.13-.3.23-.51.32-.72ZM15.12,23.23s.08.06.12.09q.37-.31.27-.78c-.16.28-.28.48-.39.69ZM26.08,41.07c-.04.07-.08.14-.12.21.27.13.53.25.8.38.02-.04.04-.08.06-.12-.25-.15-.49-.31-.74-.46ZM25.23,27.88c.32-.04.52-.14.59-.58-.28.18-.57.17-.59.58ZM4.93,28.06c.23.2.38.31.63.53-.1-.4-.18-.61-.63-.53ZM3.88,28.44c.05-.06.1-.13.14-.19-.15-.09-.3-.18-.45-.27-.03.05-.06.1-.09.14.13.11.26.22.4.32ZM14.86,21.17c-.02-.23-.04-.46-.06-.69-.11.25-.38.48.06.69ZM4.36,40.24c.22.23.4.24.65-.09-.28.04-.46.06-.65.09ZM17.57,47.27c-.05-.01-.1-.03-.15-.04-.03.18-.06.36-.08.53.05.01.1.03.15.04.03-.18.06-.35.09-.53ZM4.1,40.94c-.01-.06-.03-.13-.04-.19-.19.05-.37.09-.56.14.01.06.03.13.04.19.19-.05.37-.09.56-.14ZM27.11,41.22s.06-.08.09-.13c-.19-.12-.37-.24-.56-.35-.02.04-.05.09-.07.13.18.12.36.23.54.35ZM15.19,22.26c.07.02.15.04.22.06.03-.19.06-.37.09-.56-.05-.01-.1-.02-.15-.04-.05.18-.11.36-.16.54ZM26,40.38q-.33-.4-.6-.16c.2.05.36.09.6.16ZM2.66,41.65s.05.09.08.14c.14-.11.28-.22.43-.33-.02-.02-.03-.03-.08-.08-.13.08-.28.18-.42.27Z"/>
    </g>
</svg>