<?xml version="1.0" encoding="UTF-8"?>
<svg id="Layer_2" data-name="Layer 2" xmlns="http://www.w3.org/2000/svg" xmlns:xlink="http://www.w3.org/1999/xlink"
     viewBox="0 0 293 64.88">
    <defs>
        <style>
            .cls-1 {
            fill: none;
            }

            .cls-2 {
            fill: url(#White_Black);
            }

            .cls-3 {
            fill: url(#White_Black-7);
            }

            .cls-4 {
            fill: url(#White_Black-6);
            }

            .cls-5 {
            fill: url(#White_Black-3);
            }

            .cls-6 {
            fill: url(#White_Black-2);
            }

            .cls-7 {
            fill: url(#White_Black-9);
            }

            .cls-8 {
            fill: url(#White_Black-8);
            }

            .cls-9 {
            fill: url(#White_Black-5);
            }

            .cls-10 {
            fill: url(#White_Black-4);
            }

            .cls-11 {
            fill: #102f41;
            }

            .cls-12 {
            fill: url(#White_Black-11);
            }

            .cls-13 {
            fill: url(#White_Black-19);
            }

            .cls-14 {
            fill: url(#White_Black-26);
            }

            .cls-15 {
            fill: url(#White_Black-27);
            }

            .cls-16 {
            fill: url(#White_Black-25);
            }

            .cls-17 {
            fill: url(#White_Black-33);
            }

            .cls-18 {
            fill: url(#White_Black-20);
            }

            .cls-19 {
            fill: url(#White_Black-22);
            }

            .cls-20 {
            fill: url(#White_Black-23);
            }

            .cls-21 {
            fill: url(#White_Black-28);
            }

            .cls-22 {
            fill: url(#White_Black-21);
            }

            .cls-23 {
            fill: url(#White_Black-29);
            }

            .cls-24 {
            fill: url(#White_Black-16);
            }

            .cls-25 {
            fill: url(#White_Black-17);
            }

            .cls-26 {
            fill: url(#White_Black-18);
            }

            .cls-27 {
            fill: url(#White_Black-24);
            }

            .cls-28 {
            fill: url(#White_Black-12);
            }

            .cls-29 {
            fill: url(#White_Black-13);
            }

            .cls-30 {
            fill: url(#White_Black-14);
            }

            .cls-31 {
            fill: url(#White_Black-15);
            }

            .cls-32 {
            fill: url(#White_Black-10);
            }

            .cls-33 {
            fill: url(#White_Black-32);
            }

            .cls-34 {
            fill: url(#White_Black-30);
            }

            .cls-35 {
            fill: url(#White_Black-31);
            }
        </style>
        <linearGradient id="White_Black" data-name="White, Black" x1="4.55" y1="34.08" x2="39.27" y2="34.08"
                        gradientUnits="userSpaceOnUse">
            <stop offset="0" stop-color="#fff"/>
            <stop offset="1" stop-color="#000"/>
        </linearGradient>
        <linearGradient id="White_Black-2" data-name="White, Black" x1="24.42" y1="48.31" x2="25.42" y2="48.31"
                        xlink:href="#White_Black"/>
        <linearGradient id="White_Black-3" data-name="White, Black" x1="0" y1="34.25" x2="1.11" y2="34.25"
                        xlink:href="#White_Black"/>
        <linearGradient id="White_Black-4" data-name="White, Black" x1="6.79" y1="21.99" x2="8.11" y2="21.99"
                        xlink:href="#White_Black"/>
        <linearGradient id="White_Black-5" data-name="White, Black" x1="41.58" y1="35.01" x2="43" y2="35.01"
                        xlink:href="#White_Black"/>
        <linearGradient id="White_Black-6" data-name="White, Black" x1="21.51" y1="55.78" x2="22.82" y2="55.78"
                        xlink:href="#White_Black"/>
        <linearGradient id="White_Black-7" data-name="White, Black" x1="25.08" y1="17.53" x2="26.29" y2="17.53"
                        xlink:href="#White_Black"/>
        <linearGradient id="White_Black-8" data-name="White, Black" x1="31.37" y1="20.25" x2="32.39" y2="20.25"
                        xlink:href="#White_Black"/>
        <linearGradient id="White_Black-9" data-name="White, Black" x1="12.16" y1="21.77" x2="13.44" y2="21.77"
                        xlink:href="#White_Black"/>
        <linearGradient id="White_Black-10" data-name="White, Black" x1="3.41" y1="38.4" x2="4.7" y2="38.4"
                        xlink:href="#White_Black"/>
        <linearGradient id="White_Black-11" data-name="White, Black" x1="21.74" y1="12.78" x2="23.02" y2="12.78"
                        xlink:href="#White_Black"/>
        <linearGradient id="White_Black-12" data-name="White, Black" x1="39.82" y1="25.21" x2="40.84" y2="25.21"
                        xlink:href="#White_Black"/>
        <linearGradient id="White_Black-13" data-name="White, Black" x1="28.23" y1="23.7" x2="29.11" y2="23.7"
                        xlink:href="#White_Black"/>
        <linearGradient id="White_Black-14" data-name="White, Black" x1="36.88" y1="45.47" x2="38.37" y2="45.47"
                        xlink:href="#White_Black"/>
        <linearGradient id="White_Black-15" data-name="White, Black" x1="26.94" y1="49.24" x2="27.97" y2="49.24"
                        xlink:href="#White_Black"/>
        <linearGradient id="White_Black-16" data-name="White, Black" x1="31.51" y1="46.44" x2="32.56" y2="46.44"
                        xlink:href="#White_Black"/>
        <linearGradient id="White_Black-17" data-name="White, Black" x1="7.78" y1="37.86" x2="9.19" y2="37.86"
                        xlink:href="#White_Black"/>
        <linearGradient id="White_Black-18" data-name="White, Black" x1="7.42" y1="27.33" x2="8.32" y2="27.33"
                        xlink:href="#White_Black"/>
        <linearGradient id="White_Black-19" data-name="White, Black" x1="28.5" y1="43.44" x2="29.46" y2="43.44"
                        xlink:href="#White_Black"/>
        <linearGradient id="White_Black-20" data-name="White, Black" x1="37.29" y1="40.61" x2="38.33" y2="40.61"
                        xlink:href="#White_Black"/>
        <linearGradient id="White_Black-21" data-name="White, Black" x1="18.74" y1="48.25" x2="19.66" y2="48.25"
                        xlink:href="#White_Black"/>
        <linearGradient id="White_Black-22" data-name="White, Black" x1="6.04" y1="31.31" x2="7.16" y2="31.31"
                        xlink:href="#White_Black"/>
        <linearGradient id="White_Black-23" data-name="White, Black" x1="32.6" y1="27.49" x2="33.72" y2="27.49"
                        xlink:href="#White_Black"/>
        <linearGradient id="White_Black-24" data-name="White, Black" x1="14.31" y1="45.88" x2="15.16" y2="45.88"
                        xlink:href="#White_Black"/>
        <linearGradient id="White_Black-25" data-name="White, Black" x1="34.79" y1="23.94" x2="35.92" y2="23.94"
                        xlink:href="#White_Black"/>
        <linearGradient id="White_Black-26" data-name="White, Black" x1="37.12" y1="31.12" x2="38.21" y2="31.12"
                        xlink:href="#White_Black"/>
        <linearGradient id="White_Black-27" data-name="White, Black" x1="9.86" y1="43.02" x2="10.75" y2="43.02"
                        xlink:href="#White_Black"/>
        <linearGradient id="White_Black-28" data-name="White, Black" x1="18.97" y1="21.94" x2="20.12" y2="21.94"
                        xlink:href="#White_Black"/>
        <linearGradient id="White_Black-29" data-name="White, Black" x1="9.73" y1="47.56" x2="10.93" y2="47.56"
                        xlink:href="#White_Black"/>
        <linearGradient id="White_Black-30" data-name="White, Black" x1="15.87" y1="16.74" x2="16.81" y2="16.74"
                        xlink:href="#White_Black"/>
        <linearGradient id="White_Black-31" data-name="White, Black" x1="6.88" y1="42.3" x2="7.97" y2="42.3"
                        xlink:href="#White_Black"/>
        <linearGradient id="White_Black-32" data-name="White, Black" x1="23.4" y1="45.12" x2="24.53" y2="45.12"
                        xlink:href="#White_Black"/>
        <linearGradient id="White_Black-33" data-name="White, Black" x1="14.41" y1="51" x2="15.18" y2="51"
                        xlink:href="#White_Black"/>
    </defs>
    <g id="Layer_1-2" data-name="Layer 1">
        <g>
            <rect class="cls-1" x="43" y="4.18" width="250" height="59"/>
            <path class="cls-11"
                  d="M51.17,25.17h-3.11l-.57,3.02h-1.55l2.75-13.17h1.83l2.77,13.17h-1.55l-.57-3.02ZM48.25,23.84h2.73l-1.36-7.29-1.36,7.29Z"/>
            <path class="cls-11"
                  d="M56.68,23.9h-.84v4.28h-1.51v-10.86h2.46c1.87,0,2.88,1.42,2.88,3.26s-.82,2.72-1.64,3.02l1.78,4.58h-1.64l-1.49-4.28ZM56.61,18.57h-.78v4.09h.78c1.03,0,1.51-.87,1.51-2.05s-.48-2.03-1.51-2.03Z"/>
            <path class="cls-11" d="M62.83,20.41v7.78h-1.45v-10.86h1.6l2.71,7.58v-7.58h1.43v10.86h-1.51l-2.77-7.78Z"/>
            <path class="cls-11"
                  d="M72.11,17.09c2.44,0,3.32,2.57,3.32,5.67s-.88,5.67-3.32,5.67-3.3-2.57-3.3-5.67.88-5.67,3.3-5.67ZM72.11,18.34c-1.39,0-1.76,2.05-1.76,4.42s.38,4.42,1.76,4.42,1.76-2.07,1.76-4.42-.38-4.42-1.76-4.42Z"/>
            <path class="cls-11" d="M77.13,17.33h1.51v9.62h3.09v1.24h-4.6v-10.86Z"/>
            <path class="cls-11"
                  d="M83.05,17.33h2.46c2.54,0,3.67,2.31,3.67,5.45s-1.13,5.41-3.67,5.41h-2.46v-10.86ZM85.51,18.57h-.94v8.37h.94c1.47,0,2.14-1.72,2.14-4.17s-.69-4.21-2.14-4.21Z"/>
            <path class="cls-11"
                  d="M99.49,28.19h-1.47l-.46-2.45h-2.52l-.46,2.45h-1.47l2.35-10.86h1.7l2.33,10.86ZM95.23,24.5h2.14l-1.07-5.55-1.07,5.55Z"/>
            <path class="cls-11" d="M101.95,20.41v7.78h-1.45v-10.86h1.6l2.71,7.58v-7.58h1.43v10.86h-1.51l-2.77-7.78Z"/>
            <path class="cls-11"
                  d="M108.29,17.33h2.46c2.54,0,3.67,2.31,3.67,5.45s-1.13,5.41-3.67,5.41h-2.46v-10.86ZM110.75,18.57h-.94v8.37h.94c1.47,0,2.14-1.72,2.14-4.17s-.69-4.21-2.14-4.21Z"/>
            <path class="cls-11"
                  d="M119.57,15.02h2.67c2.9,0,4.09,2.8,4.09,6.59s-1.18,6.58-4.09,6.58h-2.67v-13.17ZM122.24,26.87c1.76,0,2.44-2.17,2.44-5.25s-.69-5.27-2.44-5.27h-1.09v10.52h1.09Z"/>
            <path class="cls-11" d="M128.1,17.33h4.6v1.24h-3.09v3.44h2.96v1.24h-2.96v3.69h3.09v1.24h-4.6v-10.86Z"/>
            <path class="cls-11"
                  d="M139.69,28.19h-1.47l-.46-2.45h-2.52l-.46,2.45h-1.47l2.35-10.86h1.7l2.33,10.86ZM135.43,24.5h2.14l-1.07-5.55-1.07,5.55Z"/>
            <path class="cls-11" d="M142.15,20.41v7.78h-1.45v-10.86h1.6l2.71,7.58v-7.58h1.43v10.86h-1.51l-2.77-7.78Z"/>
            <path class="cls-11" d="M149.94,20.41v7.78h-1.45v-10.86h1.6l2.71,7.58v-7.58h1.43v10.86h-1.51l-2.77-7.78Z"/>
            <path class="cls-11" d="M156.28,17.33h4.6v1.24h-3.09v3.44h2.96v1.24h-2.96v3.69h3.09v1.24h-4.6v-10.86Z"/>
            <path class="cls-11"
                  d="M168.54,22.48l-.94,1.7v4.01h-1.58v-13.17h1.58v6.85l3.59-6.85h1.79l-3.55,6.26,3.82,6.91h-1.83l-2.88-5.71Z"/>
            <path class="cls-11"
                  d="M179.67,28.19h-1.47l-.46-2.45h-2.52l-.46,2.45h-1.47l2.35-10.86h1.7l2.33,10.86ZM175.41,24.5h2.14l-1.07-5.55-1.07,5.55Z"/>
            <path class="cls-11"
                  d="M180.68,17.33h2.44c2,0,2.9,1.52,2.9,3.28s-.9,3.3-2.9,3.3h-.92v4.28h-1.51v-10.86ZM182.97,18.57h-.78v4.09h.78c1.03,0,1.51-.87,1.51-2.03s-.48-2.05-1.51-2.05Z"/>
            <path class="cls-11" d="M187.38,17.33h1.51v9.62h3.09v1.24h-4.6v-10.86Z"/>
            <path class="cls-11"
                  d="M198.61,28.19h-1.47l-.46-2.45h-2.52l-.46,2.45h-1.47l2.35-10.86h1.7l2.33,10.86ZM194.35,24.5h2.14l-1.07-5.55-1.07,5.55Z"/>
            <path class="cls-11" d="M201.07,20.41v7.78h-1.45v-10.86h1.6l2.71,7.58v-7.58h1.43v10.86h-1.51l-2.77-7.78Z"/>
            <path class="cls-11"
                  d="M210.46,21.61c0-3.83,1.03-6.81,3.65-6.81,1.79,0,2.5,1.3,2.9,2.53l-1.3.47c-.34-1.03-.71-1.66-1.6-1.66-1.47,0-2.02,2.37-2.02,5.47s.55,5.47,2.02,5.47c.99,0,1.39-.87,1.64-1.99l1.32.45c-.36,1.42-1.11,2.88-2.96,2.88-2.62,0-3.65-2.98-3.65-6.81Z"/>
            <path class="cls-11"
                  d="M221.25,17.09c2.44,0,3.32,2.57,3.32,5.67s-.88,5.67-3.32,5.67-3.3-2.57-3.3-5.67.88-5.67,3.3-5.67ZM221.25,18.34c-1.39,0-1.76,2.05-1.76,4.42s.38,4.42,1.76,4.42,1.76-2.07,1.76-4.42-.38-4.42-1.76-4.42Z"/>
            <path class="cls-11" d="M226.27,17.33h1.51v9.62h3.09v1.24h-4.6v-10.86Z"/>
            <path class="cls-11" d="M232.19,17.33h1.51v9.62h3.09v1.24h-4.6v-10.86Z"/>
            <path class="cls-11" d="M238.12,17.33h4.6v1.24h-3.09v3.44h2.96v1.24h-2.96v3.69h3.09v1.24h-4.6v-10.86Z"/>
            <path class="cls-11"
                  d="M247.33,17.09c1.53,0,2.21,1.01,2.65,2.19l-1.24.39c-.31-.87-.71-1.34-1.41-1.34-1.34,0-1.76,1.95-1.76,4.42s.42,4.42,1.76,4.42c.73,0,1.15-.53,1.41-1.44l1.24.38c-.42,1.24-1.07,2.31-2.65,2.31-2.39,0-3.3-2.51-3.3-5.67s.9-5.67,3.3-5.67Z"/>
            <path class="cls-11" d="M252.23,18.57h-1.78v-1.24h5.08v1.24h-1.78v9.62h-1.51v-9.62Z"/>
            <path class="cls-11" d="M256.72,17.33h1.51v10.86h-1.51v-10.86Z"/>
            <path class="cls-11"
                  d="M263.23,17.09c2.44,0,3.32,2.57,3.32,5.67s-.88,5.67-3.32,5.67-3.3-2.57-3.3-5.67.88-5.67,3.3-5.67ZM263.23,18.34c-1.38,0-1.76,2.05-1.76,4.42s.38,4.42,1.76,4.42,1.76-2.07,1.76-4.42-.38-4.42-1.76-4.42Z"/>
            <path class="cls-11" d="M269.7,20.41v7.78h-1.45v-10.86h1.6l2.71,7.58v-7.58h1.43v10.86h-1.51l-2.77-7.78Z"/>
            <path class="cls-11"
                  d="M281.29,18.68c2.09,0,2.84,2.2,2.84,4.86s-.76,4.86-2.84,4.86-2.83-2.2-2.83-4.86.76-4.86,2.83-4.86ZM281.29,19.74c-1.19,0-1.51,1.76-1.51,3.79s.32,3.79,1.51,3.79,1.51-1.78,1.51-3.79-.32-3.79-1.51-3.79Z"/>
            <path class="cls-11" d="M285.59,18.88h3.94v1.07h-2.65v2.94h2.54v1.07h-2.54v4.23h-1.3v-9.31Z"/>
            <path class="cls-11" d="M46.84,31.61h8.93v2.27h-6.23v7.62h5.98v2.27h-5.98v8.16h6.23v2.27h-8.93v-22.57Z"/>
            <path class="cls-11"
                  d="M68.22,54.19h-2.52l-.79-4.2h-4.32l-.79,4.2h-2.52l4.03-18.61h2.92l4,18.61ZM60.92,47.86h3.67l-1.84-9.51-1.84,9.51Z"/>
            <path class="cls-11"
                  d="M74.35,46.84h-1.44v7.34h-2.59v-18.61h4.21c3.2,0,4.93,2.44,4.93,5.58s-1.4,4.67-2.81,5.18l3.06,7.85h-2.81l-2.56-7.34ZM74.24,37.71h-1.33v7.01h1.33c1.76,0,2.59-1.49,2.59-3.52s-.83-3.49-2.59-3.49Z"/>
            <path class="cls-11" d="M82.77,35.57h2.59v16.48h5.29v2.13h-7.88v-18.61Z"/>
            <path class="cls-11" d="M93.89,46.3l-4.61-10.73h2.7l3.2,8.22,3.2-8.22h2.74l-4.64,10.73v7.89h-2.59v-7.89Z"/>
            <path class="cls-11"
                  d="M116.21,49.01h-5.33l-.97,5.18h-2.66l4.72-22.57h3.13l4.75,22.57h-2.66l-.97-5.18ZM111.21,46.74h4.68l-2.34-12.49-2.34,12.49Z"/>
            <path class="cls-11"
                  d="M133.17,40.35l-3.82,13.84h-1.12l-3.78-13.84v13.84h-2.48v-18.61h3.24l3.6,12.89,3.56-12.89h3.2v18.61h-2.41v-13.84Z"/>
            <path class="cls-11" d="M139.47,35.57h7.88v2.13h-5.29v5.89h5.08v2.13h-5.08v6.33h5.29v2.13h-7.88v-18.61Z"/>
            <path class="cls-11"
                  d="M154.63,46.84h-1.44v7.34h-2.59v-18.61h4.21c3.2,0,4.93,2.44,4.93,5.58s-1.4,4.67-2.81,5.18l3.06,7.85h-2.81l-2.56-7.34ZM154.52,37.71h-1.33v7.01h1.33c1.76,0,2.59-1.49,2.59-3.52s-.83-3.49-2.59-3.49Z"/>
            <path class="cls-11" d="M163.05,35.57h2.59v18.61h-2.59v-18.61Z"/>
            <path class="cls-11"
                  d="M174.57,35.17c2.63,0,3.78,1.73,4.54,3.76l-2.12.68c-.54-1.49-1.22-2.3-2.41-2.3-2.3,0-3.02,3.35-3.02,7.58s.72,7.58,3.02,7.58c1.26,0,1.98-.91,2.41-2.47l2.12.64c-.72,2.13-1.83,3.96-4.54,3.96-4.1,0-5.65-4.3-5.65-9.71s1.55-9.71,5.65-9.71Z"/>
            <path class="cls-11"
                  d="M191.13,54.19h-2.52l-.79-4.2h-4.32l-.79,4.2h-2.52l4.03-18.61h2.92l4,18.61ZM183.82,47.86h3.67l-1.83-9.51-1.84,9.51Z"/>
            <path class="cls-11" d="M195.7,40.85v13.33h-2.48v-18.61h2.74l4.64,13v-13h2.45v18.61h-2.59l-4.75-13.33Z"/>
            <path class="cls-11"
                  d="M212.23,51.01c.76.95,1.66,1.29,2.55,1.29,1.76,0,2.81-.88,2.81-3.01v-17.67h2.7v17.77c0,3.62-2.12,5.21-5.26,5.21-1.44,0-2.7-.44-3.81-1.56l1.01-2.03Z"/>
            <path class="cls-11"
                  d="M224.39,35.57h2.59v13.47c0,2.3.76,3.42,2.41,3.42s2.38-1.15,2.38-3.42v-13.47h2.59v12.73c0,4.26-1.69,6.29-4.97,6.29s-5-2.06-5-6.29v-12.73Z"/>
            <path class="cls-11"
                  d="M238.25,35.57h4.21c4.36,0,6.3,3.96,6.3,9.34s-1.94,9.27-6.3,9.27h-4.21v-18.61ZM242.46,37.71h-1.62v14.35h1.62c2.52,0,3.67-2.94,3.67-7.14s-1.19-7.21-3.67-7.21Z"/>
            <path class="cls-11"
                  d="M261.04,54.19h-2.52l-.79-4.2h-4.32l-.79,4.2h-2.52l4.03-18.61h2.92l4,18.61ZM253.73,47.86h3.67l-1.84-9.51-1.84,9.51Z"/>
            <path class="cls-11" d="M263.13,35.57h2.59v18.61h-2.59v-18.61Z"/>
            <path class="cls-11"
                  d="M274.65,35.17c2.63,0,3.78,1.73,4.54,3.76l-2.12.68c-.54-1.49-1.22-2.3-2.41-2.3-2.3,0-3.02,3.35-3.02,7.58s.72,7.58,3.02,7.58c1.26,0,1.98-.91,2.41-2.47l2.12.64c-.72,2.13-1.84,3.96-4.54,3.96-4.1,0-5.65-4.3-5.65-9.71s1.55-9.71,5.65-9.71Z"/>
            <path class="cls-11"
                  d="M291.21,54.19h-2.52l-.79-4.2h-4.32l-.79,4.2h-2.52l4.03-18.61h2.92l4,18.61ZM283.9,47.86h3.67l-1.84-9.51-1.84,9.51Z"/>
        </g>
        <g>
            <path class="cls-2"
                  d="M38.31,33.92c-1.4.01-2.81.03-4.21.07-1.8.05-3.6.12-5.57.19,1.36-1.29,3.22-.75,4.44-2.25-1.34-.79-2.31.69-3.55.35,2.26-1.07,4.44-2.1,6.62-3.13-.06-.16-.11-.32-.17-.48-3.14.31-5.76,2.54-9.07,3.24,1.02-1.01,1.85-1.83,2.73-2.7-.39-.28-.58-.41-.82-.58.42-.51.77-.89,1.07-1.31.3-.43.83-.75.7-1.82-1.92,1.27-2.96,3.33-4.72,4.45.53-1.03,1.06-2.06,1.6-3.09-.12-.1-.23-.2-.35-.3-.47.49-.94.97-1.58,1.63.47-2.59,1.96-4.62,1.94-7.15-1.41,1.53-1.6,3.77-2.86,5.77.15-1.25.25-2.12.36-3-.15-.04-.31-.08-.46-.12-.91,1.42-.71,3.34-1.53,4.91-.04-2.24,0-4.39-.14-6.51-.14-2.07.56-4.2-.48-6.22-.81,4.78.09,9.67-.82,14.48-.41-1.77-.82-3.54-1.27-5.49-1.44,1.22.02,2.39-.39,3.49-1.37-1.6-1.22-4.09-2.9-5.91-.27,2.26,1,3.73.98,5.56-.96-1.31-1.92-2.62-2.94-3.99-.63.66-.32,1.18,0,1.63.77,1.07,1.58,2.11,2.37,3.16.48.64.96,1.29,1.43,1.94-.91-.34-1.62-.87-2.3-1.44-1.67-1.41-3.31-2.86-4.98-4.27-.43-.36-.87-.9-1.75-.26,1.37,1.3,2.64,2.52,4.12,3.93-.88-.17-1.45-.29-2.24-.44.61,1.75,2.45,1.5,3.03,3.1-.44-.17-.73-.3-1.03-.4-.99-.31-1.97-.64-2.97-.87-.2-.05-.48.32-.72.49.16.22.3.45.47.65.07.08.2.08.3.12,1.04.32,2.08.62,3.11.98,1.14.4,2.26.85,3.39,1.28-1.25.26-2.44.23-3.62.19-2.7-.09-5.4-.19-8.1-.28-.51-.02-1.02,0-.89,1.02,3.84.41,7.76.2,11.64.72-.74.27-1.48.27-2.2.4-.63.11-1.54-.27-1.82,1.16,1.51-.16,2.87-.29,4.56-.47-2.04,1.38-4.19,1.62-5.99,2.97,1.05,1.3,1.83.08,2.63-.14.9-.25,1.74-.72,2.61-1.1.04.1.08.19.12.29-1.03.83-2.06,1.65-3.13,2.51.78.61.79.63,1.27.26.68-.53,1.35-1.08,2.02-1.63-.12.57-.4.92-.71,1.22-.89.86-1.8,1.71-2.7,2.56-.46.44-.76.9.07,1.53,1.59-1.51,3.21-3.05,4.88-4.64.09,1.47-1.47,2.02-1.15,3.6.45-.2.8-.35,1.22-.54q-1.33,3.36-1.11,4.31c1.14-.76,1.25-2.16,1.82-3.22.62-1.15,1.11-2.38,1.66-3.58.11.98-.12,1.85-.13,2.72-.01.78-.86,1.64.11,2.43,1.07-.98.53-2.51,1.19-3.8.11,3.51.21,6.82.31,10.05.81.35.92-.03.91-.61-.04-2.03-.09-4.05-.09-6.08,0-1.61.08-3.22.13-5.06.34,1.13.62,2.05.94,3.13.52-.4.88-.66,1.3-.98.5,1.16.95,2.17,1.39,3.19.23.54.55.87,1.23.48-.55-2.38-2.12-4.26-2.49-6.72.68.72,1.35,1.45,2.03,2.17.1-.07.2-.15.3-.22-.3-.74-.6-1.49-.9-2.23.61.31,1.25.57,1.82.95,1.2.8,2.35,1.7,3.54,2.51.78.53,1.53,1.2,2.76,1.37-1.26-2.37-3.38-3.06-5.27-4.62.94.12,1.55.2,2.17.27.04-.16.09-.33.13-.49-.64-.37-1.27-.74-1.91-1.11.86,0,1.63.26,2.42.35.7.08,1.41.94,2.32-.03-1.47-1.04-3.12-1.16-4.54-2.05.71.02,1.43.05,2.35.08-.63-1.06-1.58-.49-2.24-1.09,3.14-.21,6.17-.4,9.22-.6-.07-.87-.53-.85-.96-.84ZM25.82,38.35c.18.25.36.5.54.75-.25-.14-.51-.29-.76-.43.07-.11.15-.21.22-.32Z"/>
            <path class="cls-6" d="M24.87,49.16c.59-.54.8-1,.14-1.7-.81.45-.73.96-.14,1.7Z"/>
            <path class="cls-5"
                  d="M0,34.32c0,.23.31.65.49.66.22,0,.58-.31.62-.54.04-.22-.26-.51-.5-.93C.32,33.87,0,34.09,0,34.32Z"/>
            <path class="cls-10"
                  d="M7.36,22.62c.19.02.43-.36.75-.66-.35-.28-.58-.62-.81-.61-.19,0-.54.44-.51.63.04.26.35.62.57.65Z"/>
            <path class="cls-9"
                  d="M42.46,34.43c-.24,0-.48.26-.88.52.37.31.61.67.82.64.22-.03.4-.41.6-.64-.18-.18-.36-.52-.54-.52Z"/>
            <path class="cls-4"
                  d="M22.09,55.17c-.18-.02-.39.38-.58.59.21.22.4.52.65.62.12.05.36-.29.66-.54-.29-.29-.5-.65-.73-.67Z"/>
            <path class="cls-3"
                  d="M26.29,17.59c-.31-.33-.49-.61-.74-.73-.08-.04-.48.35-.47.53.02.28.25.55.4.82.23-.18.46-.36.81-.62Z"/>
            <path class="cls-8" d="M32.15,20.8c.47-.44.21-.79-.28-1.19-.43.42-.72.76-.27,1.22.1.1.44.08.55-.03Z"/>
            <path class="cls-7"
                  d="M13.43,21.77c-.16-.24-.41-.49-.66-.56-.12-.03-.33.33-.61.65.38.22.62.46.88.47.13,0,.44-.5.4-.56Z"/>
            <path class="cls-32"
                  d="M4.29,37.8c-.26.04-.49.28-.88.54.36.32.58.65.81.66.16,0,.42-.4.48-.66.03-.15-.29-.56-.41-.54Z"/>
            <path class="cls-12"
                  d="M22.22,13.38c.18.05.44-.31.8-.58-.36-.29-.56-.56-.81-.62-.14-.03-.5.36-.48.48.07.28.27.66.48.72Z"/>
            <path class="cls-28"
                  d="M39.83,25.26c.08.26.35.46.54.68.17-.18.51-.41.48-.53-.07-.29-.31-.52-.59-.92-.21.36-.47.63-.43.77Z"/>
            <path class="cls-29"
                  d="M29.06,24.6c.02-.81.03-1.23.04-1.65-.13-.05-.25-.1-.38-.16-.18.29-.51.58-.5.87,0,.24.39.47.83.94Z"/>
            <path class="cls-30"
                  d="M37.57,44.93c-.23,0-.46.34-.7.54.17.2.32.53.51.56.25.03.53-.17.99-.35-.38-.37-.59-.74-.8-.74Z"/>
            <path class="cls-31"
                  d="M26.94,49.14c.12.28.35.51.53.76.18-.16.52-.41.5-.47-.12-.29-.34-.52-.59-.87-.21.26-.47.5-.44.57Z"/>
            <path class="cls-24"
                  d="M32.03,45.84c-.17-.02-.54.3-.52.4.06.28.26.53.41.79.18-.17.37-.33.63-.57-.22-.27-.35-.59-.52-.62Z"/>
            <path class="cls-25"
                  d="M8.72,37.32c-.22-.05-.49.14-.94.29.64.54.85.84,1,.81.17-.03.42-.38.4-.56-.02-.2-.28-.5-.47-.54Z"/>
            <path class="cls-26"
                  d="M7.42,27.43c0,.2.26.41.41.61.17-.19.44-.35.48-.56.03-.2-.18-.46-.36-.86-.27.38-.52.59-.53.81Z"/>
            <path class="cls-13"
                  d="M29,42.81c-.17,0-.48.3-.5.49-.02.19.25.41.48.75.23-.32.5-.54.47-.71-.02-.21-.29-.53-.46-.54Z"/>
            <path class="cls-18" d="M38.33,40.87c0-.57-.22-.9-.76-.71-.13.05-.31.42-.26.54.23.57.62.51,1.02.17Z"/>
            <path class="cls-22"
                  d="M18.74,48.37c.01.2.3.38.46.56.16-.19.44-.37.45-.57,0-.21-.24-.43-.47-.79-.21.36-.46.59-.45.8Z"/>
            <path class="cls-19"
                  d="M7.16,31.37c-.26-.21-.52-.41-.77-.62-.12.24-.23.47-.35.71.29.14.58.27.87.41.09-.17.17-.33.26-.5Z"/>
            <path class="cls-20"
                  d="M33.08,28.03c.15.03.35-.26.64-.51-.3-.27-.5-.59-.66-.57-.18.02-.45.35-.45.55,0,.18.28.48.48.52Z"/>
            <path class="cls-27"
                  d="M14.73,46.56c.19-.13.41-.36.43-.57.01-.19-.23-.4-.49-.79-.18.49-.32.76-.36,1.05-.01.09.35.36.42.31Z"/>
            <path class="cls-16"
                  d="M35.92,23.93c-.05-.2-.31-.47-.49-.48-.16,0-.34.29-.64.58.33.2.54.44.72.41.17-.03.44-.37.41-.51Z"/>
            <path class="cls-14"
                  d="M38.21,31.24c-.06-.23-.21-.53-.38-.59-.14-.05-.37.21-.71.42.31.25.48.48.67.51.13.02.44-.27.42-.35Z"/>
            <path class="cls-15"
                  d="M10.75,43.23c-.02-.24-.21-.46-.4-.85-.24.37-.51.59-.49.79.02.19.3.41.51.5.07.03.39-.29.38-.43Z"/>
            <path class="cls-21"
                  d="M19.69,22.45c.18-.04.43-.37.42-.56,0-.18-.32-.49-.49-.48-.19.01-.36.31-.66.61.33.21.55.46.72.42Z"/>
            <path class="cls-23"
                  d="M10.48,47.06c-.23-.04-.5.15-.75.24.09.16.17.32.26.48.2.11.4.3.6.29.13,0,.38-.35.34-.45-.07-.23-.27-.53-.45-.57Z"/>
            <path class="cls-34"
                  d="M16.44,17.42c.14-.21.39-.43.37-.61-.02-.22-.29-.41-.55-.74-.19.39-.43.66-.38.84.06.21.36.34.56.51Z"/>
            <path class="cls-35"
                  d="M6.88,42.39c-.02.11.27.42.38.39.21-.04.39-.26.71-.5-.34-.24-.54-.49-.74-.48-.14,0-.32.36-.35.58Z"/>
            <path class="cls-33"
                  d="M23.9,44.63c-.15-.02-.33.31-.5.49.17.17.33.41.53.48.12.04.32-.17.6-.35-.28-.3-.44-.6-.63-.63Z"/>
            <path class="cls-17"
                  d="M14.65,50.43c-.12.38-.25.62-.24.85,0,.11.37.33.41.29.16-.15.32-.37.35-.59.01-.12-.25-.27-.52-.55Z"/>
        </g>
    </g>
</svg>