<?xml version="1.0" encoding="UTF-8"?>
<svg id="Layer_2" data-name="Layer 2" xmlns="http://www.w3.org/2000/svg" viewBox="0 0 250 64.88">
    <defs>
        <style>
            .cls-1 {
            fill: none;
            }

            .cls-2 {
            fill: #102f41;
            }
        </style>
    </defs>
    <g id="Layer_1-2" data-name="Layer 1">
        <g>
            <rect class="cls-1" y="4.18" width="250" height="59"/>
            <path class="cls-2"
                  d="M8.17,25.17h-3.11l-.57,3.02h-1.55l2.75-13.17h1.83l2.77,13.17h-1.55l-.57-3.02ZM5.25,23.84h2.73l-1.36-7.29-1.36,7.29Z"/>
            <path class="cls-2"
                  d="M13.68,23.9h-.84v4.28h-1.51v-10.86h2.46c1.87,0,2.88,1.42,2.88,3.26s-.82,2.72-1.64,3.02l1.78,4.58h-1.64l-1.49-4.28ZM13.61,18.57h-.78v4.09h.78c1.03,0,1.51-.87,1.51-2.05s-.48-2.03-1.51-2.03Z"/>
            <path class="cls-2" d="M19.83,20.41v7.78h-1.45v-10.86h1.6l2.71,7.58v-7.58h1.43v10.86h-1.51l-2.77-7.78Z"/>
            <path class="cls-2"
                  d="M29.11,17.09c2.44,0,3.32,2.57,3.32,5.67s-.88,5.67-3.32,5.67-3.3-2.57-3.3-5.67.88-5.67,3.3-5.67ZM29.11,18.34c-1.39,0-1.76,2.05-1.76,4.42s.38,4.42,1.76,4.42,1.76-2.07,1.76-4.42-.38-4.42-1.76-4.42Z"/>
            <path class="cls-2" d="M34.13,17.33h1.51v9.62h3.09v1.24h-4.6v-10.86Z"/>
            <path class="cls-2"
                  d="M40.05,17.33h2.46c2.54,0,3.67,2.31,3.67,5.45s-1.13,5.41-3.67,5.41h-2.46v-10.86ZM42.51,18.57h-.94v8.37h.94c1.47,0,2.14-1.72,2.14-4.17s-.69-4.21-2.14-4.21Z"/>
            <path class="cls-2"
                  d="M56.49,28.19h-1.47l-.46-2.45h-2.52l-.46,2.45h-1.47l2.35-10.86h1.7l2.33,10.86ZM52.23,24.5h2.14l-1.07-5.55-1.07,5.55Z"/>
            <path class="cls-2" d="M58.95,20.41v7.78h-1.45v-10.86h1.6l2.71,7.58v-7.58h1.43v10.86h-1.51l-2.77-7.78Z"/>
            <path class="cls-2"
                  d="M65.29,17.33h2.46c2.54,0,3.67,2.31,3.67,5.45s-1.13,5.41-3.67,5.41h-2.46v-10.86ZM67.75,18.57h-.94v8.37h.94c1.47,0,2.14-1.72,2.14-4.17s-.69-4.21-2.14-4.21Z"/>
            <path class="cls-2"
                  d="M76.57,15.02h2.67c2.9,0,4.09,2.8,4.09,6.59s-1.18,6.58-4.09,6.58h-2.67v-13.17ZM79.24,26.87c1.76,0,2.44-2.17,2.44-5.25s-.69-5.27-2.44-5.27h-1.09v10.52h1.09Z"/>
            <path class="cls-2" d="M85.1,17.33h4.6v1.24h-3.09v3.44h2.96v1.24h-2.96v3.69h3.09v1.24h-4.6v-10.86Z"/>
            <path class="cls-2"
                  d="M96.69,28.19h-1.47l-.46-2.45h-2.52l-.46,2.45h-1.47l2.35-10.86h1.7l2.33,10.86ZM92.43,24.5h2.14l-1.07-5.55-1.07,5.55Z"/>
            <path class="cls-2" d="M99.15,20.41v7.78h-1.45v-10.86h1.6l2.71,7.58v-7.58h1.43v10.86h-1.51l-2.77-7.78Z"/>
            <path class="cls-2" d="M106.94,20.41v7.78h-1.45v-10.86h1.6l2.71,7.58v-7.58h1.43v10.86h-1.51l-2.77-7.78Z"/>
            <path class="cls-2" d="M113.28,17.33h4.6v1.24h-3.09v3.44h2.96v1.24h-2.96v3.69h3.09v1.24h-4.6v-10.86Z"/>
            <path class="cls-2"
                  d="M125.54,22.48l-.94,1.7v4.01h-1.58v-13.17h1.58v6.85l3.59-6.85h1.79l-3.55,6.26,3.82,6.91h-1.83l-2.88-5.71Z"/>
            <path class="cls-2"
                  d="M136.67,28.19h-1.47l-.46-2.45h-2.52l-.46,2.45h-1.47l2.35-10.86h1.7l2.33,10.86ZM132.41,24.5h2.14l-1.07-5.55-1.07,5.55Z"/>
            <path class="cls-2"
                  d="M137.68,17.33h2.44c2,0,2.9,1.52,2.9,3.28s-.9,3.3-2.9,3.3h-.92v4.28h-1.51v-10.86ZM139.97,18.57h-.78v4.09h.78c1.03,0,1.51-.87,1.51-2.03s-.48-2.05-1.51-2.05Z"/>
            <path class="cls-2" d="M144.38,17.33h1.51v9.62h3.09v1.24h-4.6v-10.86Z"/>
            <path class="cls-2"
                  d="M155.61,28.19h-1.47l-.46-2.45h-2.52l-.46,2.45h-1.47l2.35-10.86h1.7l2.33,10.86ZM151.35,24.5h2.14l-1.07-5.55-1.07,5.55Z"/>
            <path class="cls-2" d="M158.07,20.41v7.78h-1.45v-10.86h1.6l2.71,7.58v-7.58h1.43v10.86h-1.51l-2.77-7.78Z"/>
            <path class="cls-2"
                  d="M167.46,21.61c0-3.83,1.03-6.81,3.65-6.81,1.79,0,2.5,1.3,2.9,2.53l-1.3.47c-.34-1.03-.71-1.66-1.6-1.66-1.47,0-2.02,2.37-2.02,5.47s.55,5.47,2.02,5.47c.99,0,1.39-.87,1.64-1.99l1.32.45c-.36,1.42-1.11,2.88-2.96,2.88-2.62,0-3.65-2.98-3.65-6.81Z"/>
            <path class="cls-2"
                  d="M178.25,17.09c2.44,0,3.32,2.57,3.32,5.67s-.88,5.67-3.32,5.67-3.3-2.57-3.3-5.67.88-5.67,3.3-5.67ZM178.25,18.34c-1.39,0-1.76,2.05-1.76,4.42s.38,4.42,1.76,4.42,1.76-2.07,1.76-4.42-.38-4.42-1.76-4.42Z"/>
            <path class="cls-2" d="M183.27,17.33h1.51v9.62h3.09v1.24h-4.6v-10.86Z"/>
            <path class="cls-2" d="M189.19,17.33h1.51v9.62h3.09v1.24h-4.6v-10.86Z"/>
            <path class="cls-2" d="M195.12,17.33h4.6v1.24h-3.09v3.44h2.96v1.24h-2.96v3.69h3.09v1.24h-4.6v-10.86Z"/>
            <path class="cls-2"
                  d="M204.33,17.09c1.53,0,2.21,1.01,2.65,2.19l-1.24.39c-.31-.87-.71-1.34-1.41-1.34-1.34,0-1.76,1.95-1.76,4.42s.42,4.42,1.76,4.42c.73,0,1.15-.53,1.41-1.44l1.24.38c-.42,1.24-1.07,2.31-2.65,2.31-2.39,0-3.3-2.51-3.3-5.67s.9-5.67,3.3-5.67Z"/>
            <path class="cls-2" d="M209.23,18.57h-1.78v-1.24h5.08v1.24h-1.78v9.62h-1.51v-9.62Z"/>
            <path class="cls-2" d="M213.72,17.33h1.51v10.86h-1.51v-10.86Z"/>
            <path class="cls-2"
                  d="M220.23,17.09c2.44,0,3.32,2.57,3.32,5.67s-.88,5.67-3.32,5.67-3.3-2.57-3.3-5.67.88-5.67,3.3-5.67ZM220.23,18.34c-1.38,0-1.76,2.05-1.76,4.42s.38,4.42,1.76,4.42,1.76-2.07,1.76-4.42-.38-4.42-1.76-4.42Z"/>
            <path class="cls-2" d="M226.7,20.41v7.78h-1.45v-10.86h1.6l2.71,7.58v-7.58h1.43v10.86h-1.51l-2.77-7.78Z"/>
            <path class="cls-2"
                  d="M238.29,18.68c2.09,0,2.84,2.2,2.84,4.86s-.76,4.86-2.84,4.86-2.83-2.2-2.83-4.86.76-4.86,2.83-4.86ZM238.29,19.74c-1.19,0-1.51,1.76-1.51,3.79s.32,3.79,1.51,3.79,1.51-1.78,1.51-3.79-.32-3.79-1.51-3.79Z"/>
            <path class="cls-2" d="M242.59,18.88h3.94v1.07h-2.65v2.94h2.54v1.07h-2.54v4.23h-1.3v-9.31Z"/>
            <path class="cls-2" d="M3.84,31.61h8.93v2.27h-6.23v7.62h5.98v2.27h-5.98v8.16h6.23v2.27H3.84v-22.57Z"/>
            <path class="cls-2"
                  d="M25.22,54.19h-2.52l-.79-4.2h-4.32l-.79,4.2h-2.52l4.03-18.61h2.92l4,18.61ZM17.92,47.86h3.67l-1.84-9.51-1.84,9.51Z"/>
            <path class="cls-2"
                  d="M31.35,46.84h-1.44v7.34h-2.59v-18.61h4.21c3.2,0,4.93,2.44,4.93,5.58s-1.4,4.67-2.81,5.18l3.06,7.85h-2.81l-2.56-7.34ZM31.24,37.71h-1.33v7.01h1.33c1.76,0,2.59-1.49,2.59-3.52s-.83-3.49-2.59-3.49Z"/>
            <path class="cls-2" d="M39.77,35.57h2.59v16.48h5.29v2.13h-7.88v-18.61Z"/>
            <path class="cls-2" d="M50.89,46.3l-4.61-10.73h2.7l3.2,8.22,3.2-8.22h2.74l-4.64,10.73v7.89h-2.59v-7.89Z"/>
            <path class="cls-2"
                  d="M73.21,49.01h-5.33l-.97,5.18h-2.66l4.72-22.57h3.13l4.75,22.57h-2.66l-.97-5.18ZM68.21,46.74h4.68l-2.34-12.49-2.34,12.49Z"/>
            <path class="cls-2"
                  d="M90.17,40.35l-3.82,13.84h-1.12l-3.78-13.84v13.84h-2.48v-18.61h3.24l3.6,12.89,3.56-12.89h3.2v18.61h-2.41v-13.84Z"/>
            <path class="cls-2" d="M96.47,35.57h7.88v2.13h-5.29v5.89h5.08v2.13h-5.08v6.33h5.29v2.13h-7.88v-18.61Z"/>
            <path class="cls-2"
                  d="M111.62,46.84h-1.44v7.34h-2.59v-18.61h4.21c3.2,0,4.93,2.44,4.93,5.58s-1.4,4.67-2.81,5.18l3.06,7.85h-2.81l-2.56-7.34ZM111.52,37.71h-1.33v7.01h1.33c1.76,0,2.59-1.49,2.59-3.52s-.83-3.49-2.59-3.49Z"/>
            <path class="cls-2" d="M120.05,35.57h2.59v18.61h-2.59v-18.61Z"/>
            <path class="cls-2"
                  d="M131.57,35.17c2.63,0,3.78,1.73,4.54,3.76l-2.12.68c-.54-1.49-1.22-2.3-2.41-2.3-2.3,0-3.02,3.35-3.02,7.58s.72,7.58,3.02,7.58c1.26,0,1.98-.91,2.41-2.47l2.12.64c-.72,2.13-1.83,3.96-4.54,3.96-4.1,0-5.65-4.3-5.65-9.71s1.55-9.71,5.65-9.71Z"/>
            <path class="cls-2"
                  d="M148.13,54.19h-2.52l-.79-4.2h-4.32l-.79,4.2h-2.52l4.03-18.61h2.92l4,18.61ZM140.82,47.86h3.67l-1.83-9.51-1.84,9.51Z"/>
            <path class="cls-2" d="M152.7,40.85v13.33h-2.48v-18.61h2.74l4.64,13v-13h2.45v18.61h-2.59l-4.75-13.33Z"/>
            <path class="cls-2"
                  d="M169.23,51.01c.76.95,1.66,1.29,2.55,1.29,1.76,0,2.81-.88,2.81-3.01v-17.67h2.7v17.77c0,3.62-2.12,5.21-5.26,5.21-1.44,0-2.7-.44-3.81-1.56l1.01-2.03Z"/>
            <path class="cls-2"
                  d="M181.39,35.57h2.59v13.47c0,2.3.76,3.42,2.41,3.42s2.38-1.15,2.38-3.42v-13.47h2.59v12.73c0,4.26-1.69,6.29-4.97,6.29s-5-2.06-5-6.29v-12.73Z"/>
            <path class="cls-2"
                  d="M195.25,35.57h4.21c4.36,0,6.3,3.96,6.3,9.34s-1.94,9.27-6.3,9.27h-4.21v-18.61ZM199.46,37.71h-1.62v14.35h1.62c2.52,0,3.67-2.94,3.67-7.14s-1.19-7.21-3.67-7.21Z"/>
            <path class="cls-2"
                  d="M218.04,54.19h-2.52l-.79-4.2h-4.32l-.79,4.2h-2.52l4.03-18.61h2.92l4,18.61ZM210.73,47.86h3.67l-1.84-9.51-1.84,9.51Z"/>
            <path class="cls-2" d="M220.13,35.57h2.59v18.61h-2.59v-18.61Z"/>
            <path class="cls-2"
                  d="M231.65,35.17c2.63,0,3.78,1.73,4.54,3.76l-2.12.68c-.54-1.49-1.22-2.3-2.41-2.3-2.3,0-3.02,3.35-3.02,7.58s.72,7.58,3.02,7.58c1.26,0,1.98-.91,2.41-2.47l2.12.64c-.72,2.13-1.84,3.96-4.54,3.96-4.1,0-5.65-4.3-5.65-9.71s1.55-9.71,5.65-9.71Z"/>
            <path class="cls-2"
                  d="M248.21,54.19h-2.52l-.79-4.2h-4.32l-.79,4.2h-2.52l4.03-18.61h2.92l4,18.61ZM240.9,47.86h3.67l-1.84-9.51-1.84,9.51Z"/>
        </g>
    </g>
</svg>