<?xml version="1.0" encoding="UTF-8"?>
<svg id="Layer_2" data-name="Layer 2" xmlns="http://www.w3.org/2000/svg" viewBox="0 0 288 64.88">
    <defs>
        <style>
            .cls-1 {
            fill: none;
            }

            .cls-2 {
            fill: #006e90;
            }

            .cls-3 {
            fill: #102f41;
            }
        </style>
    </defs>
    <g id="Layer_1-2" data-name="Layer 1">
        <g>
            <rect class="cls-1" x="38" y="4.18" width="250" height="59"/>
            <path class="cls-3"
                  d="M46.17,25.17h-3.11l-.57,3.02h-1.55l2.75-13.17h1.83l2.77,13.17h-1.55l-.57-3.02ZM43.25,23.84h2.73l-1.36-7.29-1.36,7.29Z"/>
            <path class="cls-3"
                  d="M51.68,23.9h-.84v4.28h-1.51v-10.86h2.46c1.87,0,2.88,1.42,2.88,3.26s-.82,2.72-1.64,3.02l1.78,4.58h-1.64l-1.49-4.28ZM51.61,18.57h-.78v4.09h.78c1.03,0,1.51-.87,1.51-2.05s-.48-2.03-1.51-2.03Z"/>
            <path class="cls-3" d="M57.83,20.41v7.78h-1.45v-10.86h1.6l2.71,7.58v-7.58h1.43v10.86h-1.51l-2.77-7.78Z"/>
            <path class="cls-3"
                  d="M67.11,17.09c2.44,0,3.32,2.57,3.32,5.67s-.88,5.67-3.32,5.67-3.3-2.57-3.3-5.67.88-5.67,3.3-5.67ZM67.11,18.34c-1.39,0-1.76,2.05-1.76,4.42s.38,4.42,1.76,4.42,1.76-2.07,1.76-4.42-.38-4.42-1.76-4.42Z"/>
            <path class="cls-3" d="M72.13,17.33h1.51v9.62h3.09v1.24h-4.6v-10.86Z"/>
            <path class="cls-3"
                  d="M78.05,17.33h2.46c2.54,0,3.67,2.31,3.67,5.45s-1.13,5.41-3.67,5.41h-2.46v-10.86ZM80.51,18.57h-.94v8.37h.94c1.47,0,2.14-1.72,2.14-4.17s-.69-4.21-2.14-4.21Z"/>
            <path class="cls-3"
                  d="M94.49,28.19h-1.47l-.46-2.45h-2.52l-.46,2.45h-1.47l2.35-10.86h1.7l2.33,10.86ZM90.23,24.5h2.14l-1.07-5.55-1.07,5.55Z"/>
            <path class="cls-3" d="M96.95,20.41v7.78h-1.45v-10.86h1.6l2.71,7.58v-7.58h1.43v10.86h-1.51l-2.77-7.78Z"/>
            <path class="cls-3"
                  d="M103.29,17.33h2.46c2.54,0,3.67,2.31,3.67,5.45s-1.13,5.41-3.67,5.41h-2.46v-10.86ZM105.75,18.57h-.94v8.37h.94c1.47,0,2.14-1.72,2.14-4.17s-.69-4.21-2.14-4.21Z"/>
            <path class="cls-3"
                  d="M114.57,15.02h2.67c2.9,0,4.09,2.8,4.09,6.59s-1.18,6.58-4.09,6.58h-2.67v-13.17ZM117.24,26.87c1.76,0,2.44-2.17,2.44-5.25s-.69-5.27-2.44-5.27h-1.09v10.52h1.09Z"/>
            <path class="cls-3" d="M123.1,17.33h4.6v1.24h-3.09v3.44h2.96v1.24h-2.96v3.69h3.09v1.24h-4.6v-10.86Z"/>
            <path class="cls-3"
                  d="M134.69,28.19h-1.47l-.46-2.45h-2.52l-.46,2.45h-1.47l2.35-10.86h1.7l2.33,10.86ZM130.43,24.5h2.14l-1.07-5.55-1.07,5.55Z"/>
            <path class="cls-3" d="M137.15,20.41v7.78h-1.45v-10.86h1.6l2.71,7.58v-7.58h1.43v10.86h-1.51l-2.77-7.78Z"/>
            <path class="cls-3" d="M144.94,20.41v7.78h-1.45v-10.86h1.6l2.71,7.58v-7.58h1.43v10.86h-1.51l-2.77-7.78Z"/>
            <path class="cls-3" d="M151.28,17.33h4.6v1.24h-3.09v3.44h2.96v1.24h-2.96v3.69h3.09v1.24h-4.6v-10.86Z"/>
            <path class="cls-3"
                  d="M163.54,22.48l-.94,1.7v4.01h-1.58v-13.17h1.58v6.85l3.59-6.85h1.79l-3.55,6.26,3.82,6.91h-1.83l-2.88-5.71Z"/>
            <path class="cls-3"
                  d="M174.67,28.19h-1.47l-.46-2.45h-2.52l-.46,2.45h-1.47l2.35-10.86h1.7l2.33,10.86ZM170.41,24.5h2.14l-1.07-5.55-1.07,5.55Z"/>
            <path class="cls-3"
                  d="M175.68,17.33h2.44c2,0,2.9,1.52,2.9,3.28s-.9,3.3-2.9,3.3h-.92v4.28h-1.51v-10.86ZM177.97,18.57h-.78v4.09h.78c1.03,0,1.51-.87,1.51-2.03s-.48-2.05-1.51-2.05Z"/>
            <path class="cls-3" d="M182.38,17.33h1.51v9.62h3.09v1.24h-4.6v-10.86Z"/>
            <path class="cls-3"
                  d="M193.61,28.19h-1.47l-.46-2.45h-2.52l-.46,2.45h-1.47l2.35-10.86h1.7l2.33,10.86ZM189.35,24.5h2.14l-1.07-5.55-1.07,5.55Z"/>
            <path class="cls-3" d="M196.07,20.41v7.78h-1.45v-10.86h1.6l2.71,7.58v-7.58h1.43v10.86h-1.51l-2.77-7.78Z"/>
            <path class="cls-3"
                  d="M205.46,21.61c0-3.83,1.03-6.81,3.65-6.81,1.79,0,2.5,1.3,2.9,2.53l-1.3.47c-.34-1.03-.71-1.66-1.6-1.66-1.47,0-2.02,2.37-2.02,5.47s.55,5.47,2.02,5.47c.99,0,1.39-.87,1.64-1.99l1.32.45c-.36,1.42-1.11,2.88-2.96,2.88-2.62,0-3.65-2.98-3.65-6.81Z"/>
            <path class="cls-3"
                  d="M216.25,17.09c2.44,0,3.32,2.57,3.32,5.67s-.88,5.67-3.32,5.67-3.3-2.57-3.3-5.67.88-5.67,3.3-5.67ZM216.25,18.34c-1.39,0-1.76,2.05-1.76,4.42s.38,4.42,1.76,4.42,1.76-2.07,1.76-4.42-.38-4.42-1.76-4.42Z"/>
            <path class="cls-3" d="M221.27,17.33h1.51v9.62h3.09v1.24h-4.6v-10.86Z"/>
            <path class="cls-3" d="M227.19,17.33h1.51v9.62h3.09v1.24h-4.6v-10.86Z"/>
            <path class="cls-3" d="M233.12,17.33h4.6v1.24h-3.09v3.44h2.96v1.24h-2.96v3.69h3.09v1.24h-4.6v-10.86Z"/>
            <path class="cls-3"
                  d="M242.33,17.09c1.53,0,2.21,1.01,2.65,2.19l-1.24.39c-.31-.87-.71-1.34-1.41-1.34-1.34,0-1.76,1.95-1.76,4.42s.42,4.42,1.76,4.42c.73,0,1.15-.53,1.41-1.44l1.24.38c-.42,1.24-1.07,2.31-2.65,2.31-2.39,0-3.3-2.51-3.3-5.67s.9-5.67,3.3-5.67Z"/>
            <path class="cls-3" d="M247.23,18.57h-1.78v-1.24h5.08v1.24h-1.78v9.62h-1.51v-9.62Z"/>
            <path class="cls-3" d="M251.72,17.33h1.51v10.86h-1.51v-10.86Z"/>
            <path class="cls-3"
                  d="M258.23,17.09c2.44,0,3.32,2.57,3.32,5.67s-.88,5.67-3.32,5.67-3.3-2.57-3.3-5.67.88-5.67,3.3-5.67ZM258.23,18.34c-1.38,0-1.76,2.05-1.76,4.42s.38,4.42,1.76,4.42,1.76-2.07,1.76-4.42-.38-4.42-1.76-4.42Z"/>
            <path class="cls-3" d="M264.7,20.41v7.78h-1.45v-10.86h1.6l2.71,7.58v-7.58h1.43v10.86h-1.51l-2.77-7.78Z"/>
            <path class="cls-3"
                  d="M276.29,18.68c2.09,0,2.84,2.2,2.84,4.86s-.76,4.86-2.84,4.86-2.83-2.2-2.83-4.86.76-4.86,2.83-4.86ZM276.29,19.74c-1.19,0-1.51,1.76-1.51,3.79s.32,3.79,1.51,3.79,1.51-1.78,1.51-3.79-.32-3.79-1.51-3.79Z"/>
            <path class="cls-3" d="M280.59,18.88h3.94v1.07h-2.65v2.94h2.54v1.07h-2.54v4.23h-1.3v-9.31Z"/>
            <path class="cls-3" d="M41.84,31.61h8.93v2.27h-6.23v7.62h5.98v2.27h-5.98v8.16h6.23v2.27h-8.93v-22.57Z"/>
            <path class="cls-3"
                  d="M63.22,54.19h-2.52l-.79-4.2h-4.32l-.79,4.2h-2.52l4.03-18.61h2.92l4,18.61ZM55.92,47.86h3.67l-1.84-9.51-1.84,9.51Z"/>
            <path class="cls-3"
                  d="M69.35,46.84h-1.44v7.34h-2.59v-18.61h4.21c3.2,0,4.93,2.44,4.93,5.58s-1.4,4.67-2.81,5.18l3.06,7.85h-2.81l-2.56-7.34ZM69.24,37.71h-1.33v7.01h1.33c1.76,0,2.59-1.49,2.59-3.52s-.83-3.49-2.59-3.49Z"/>
            <path class="cls-3" d="M77.77,35.57h2.59v16.48h5.29v2.13h-7.88v-18.61Z"/>
            <path class="cls-3" d="M88.89,46.3l-4.61-10.73h2.7l3.2,8.22,3.2-8.22h2.74l-4.64,10.73v7.89h-2.59v-7.89Z"/>
            <path class="cls-3"
                  d="M111.21,49.01h-5.33l-.97,5.18h-2.66l4.72-22.57h3.13l4.75,22.57h-2.66l-.97-5.18ZM106.21,46.74h4.68l-2.34-12.49-2.34,12.49Z"/>
            <path class="cls-3"
                  d="M128.17,40.35l-3.82,13.84h-1.12l-3.78-13.84v13.84h-2.48v-18.61h3.24l3.6,12.89,3.56-12.89h3.2v18.61h-2.41v-13.84Z"/>
            <path class="cls-3" d="M134.47,35.57h7.88v2.13h-5.29v5.89h5.08v2.13h-5.08v6.33h5.29v2.13h-7.88v-18.61Z"/>
            <path class="cls-3"
                  d="M149.62,46.84h-1.44v7.34h-2.59v-18.61h4.21c3.2,0,4.93,2.44,4.93,5.58s-1.4,4.67-2.81,5.18l3.06,7.85h-2.81l-2.56-7.34ZM149.52,37.71h-1.33v7.01h1.33c1.76,0,2.59-1.49,2.59-3.52s-.83-3.49-2.59-3.49Z"/>
            <path class="cls-3" d="M158.05,35.57h2.59v18.61h-2.59v-18.61Z"/>
            <path class="cls-3"
                  d="M169.57,35.17c2.63,0,3.78,1.73,4.54,3.76l-2.12.68c-.54-1.49-1.22-2.3-2.41-2.3-2.3,0-3.02,3.35-3.02,7.58s.72,7.58,3.02,7.58c1.26,0,1.98-.91,2.41-2.47l2.12.64c-.72,2.13-1.83,3.96-4.54,3.96-4.1,0-5.65-4.3-5.65-9.71s1.55-9.71,5.65-9.71Z"/>
            <path class="cls-3"
                  d="M186.13,54.19h-2.52l-.79-4.2h-4.32l-.79,4.2h-2.52l4.03-18.61h2.92l4,18.61ZM178.82,47.86h3.67l-1.83-9.51-1.84,9.51Z"/>
            <path class="cls-3" d="M190.7,40.85v13.33h-2.48v-18.61h2.74l4.64,13v-13h2.45v18.61h-2.59l-4.75-13.33Z"/>
            <path class="cls-3"
                  d="M207.23,51.01c.76.95,1.66,1.29,2.55,1.29,1.76,0,2.81-.88,2.81-3.01v-17.67h2.7v17.77c0,3.62-2.12,5.21-5.26,5.21-1.44,0-2.7-.44-3.81-1.56l1.01-2.03Z"/>
            <path class="cls-3"
                  d="M219.39,35.57h2.59v13.47c0,2.3.76,3.42,2.41,3.42s2.38-1.15,2.38-3.42v-13.47h2.59v12.73c0,4.26-1.69,6.29-4.97,6.29s-5-2.06-5-6.29v-12.73Z"/>
            <path class="cls-3"
                  d="M233.25,35.57h4.21c4.36,0,6.3,3.96,6.3,9.34s-1.94,9.27-6.3,9.27h-4.21v-18.61ZM237.46,37.71h-1.62v14.35h1.62c2.52,0,3.67-2.94,3.67-7.14s-1.19-7.21-3.67-7.21Z"/>
            <path class="cls-3"
                  d="M256.04,54.19h-2.52l-.79-4.2h-4.32l-.79,4.2h-2.52l4.03-18.61h2.92l4,18.61ZM248.73,47.86h3.67l-1.84-9.51-1.84,9.51Z"/>
            <path class="cls-3" d="M258.13,35.57h2.59v18.61h-2.59v-18.61Z"/>
            <path class="cls-3"
                  d="M269.65,35.17c2.63,0,3.78,1.73,4.54,3.76l-2.12.68c-.54-1.49-1.22-2.3-2.41-2.3-2.3,0-3.02,3.35-3.02,7.58s.72,7.58,3.02,7.58c1.26,0,1.98-.91,2.41-2.47l2.12.64c-.72,2.13-1.84,3.96-4.54,3.96-4.1,0-5.65-4.3-5.65-9.71s1.55-9.71,5.65-9.71Z"/>
            <path class="cls-3"
                  d="M286.21,54.19h-2.52l-.79-4.2h-4.32l-.79,4.2h-2.52l4.03-18.61h2.92l4,18.61ZM278.9,47.86h3.67l-1.84-9.51-1.84,9.51Z"/>
        </g>
        <path class="cls-2"
              d="M21.94,29.09c1.96-.74,3.87-1.34,5.65-2.16,2.94-1.37,6.05-2.34,9.07-3.51.11-.04.23-.06.34-.11.25-.1.51-.25.71.05.18.27-.01.48-.23.63-.6.45-1.2.91-1.83,1.32-2.14,1.38-4.32,2.72-6.45,4.13-1.77,1.17-3.48,2.41-5.32,3.69,4.74,3.32,9.5,6.43,14.12,9.74-.16.23-.23.34-.27.39-1.53-.52-2.99-1.06-4.47-1.52-3.83-1.17-7.46-2.87-11.42-3.99-.18,1.2-.36,2.32-.52,3.43-.27,1.96-.52,3.93-.8,5.9-.26,1.83-.54,3.65-.83,5.48-.06.36-.21.7-.33,1.06-.08,0-.16,0-.24,0-.08-.21-.19-.41-.23-.62-.29-1.52-.59-3.03-.85-4.55-.16-.97-.23-1.96-.38-2.94-.25-1.55-.54-3.1-.82-4.64-.18-1-.38-2-.6-3.12-.34.1-.67.17-.97.31-2.12.92-4.17,1.98-6.36,2.73-2.43.84-4.72,1.97-7.14,2.83-.45.16-.9.35-1.32-.16.1-.46.56-.67.9-.94,1.61-1.26,3.24-2.52,4.89-3.74,1.19-.88,2.44-1.68,3.64-2.53.87-.62,1.73-1.27,2.57-1.94.77-.61.75-.78-.09-1.38-1.16-.83-2.33-1.63-3.48-2.47-1.92-1.4-3.82-2.83-5.72-4.24-.93-.69-1.85-1.38-2.78-2.08-.11-.08-.19-.2-.4-.42.34-.05.56-.15.74-.1.69.17,1.38.35,2.04.6,1.02.38,1.99.9,3.03,1.21,1.51.44,2.85,1.24,4.33,1.72,1.93.64,3.88,1.22,5.93,1.86.95-5.13,1.88-10.18,2.82-15.28.35.05.36.36.39.64.12.93.18,1.87.35,2.79.67,3.61,1.37,7.21,2.06,10.81.07.35.15.69.25,1.13ZM13.33,34.28c1.73.75,3.12.4,4.48-.54-.12-.05-.19-.1-.27-.1-.95,0-1.92-.07-2.86.02-.43.04-.84.37-1.36.62ZM15.41,37.42c.97-.29,2.41-2.09,2.65-3.17-.48.22-.93.42-1.37.65-.17.09-.37.23-.44.39-.29.65-.53,1.32-.84,2.14ZM17.19,33.18c.02-.09.04-.19.06-.28-.47-.2-.94-.55-1.42-.56-.92-.02-1.87.08-2.98.56.28.14.41.27.54.27,1.26.02,2.53,0,3.79,0ZM16.68,29.03c-.09.06-.17.12-.26.18.64,1.14,1.35,2.24,2.3,3.42.09-.67.24-1.2-.1-1.6-.59-.71-1.29-1.34-1.94-2ZM22.24,29.35c-1.12.9-1.58,2.1-2.34,3.11,1.65-.64,2.47-1.73,2.34-3.11ZM19.35,32.29c.73-1.07,1.37-1.99,1.98-2.92.08-.13.03-.33.04-.5-.05-.03-.11-.05-.16-.08-.44.43-.88.87-1.33,1.3-.61.58-.78,1.25-.53,2.2ZM14.14,37.97q.71-.12.9-.59c.27-.66.41-1.41.34-1.76-1.24.63-1.35.83-1.24,2.34ZM17.95,32.6c-.8-.98-1.24-2.18-2.22-3.07.06.48.28.9.35,1.35.15,1.02.9,1.45,1.87,1.73ZM11.85,35.49c1.85.5,2.21.46,3.03-.42-1.06.17-2.1-.66-3.03.42ZM20.89,36.92c.05-.05.11-.1.16-.16-.56-.81-.9-1.76-1.75-2.59,0,.59-.02.99,0,1.4,0,.15.06.35.17.44.45.33.94.61,1.42.91ZM16.72,37.63c.06.04.13.08.19.12.51-.53,1.01-1.07,1.53-1.59.43-.43.57-.88.2-1.44-.71.94-1.44,1.86-1.92,2.91ZM20.03,34.27c.8,1.07,1.16,2.18,2.07,2.99.04-.17.02-.33-.03-.47-.12-.34-.34-.66-.38-1-.11-.82-.63-1.25-1.66-1.52ZM10.76,31.3c.43.3.71.49.98.68.73-.32,1.39-.61,2.23-.98-1.22-.45-2.08.13-3.21.3ZM15.76,31.36c-.22-.62-.44-1.12-.57-1.64-.13-.53-.49-.67-1.08-.69.17.46.36.85.46,1.27.13.53.44.87,1.19,1.06ZM22.08,31.98c1.79.5,2.03.5,2.67,0-1.22-.84-1.5-.85-2.67,0ZM9.84,30.33c-.03.06-.05.12-.08.18.23.15.5.46.67.42.68-.16,1.46-.14,2.01-.71-.95-.59-1.76,0-2.61.12ZM20.3,33.02c1.28.17,2.66.09,3.28-.24-.57-.1-1.04-.14-1.48-.28-.72-.23-1.27-.06-1.81.52ZM16.87,28.16c.27.98,1.09,1.5,1.89,2.24.03-.47.05-.79.08-1.12-.68-.39-1.32-.75-1.97-1.12ZM23.15,33.6h-3.11c.89.86,1.77.69,3.11,0ZM12.19,32.12c-.01.06-.02.13-.04.19.2.06.42.21.59.17.82-.18,1.63-.41,2.47-.63-.23-.23-.45-.52-.86-.4-.73.21-1.44.44-2.17.67ZM13.7,36.62c-.87.29-1.15.89-.94,2.01.25-.09.49-.18.73-.27.07-.59.14-1.15.21-1.74ZM24.78,34.32c-.59.34-1.12.64-1.78,1.02.36.13.58.3.72.25.61-.19,1.21-.45,1.9-.72-.34-.23-.55-.37-.84-.56ZM16.96,38.25c.05.05.1.11.15.16.57-.21,1.01-.61,1.48-.97.36-.28.36-.57.11-1.01-.62.65-1.18,1.23-1.74,1.82ZM22.37,31.08c.93-.33,1.18-.95.83-2.15-.2.23-.43.37-.48.56-.15.49-.22,1-.35,1.58ZM19.14,39.55c.56.24,1.15.48,1.7.72.1-.6.06-.61-.21-.75-.46-.23-.92-.44-1.49-.69v.71ZM22.02,34.67c.2.14.39.26.58.39.61-.3,1.18-.59,1.81-.9q-.55-.34-2.39.51ZM26.83,38.96c-.35-1.33-.7-1.85-1.47-1.79.33.67.38,1.5,1.47,1.79ZM27.62,36.36c-.55-.5-1.01-.45-1.93.19.74.59.86.58,1.93-.19ZM19.3,27.72c.65-.4,1.15-.71,1.7-1.05-.06-.23-.12-.45-.22-.86-.41.78-1.59.78-1.48,1.91ZM18.76,28.61c.01-.17.07-.32.02-.36-.57-.47-1.16-.91-1.88-1.18-.23.38-.06.65.24.8.5.27,1.04.48,1.63.74ZM17.39,25.06c-.26.63-.27.65.17.9.36.2.74.37,1.17.58.07-1-.77-1.11-1.34-1.47ZM11.01,37.99c-.82.32-.96.6-.9,1.69.45.03.73-.1.77-.55.03-.35.08-.7.13-1.13ZM28.6,26.96c-.32.15-.56.25-.8.36-.65.29-.66.31-.48,1.07q1.1-.33,1.28-1.43ZM19.37,30.07c.61-.79,1.43-1.29,1.8-2.12-.22.04-.39.14-.53.26-.28.24-.51.55-.83.72-.46.24-.61.54-.45,1.14ZM12.32,37.37c-.81.31-.94.6-.86,1.89.25-.17.56-.26.6-.42.14-.46.17-.95.25-1.47ZM26.67,35.61c-.3-.17-.51-.38-.66-.35-.58.11-1.18.25-1.67.79.89.31,1.5-.17,2.33-.43ZM18.69,24c.11-.99-.08-1.26-.99-1.52-.02.33-.03.64-.05.93.37.21.67.38,1.04.59ZM7.44,40.78c1.04-.24,1.11-.35.95-1.43-.79.22-1.02.73-.95,1.43ZM23.74,30.42c.66-.38.83-.84.72-1.66-.78.1-.79.11-.79.68,0,.29.04.59.07.97ZM29.51,28.75c-.75-.2-1.42-.4-1.94.31.69.33,1.33.41,1.94-.31ZM9.23,30.14c.59-.22,1.09-.41,1.68-.63q-.61-.3-2.04,0s-.07.07-.2.19c.17.13.34.26.57.44ZM19.2,40.02c.14.37.16.67.3.73.45.21.68.78,1.3.73.14-.32.17-.58-.16-.75-.41-.21-.82-.41-1.43-.71ZM21.22,39c-.04-.16-.01-.4-.11-.44-.55-.29-1.11-.56-1.79-.64.23.57.85.91,1.9,1.09ZM18.78,39.04c-.06-.03-.12-.07-.18-.1-.4.32-.79.64-1.19.95-.34.27-.33.52.02.85.47-.59,1.26-.91,1.34-1.7ZM27.1,37.3c.66.53,1.25.08,1.9.06-.8-.84-.93-.84-1.9-.06ZM18.68,38.07q-1.7.88-1.58,1.56c.6-.49,1.29-.85,1.58-1.56ZM20.89,37.86c.03-.05.01-.11.05-.16-.54-.37-1.04-.74-1.79-1.19v.83c.56.18,1.2.35,1.75.52ZM22.86,37.54c.06,0,.12-.01.17-.02,0-.71-.15-1.39-.54-2.02-.05-.07-.24-.07-.51-.13.33.81.6,1.49.88,2.17ZM20.38,23.65c-.57.5-1.3.72-.98,1.64.36-.55,1.26-.65.98-1.64ZM19.39,23.76c.99-.53,1.04-.65.61-1.37-.42.38-.93.71-.61,1.37ZM28.51,37.96c.59.57,1.23.54,1.93.36q-.58-.66-1.93-.36ZM24.13,36.6c.13.33.23.66.39.97.16.3.1.81.83.72-.33-.64-.39-1.34-1.23-1.69ZM19.35,42.53c-.17.91.56,1.07,1.16,1.45.03-.8-.5-1.1-1.16-1.45ZM8.31,28.18c-.62-.51-.65-.51-1.54,0,.55.61.66.61,1.54,0ZM12.78,29.74c-.36-.93-.85-1.54-1.31-1.66q.54,1.37,1.31,1.66ZM17.53,41.64c.66-.33,1.29-.81,1.34-1.07.02-.13-.09-.27-.15-.43q-1.16.94-1.19,1.5ZM18.67,25.19c.08-.61-.05-.75-1.14-1.24q-.1.73,1.14,1.24ZM25.1,30.36q1.19.69,1.7.11c-.37-.17-.73-.33-1.1-.5-.21.14-.4.26-.6.38ZM17.13,26.14c-.17.29-.28.49.03.63.51.25,1.02.49,1.54.74.05-.06.1-.11.15-.17-.44-.49-1.09-.76-1.71-1.2ZM8.89,40.14c.7-.19.87-.56.68-1.45-.78.29-.53.92-.68,1.45ZM12.74,28.55c.34.66.57,1.23,1.11,1.71-.02-1.02-.27-1.43-1.11-1.71ZM25.68,28.24c-1.14.17-.57.97-.84,1.53.79-.31.89-.5.84-1.53ZM8.81,37.68q.97.36,1.52-.09c-.83-.51-.85-.51-1.52.09ZM12.98,36.31c-.74-.28-1.34-.38-1.97-.09.59.23,1.15.67,1.97.09ZM25.65,31.3c-.52-.28-.99-.79-1.76-.29.66.16,1.1.76,1.76.29ZM5.48,27.02c.37.78.68.86,1.5.36-.46-.31-.89-.65-1.5-.36ZM18.82,41.51c-1.15.59-1.2.66-.94,1.27.85-.53.93-.64.94-1.27ZM19.41,41.26q-.05.65,1.42,1.41c-.24-.82-1.01-.92-1.42-1.41ZM19.31,26.3c1.34-.68,1.42-.77,1.23-1.37-.51.4-1.08.72-1.23,1.37ZM30.83,27.93c-.64-.34-1.15-.23-1.65.26.62.19,1.18.42,1.65-.26ZM26.97,37.87c.65,1.42.68,1.46,1.31,1.49-.37-.52-.4-1.23-1.31-1.49ZM6.51,39.33c.62.22,1.09-.01,1.53-.43-.94-.29-1.04-.26-1.53.43ZM26.38,29.68q1.16.61,1.51,0c-.48-.09-.95-.51-1.51,0ZM5.98,41.38c.95-.26,1-.33.86-1.15-.7.08-.73.58-.86,1.15ZM28.38,38.61c.32.59.44,1.17,1.23,1.35-.19-.63-.32-1.17-1.23-1.35ZM31.07,40.49q-.25-.82-1.08-.98c.05.57.36.91,1.08.98ZM7.94,29.05c.61.33,1.04-.15,1.75-.22-.81-.47-1.26,0-1.75.22ZM23.9,37.95c.07-.04.14-.07.21-.11-.07-.21-.13-.42-.21-.62-.09-.23-.19-.46-.29-.68-.08-.16-.18-.32-.27-.48.21.63-.05,1.42.57,1.89ZM11.23,28.88c-.3-.43-.19-1.16-1.14-1.25.3.57.47,1.1,1.14,1.25ZM31.93,39.3q-.64-.66-1.47-.29c.43.3.85.5,1.47.29ZM18.68,22.29c.26-.66-.28-.8-.66-1.08q-.2.64.66,1.08ZM29.81,26.57q-.86.1-.73.93.57-.24.73-.93ZM10.03,36.81c.5.25.97.71,1.6.18-.55-.21-1.05-.44-1.6-.18ZM26.91,27.82c-.75.19-.76.2-.65,1.25.61-.26.46-.79.65-1.25ZM30.46,26.84c.47-.18.94-.31.91-.91q-.87.2-.91.91ZM18.29,46.26q.69-.35.45-1.07c-.3.31-.76.5-.45,1.07ZM19.88,21.19c-.53.28-.71.63-.49,1.23.29-.39.82-.62.49-1.23ZM19.03,42.99c-.86.1-1.12.37-1.02.99.34-.32.62-.6,1.02-.99ZM18.76,44.05q-.76.43-.58,1.11c.26-.35.68-.54.58-1.11ZM19.48,43.97c-.03.62.3.91,1.02.95-.4-.37-.71-.66-1.02-.95ZM33.86,25.71c.04.07.08.13.11.2.65-.14,1.06-.63,1.49-1.1-.53.3-1.07.6-1.6.9ZM4.76,41.94q.69-.21.67-.96c-.41.22-.73.46-.67.96ZM19.51,46.21c-.15.57,0,.9.5,1.13.3-.53-.07-.77-.5-1.13ZM19.07,50.74c0-.46,0-.93,0-1.39,0-.06-.06-.13-.13-.28-.39.64.02,1.15.14,1.67ZM32.32,26.47c.64.31.69.29,1.02-.34-.42.14-.72.24-1.02.34ZM19.46,47.63c.07.41-.13.77.39,1,.16-.39.21-.69-.39-1ZM20.52,27.77c-.06-.05-.13-.11-.19-.16-.21.41-.99.29-1,1.13.48-.39.83-.68,1.19-.97ZM4.2,41.84c-.45.23-.86.32-1.11.89.46-.33,1.04-.22,1.11-.89ZM20.18,46.02c-.07-.43-.35-.67-.77-.86-.1.63.41.69.77.86ZM32.05,27.2c-.47-.2-.88-.27-1.26.17.47.19.89.31,1.26-.17ZM7.74,26.69q.2.6.76.69c-.11-.38-.3-.63-.76-.69ZM7.88,38.33c.41,0,.72.32,1.17-.04-.42-.06-.72-.47-1.17.04ZM18.65,21c.18-.48-.08-.66-.47-.8-.31.5.11.61.47.8ZM32.1,40.99c.07-.05.14-.1.2-.15-.08-.34-.23-.62-.88-.65.29.34.48.57.68.8ZM18.8,19.78c-.06-.28-.12-.55-.18-.83-.4.34-.46.63.18.83ZM9.25,27.25q-.04.62.54.8c-.21-.31-.38-.55-.54-.8ZM18.97,46.66c-.07-.03-.14-.06-.21-.09-.28.19-.51.39-.19.9.17-.33.29-.57.4-.81ZM19.16,20.79c.05.03.1.07.15.1q.47-.34.34-.87c-.2.32-.35.55-.5.77ZM33.04,40.87c-.05.08-.1.16-.15.24.34.14.68.28,1.01.42.02-.05.05-.09.07-.14-.31-.17-.62-.35-.94-.52ZM31.96,26.03c.41-.05.66-.16.75-.65-.36.2-.72.19-.75.65ZM6.24,26.23c.3.22.48.35.8.59-.13-.45-.22-.68-.8-.59ZM4.91,26.65c.06-.07.12-.15.18-.22-.19-.1-.38-.2-.56-.31-.04.05-.08.11-.12.16.17.12.33.24.5.36ZM18.82,18.47c-.02-.26-.05-.51-.07-.77-.14.28-.48.55.07.77ZM5.53,39.94c.28.26.51.27.82-.1-.36.04-.59.07-.82.1ZM18.93,47.85c-.08-.01-.16-.03-.23-.04-.04.2-.09.4-.13.6.08.01.15.03.23.04.05-.2.09-.4.14-.6ZM5.19,40.73c-.02-.07-.04-.14-.06-.21-.24.05-.47.1-.71.15.02.07.04.14.06.21.24-.05.47-.1.71-.16ZM34.34,41.04s.08-.1.12-.14c-.23-.13-.47-.27-.7-.4-.03.05-.06.1-.09.15.23.13.45.26.68.4ZM19.24,19.7c.09.02.19.04.28.06.04-.21.08-.42.11-.63-.06-.01-.12-.03-.19-.04-.07.2-.14.41-.21.61ZM32.94,40.1q-.42-.45-.77-.18c.25.06.45.1.77.18ZM3.37,41.52c.03.05.07.11.1.16.18-.12.36-.25.54-.37-.02-.02-.04-.04-.11-.09-.17.1-.35.2-.53.3Z"/>
    </g>
</svg>