<?xml version="1.0" encoding="UTF-8"?>
<svg id="Layer_2" xmlns="http://www.w3.org/2000/svg" viewBox="0 0 938.31 163.08">
  <defs>
    <style>
      .cls-1 {
        fill: none;
      }

      .cls-2 {
        fill: #4685b0;
      }

      .cls-3 {
        fill: #4373ba;
      }

      .cls-4 {
        fill: #1d699e;
      }

      .cls-5 {
        fill: #246ba0;
      }

      .cls-6 {
        fill: #1c679c;
      }
    </style>
  </defs>
  <g id="Layer_1-2" data-name="Layer_1">
    <g>
      <rect class="cls-1" x="194.38" y="16.87" width="743.93" height="146.21"/>
      <path class="cls-5" d="M230.16,77.98c-3.58,3.02-8.06,4.65-12.54,4.65-12.66,0-20.44-7.62-20.44-19.88s7.78-19.88,20.44-19.88c5.1,0,9.52,1.01,12.38,2.58-.9,1.68-2.18,4.7-2.74,6.5l-.9-.22c.28-3.98-3.19-7-8.79-7-8.79,0-14.45,7-14.45,18.03s5.77,17.86,14.67,17.86c4.26,0,8.06-1.4,11.26-4.03l1.12,1.4Z"/>
      <path class="cls-5" d="M234.03,68.74c0-8.29,5.66-13.89,13.83-13.89s13.78,5.6,13.78,13.89-5.54,13.89-13.78,13.89-13.83-5.54-13.83-13.89ZM255.92,68.74c0-7.67-3.02-12.32-8.06-12.32s-8.12,4.65-8.12,12.32,3.02,12.32,8.12,12.32,8.06-4.59,8.06-12.32Z"/>
      <path class="cls-5" d="M267.07,81.28c2.07-.22,2.69-.73,2.74-2.58.17-4.93.11-10.86.11-16.74,0-6.89,0-10.58-.06-13.33-.06-1.9-.9-2.35-3.08-2.02l.11-.9c2.52-.34,6.16-1.68,7.67-2.86l.73.34c-.22,3.98-.34,11.54-.34,18.82,0,5.88-.06,11.76.11,16.69.06,1.85.67,2.35,2.74,2.58l-.11.9c-2.02-.17-3.64-.22-5.26-.22s-3.25.06-5.26.22l-.11-.9Z"/>
      <path class="cls-5" d="M282.69,81.28c2.07-.22,2.69-.73,2.74-2.58.17-4.93.11-10.86.11-16.74,0-6.89,0-10.58-.06-13.33-.06-1.9-.9-2.35-3.08-2.02l.11-.9c2.52-.34,6.16-1.68,7.67-2.86l.73.34c-.22,3.98-.34,11.54-.34,18.82,0,5.88-.06,11.76.11,16.69.06,1.85.67,2.35,2.74,2.58l-.11.9c-2.02-.17-3.64-.22-5.26-.22s-3.25.06-5.26.22l-.11-.9Z"/>
      <path class="cls-5" d="M322.84,77.87c-2.13,2.46-5.43,4.76-10.75,4.76-8.4,0-13.66-5.66-13.66-13.89s5.26-13.89,13.22-13.89,11.93,5.38,11.76,13.83c-3.98-.11-8.29-.22-12.49-.22-2.13,0-4.31.06-6.78.11,0,7.56,3.42,12.04,8.96,12.04,3.7,0,6.16-1.12,8.62-3.86l1.12,1.12ZM318.31,66.83c-.11-4.76-1.46-10.42-6.66-10.42-4.31,0-7.06,3.98-7.45,10.53,4.7,0,9.41,0,14.11-.11Z"/>
      <path class="cls-5" d="M352.3,77.87c-1.96,2.24-5.26,4.76-10.25,4.76-8.29,0-13.16-5.71-13.16-13.89s5.15-13.89,13.44-13.89c3.81,0,7.5,1.18,9.74,2.63-.78,1.4-1.57,3.81-2.13,5.88l-.84-.17c-.5-4.2-3.08-6.78-6.72-6.78-5.32,0-7.78,5.04-7.78,12.32s3.19,11.87,8.57,11.87c3.02,0,5.54-1.12,7.95-3.86l1.18,1.12Z"/>
      <path class="cls-5" d="M356.67,55.63c3.75-.34,5.38-1.12,7.9-7.34h.9c-.22,2.69-.34,4.87-.39,7.11,2.13,0,5.1,0,7.67-.11l-.22,1.79c-1.62-.11-4.31-.17-7.39-.17-.17,5.26-.11,12.26-.11,19.04,0,3.47,1.12,4.93,3.75,4.93,1.23,0,2.3-.39,3.19-1.18l.78,1.06c-1.62,1.23-3.14,1.85-5.38,1.85-4.87,0-7.56-2.52-7.56-7.67,0-4.76.22-12.38.06-18.09-1.12,0-2.24.06-3.36.06l.17-1.29Z"/>
      <path class="cls-5" d="M377.67,81.28c2.07-.22,2.69-.73,2.74-2.52.11-3.19.11-6.61.11-10.08,0-2.91,0-5.38-.06-8.12-.06-1.9-.9-2.35-3.08-2.02l.11-.9c2.52-.34,6.16-1.62,7.73-2.8l.73.34c-.28,4.59-.39,8.9-.39,13.5,0,3.47.06,6.83.11,10.08.06,1.79.67,2.3,2.74,2.52l-.11.9c-2.02-.17-3.64-.22-5.26-.22s-3.19.06-5.21.22l-.17-.9ZM382.82,42.87c1.9,0,3.3,1.34,3.3,3.36s-1.34,3.36-3.3,3.36-3.3-1.34-3.3-3.36,1.34-3.36,3.3-3.36Z"/>
      <path class="cls-5" d="M393.4,68.74c0-8.29,5.66-13.89,13.83-13.89s13.78,5.6,13.78,13.89-5.54,13.89-13.78,13.89-13.83-5.54-13.83-13.89ZM415.3,68.74c0-7.67-3.02-12.32-8.06-12.32s-8.12,4.65-8.12,12.32,3.02,12.32,8.12,12.32,8.06-4.59,8.06-12.32Z"/>
      <path class="cls-5" d="M445.03,81.28c2.07-.22,2.69-.73,2.74-2.58.11-4.03.17-7.56.17-12.49,0-5.49-2.07-8.46-6.05-8.46-3.7,0-6.89,3.14-7.22,6.78-.06,1.4-.06,2.8-.06,4.14,0,3.47,0,6.89.11,10.08.06,1.79.67,2.3,2.74,2.52l-.11.9c-2.02-.17-3.64-.22-5.26-.22s-3.25.06-5.26.22l-.11-.9c2.07-.22,2.69-.73,2.74-2.52.11-3.19.11-6.61.11-10.08,0-2.91,0-5.38-.06-8.12-.06-1.9-.9-2.35-3.08-2.02l.11-.9c2.52-.34,6.05-1.62,7.56-2.8l.67.34c-.06,1.62-.17,3.7-.22,5.71,1.85-3.75,5.71-6.05,9.74-6.05,5.49,0,8.68,3.53,8.68,10.42,0,4.42-.11,8.9.06,13.66.06,1.68.73,2.13,2.74,2.35l-.11.9c-2.02-.17-3.64-.22-5.26-.22s-3.25.06-5.26.22l-.11-.9Z"/>
      <path class="cls-5" d="M474.99,68.74c0-8.29,5.66-13.89,13.83-13.89s13.78,5.6,13.78,13.89-5.54,13.89-13.78,13.89-13.83-5.54-13.83-13.89ZM496.89,68.74c0-7.67-3.02-12.32-8.06-12.32s-8.12,4.65-8.12,12.32,3.02,12.32,8.12,12.32,8.06-4.59,8.06-12.32Z"/>
      <path class="cls-5" d="M508.31,81.28c2.07-.22,2.69-.73,2.74-2.52.11-3.25.11-6.83.11-10.36,0-2.86,0-8.68-.06-11.54-1.51,0-2.97,0-4.09.06l.17-1.29h.5c2.63-.11,3.64-.9,3.86-3.3.62-5.66,4.03-9.46,9.52-9.46,2.91,0,5.32.73,7.39,2.07-.62,1.46-1.29,3.81-1.68,5.32l-.84-.22c-.45-3.25-2.52-5.54-4.93-5.54-3.14,0-5.04,2.8-5.04,7.9,0,1.12.06,2.13.11,3.02,2.46,0,4.7,0,7.17-.11l-.22,1.79c-1.74-.11-4.2-.17-6.83-.17v11.54c0,3.53,0,7.06.11,10.3.06,1.79.73,2.3,3.53,2.52l-.11.9c-2.69-.17-4.31-.22-6.05-.22-1.62,0-3.25.06-5.26.22l-.11-.9Z"/>
      <path class="cls-5" d="M197.55,143.46c2.66-.36,3.38-1.08,3.53-3.46.22-7.49.29-13.68.29-20.38s-.07-12.89-.29-20.38c-.14-2.38-.86-3.1-3.53-3.46l.14-1.15c5.04.29,10.58.29,16.56.29,6.77,0,11.23-.14,15.7-.29-.58,2.45-1.08,5.4-1.37,7.99l-1.15-.14c-.07-2.38-1.66-4.1-4.03-4.25-3.74-.36-6.77-.43-14.98-.43-.22,7.13-.29,13.03-.29,19.08,6.77,0,13.68-.07,19.15-.36-.5,2.45-.79,4.61-1.01,6.77l-1.15-.22c-.14-1.87-1.22-2.88-3.53-3.02-2.59-.14-7.42-.22-13.46-.29,0,6.99.07,13.39.29,21.53,6.55,0,12.1-.14,15.84-.43,3.02-.29,5.04-2.02,5.9-5.11l1.15.14c-.5,2.95-.94,6.26-1.22,8.71-5.69-.22-10.73-.29-15.91-.29-7.49,0-12.02,0-16.49.29l-.14-1.15Z"/>
      <path class="cls-5" d="M241.09,144.37c-1.41,0-2.82.1-4.28.2l-.1-.81c1.16-.1,2.42-.86,3.38-2.92,3.93-8.37,7.91-17.89,11.39-26.36.2-.55.3-1.01.3-1.51,0-1.26-.96-2.32-2.27-2.52l.1-.81c1.71.1,4.84.1,6.75,0,3.33,8.52,9.32,22.23,13.31,30.84.96,1.92,1.92,2.97,3.43,3.28l-.15.81c-1.46-.1-2.92-.2-4.74-.2-2.27,0-3.88.05-5.8.2l-.15-.81c2.02-.25,2.67-1.41,1.76-3.78-.96-2.47-2.07-5.09-3.17-7.76-2.47-.05-4.74-.1-7.16-.1s-4.59,0-7.06.1c-1.01,2.67-1.97,5.29-2.72,7.61-.86,2.52.05,3.83,2.12,3.93l-.1.81c-1.92-.15-3.12-.2-4.84-.2ZM259.93,130.15c-2.27-5.34-4.64-10.63-6.5-14.62-1.81,4.18-3.98,9.48-6,14.57,2.17.05,4.18.1,6.25.1s4.13-.05,6.25-.05Z"/>
      <path class="cls-5" d="M281.56,144.37h-.5c-1.41,0-2.82.05-4.59.2l-.1-.81c1.92-.2,2.37-.71,2.47-2.37.15-5.29.2-9.63.2-14.31s-.05-9.02-.2-14.31c-.1-1.66-.55-2.17-2.47-2.37l.1-.81c1.76.15,3.18.2,4.59.2h.15c2.92,0,5.24-.25,8.47-.25,7.21,0,11.14,2.87,11.14,8.47,0,5.14-3.58,8.42-10.08,9.37,1.92,1.21,4.38,3.58,6.4,6.5,5.24,7.31,7.21,9.32,8.92,9.88l-.1.81c-.91-.1-2.32-.15-3.63-.15s-2.72.05-3.78.15c-5.65-9.53-11.59-16.58-14.77-17.04,0,4.69.05,9.07.2,14.46.2,1.21.76,1.61,2.42,1.76l-.1.81c-1.81-.15-3.28-.2-4.74-.2ZM284.03,111.4c-.2,5.49-.25,9.93-.25,14.62,1.01.05,1.81.05,3.07.05,5.7,0,8.82-3.02,8.82-7.71s-2.92-7.06-8.47-7.06c-.96,0-2.07,0-3.18.1Z"/>
      <path class="cls-5" d="M308.97,143.76c1.86-.25,2.37-.76,2.47-2.42.15-5.24.2-9.58.2-14.26s-.05-9.07-.2-14.36c-.1-1.66-.6-2.12-2.47-2.32l.1-.81c1.76.15,3.23.2,4.64.2h.5c1.56,0,2.97-.05,5.39-.2l.1.81c-2.57.2-3.07.71-3.12,2.37-.15,5.24-.2,9.63-.2,14.31,0,4.94.05,9.42.2,15.12,4.59,0,7.61-.1,9.83-.35,2.32-.25,3.73-1.66,4.38-3.88l.81.1c-.4,2.17-.76,4.43-.96,6.5-4.08-.15-6.8-.2-9.88-.2-5.34,0-8.52,0-11.69.2l-.1-.81Z"/>
      <path class="cls-5" d="M338.46,143.76c2.52-.2,3.07-.66,3.12-2.27.1-4.43.2-8.37.2-12.2-2.42-4.59-6.05-10.48-9.27-15.57-1.41-2.27-2.52-3.07-3.83-3.33l.15-.81c1.41.15,3.02.2,5.09.2s3.78-.05,5.75-.2l.1.81c-1.92.3-2.42,1.46-1.21,3.93,1.81,3.63,4.49,8.11,7.06,12.3,2.12-3.63,5.24-9.17,6.85-13.1.71-1.76.2-2.87-1.56-3.12l.1-.81c1.76.15,3.07.2,5.04.2,1.51,0,2.77-.05,3.93-.2l.15.81c-1.46.45-2.77,1.36-4.03,3.18-3.07,4.38-6.96,11.14-9.53,15.67.05,3.83.05,7.56.15,12.2.05,1.66.6,2.12,3.18,2.32l-.1.81c-2.42-.15-3.48-.2-5.54-.2-1.86,0-3.78.1-5.69.2l-.1-.81Z"/>
      <path class="cls-5" d="M386.53,144.32c-2.02,0-4.03.14-6.12.29l-.14-1.15c1.66-.14,3.46-1.22,4.82-4.18,5.62-11.95,11.31-25.56,16.27-37.66.29-.79.43-1.44.43-2.16,0-1.8-1.37-3.31-3.24-3.6l.14-1.15c2.45.14,6.91.14,9.65,0,4.75,12.17,13.32,31.75,19.01,44.07,1.37,2.74,2.74,4.25,4.9,4.68l-.22,1.15c-2.09-.14-4.18-.29-6.77-.29-3.24,0-5.54.07-8.28.29l-.22-1.15c2.88-.36,3.82-2.02,2.52-5.4-1.37-3.53-2.95-7.27-4.54-11.09-3.53-.07-6.77-.14-10.22-.14s-6.55,0-10.08.14c-1.44,3.82-2.81,7.56-3.89,10.87-1.22,3.6.07,5.47,3.02,5.62l-.14,1.15c-2.74-.22-4.46-.29-6.91-.29ZM413.46,124.02c-3.24-7.63-6.62-15.19-9.29-20.88-2.59,5.98-5.69,13.54-8.57,20.81,3.1.07,5.98.14,8.93.14s5.9-.07,8.93-.07Z"/>
      <path class="cls-5" d="M434.32,143.76c1.86-.4,2.87-1.51,3.33-4.13.81-4.94,3.07-22.78,3.07-25.4,0-1.96-1.26-3.63-2.92-3.83l.1-.81c1.26.1,2.32.15,3.73.15s2.57-.1,3.68-.15c3.18,8.37,7.96,18.25,12.5,27.32,4.84-9.98,9.53-20.61,12.15-27.32,1.26.1,2.47.15,3.68.15s2.27-.05,3.43-.15l.15.81c-1.87.15-2.92,1.56-2.77,4.44.3,5.9,1.66,16.28,2.97,25.75.3,2.42,1.36,3.02,2.77,3.18l-.1.81c-1.56-.15-3.28-.2-5.14-.2s-3.83.05-5.19.2l-.1-.81c1.97-.3,2.77-1.26,2.62-3.23-.66-8.01-1.76-17.19-2.67-23.38-3.33,6.9-8.22,17.64-12.65,27.72h-1.11c-4.18-9.63-9.68-21.02-12.95-27.77-1.31,10.94-2.17,21.82-2.17,23.44,0,1.92.66,2.82,2.57,3.28l-.1.81c-1.46-.1-2.87-.25-4.49-.25-1.46,0-3.12.15-4.28.2l-.1-.81Z"/>
      <path class="cls-5" d="M483.81,143.76c1.86-.25,2.37-.76,2.47-2.42.15-5.24.2-9.58.2-14.26s-.05-9.02-.2-14.26c-.1-1.66-.6-2.17-2.47-2.42l.1-.81c3.53.2,7.41.2,11.59.2,4.74,0,7.86-.1,10.99-.2-.4,1.71-.76,3.78-.96,5.59l-.81-.1c-.05-1.66-1.16-2.87-2.82-2.97-2.62-.25-4.74-.3-10.48-.3-.15,4.99-.2,9.12-.2,13.36,4.74,0,9.58-.05,13.41-.25-.35,1.71-.55,3.22-.71,4.74l-.81-.15c-.1-1.31-.86-2.02-2.47-2.12-1.81-.1-5.19-.15-9.42-.2,0,4.89.05,9.38.2,15.07,4.59,0,8.47-.1,11.09-.3,2.12-.2,3.53-1.41,4.13-3.58l.81.1c-.35,2.07-.66,4.38-.86,6.1-3.98-.15-7.51-.2-11.14-.2-5.24,0-8.42,0-11.54.2l-.1-.81Z"/>
      <path class="cls-5" d="M518.49,144.37h-.5c-1.41,0-2.82.05-4.59.2l-.1-.81c1.92-.2,2.37-.71,2.47-2.37.15-5.29.2-9.63.2-14.31s-.05-9.02-.2-14.31c-.1-1.66-.55-2.17-2.47-2.37l.1-.81c1.76.15,3.18.2,4.59.2h.15c2.92,0,5.24-.25,8.47-.25,7.21,0,11.14,2.87,11.14,8.47,0,5.14-3.58,8.42-10.08,9.37,1.92,1.21,4.38,3.58,6.4,6.5,5.24,7.31,7.21,9.32,8.92,9.88l-.1.81c-.91-.1-2.32-.15-3.63-.15s-2.72.05-3.78.15c-5.65-9.53-11.59-16.58-14.77-17.04,0,4.69.05,9.07.2,14.46.2,1.21.76,1.61,2.42,1.76l-.1.81c-1.81-.15-3.28-.2-4.74-.2ZM520.96,111.4c-.2,5.49-.25,9.93-.25,14.62,1.01.05,1.81.05,3.07.05,5.7,0,8.82-3.02,8.82-7.71s-2.92-7.06-8.47-7.06c-.96,0-2.07,0-3.18.1Z"/>
      <path class="cls-5" d="M551.1,144.37h-.5c-1.41,0-2.82.05-4.59.2l-.1-.81c1.92-.2,2.37-.71,2.47-2.37.15-5.29.2-9.63.2-14.31s-.05-9.02-.2-14.31c-.1-1.66-.55-2.17-2.47-2.37l.1-.81c1.76.15,3.18.2,4.59.2h.66c1.41,0,2.82-.05,4.59-.2l.1.81c-1.66.15-2.22.55-2.42,1.76-.15,5.54-.2,10.03-.2,14.92s.05,9.37.2,14.92c.2,1.21.76,1.61,2.42,1.76l-.1.81c-1.81-.15-3.28-.2-4.74-.2Z"/>
      <path class="cls-5" d="M591.21,140.79c-3.23,2.72-7.26,4.18-11.29,4.18-11.39,0-18.4-6.85-18.4-17.89s7.01-17.89,18.4-17.89c4.59,0,8.57.91,11.14,2.32-.81,1.51-1.97,4.23-2.47,5.85l-.81-.2c.25-3.58-2.87-6.3-7.91-6.3-7.91,0-13,6.3-13,16.23s5.19,16.08,13.2,16.08c3.83,0,7.26-1.26,10.13-3.63l1.01,1.26Z"/>
      <path class="cls-5" d="M598.12,144.37c-1.41,0-2.82.1-4.28.2l-.1-.81c1.16-.1,2.42-.86,3.38-2.92,3.93-8.37,7.91-17.89,11.39-26.36.2-.55.3-1.01.3-1.51,0-1.26-.96-2.32-2.27-2.52l.1-.81c1.71.1,4.84.1,6.75,0,3.33,8.52,9.32,22.23,13.31,30.84.96,1.92,1.91,2.97,3.43,3.28l-.15.81c-1.46-.1-2.92-.2-4.74-.2-2.27,0-3.88.05-5.8.2l-.15-.81c2.02-.25,2.67-1.41,1.76-3.78-.96-2.47-2.07-5.09-3.17-7.76-2.47-.05-4.74-.1-7.16-.1s-4.59,0-7.06.1c-1.01,2.67-1.97,5.29-2.72,7.61-.86,2.52.05,3.83,2.12,3.93l-.1.81c-1.92-.15-3.12-.2-4.84-.2ZM616.97,130.15c-2.27-5.34-4.64-10.63-6.5-14.62-1.81,4.18-3.98,9.48-6,14.57,2.17.05,4.18.1,6.25.1s4.13-.05,6.25-.05Z"/>
      <path class="cls-5" d="M665.3,136.45c0,3.23-.1,7.31-.05,8.42h-1.56c-8.67-10.63-17.39-20.82-25-29.38,0,8.01-.1,16.83.15,24.7.15,1.76,1.11,3.38,2.92,3.58l-.1.81c-1.31-.15-2.97-.2-4.23-.2h-.05c-1.26,0-2.92.05-4.23.2l-.1-.81c1.92-.2,2.87-1.97,2.97-3.88.35-7.86.35-17.04.35-25.3,0-2.12-1.36-3.68-3.33-4.18l.15-.81c.96.05,2.27.1,3.53.1s2.47-.05,3.53-.1c7.51,9.32,16.68,20.06,22.63,26.46.15-8.26.1-16.38-.15-22.28-.25-1.71-1.16-3.23-2.92-3.38l.1-.81c1.26.15,2.87.2,4.13.2h.15c1.26,0,2.92-.05,4.23-.2l.1.81c-1.92.2-2.87,1.97-2.97,3.88-.2,5.54-.25,13-.25,22.18Z"/>
      <path class="cls-5" d="M707.24,95.79c-2.38.22-3.17.79-3.46,2.59-.22,7.92-.29,14.26-.29,21.1,0,7.27.14,12.1.14,19.3,0,11.02-9.07,14.69-17.28,15.05l-.07-1.15c7.2-.86,10.01-4.68,10.22-14.04.22-7.92.22-11.09.22-19.01,0-6.91-.14-13.25-.36-21.1-.22-1.87-1.01-2.52-3.46-2.74l.14-1.15c2.52.22,4.54.29,6.55.29h.94c2.02,0,4.03-.07,6.55-.29l.14,1.15Z"/>
      <path class="cls-5" d="M723.11,110.4c-1.91.2-2.37.71-2.47,2.37-.15,5.59-.2,10.94-.2,16.98,0,9.07,3.17,13.21,10.23,13.21s10.84-4.49,10.84-12.85c0-6.15-.05-12-.15-16.38-.25-1.66-1.21-3.17-2.92-3.33l.1-.81c1.26.15,2.87.2,4.13.2h.25c1.26,0,2.87-.05,4.13-.2l.1.81c-1.86.2-2.82,1.92-2.92,3.78-.15,4.33-.2,9.93-.2,15.83,0,9.47-4.84,14.97-13.76,14.97-9.98,0-14.62-4.59-14.62-14.36,0-2.87.05-5.8.05-8.62,0-3.53-.1-5.8-.2-9.68-.15-1.31-.71-1.76-2.42-1.92l.1-.81c1.76.15,3.17.2,4.59.2h.66c1.41,0,2.82-.05,4.59-.2l.1.81Z"/>
      <path class="cls-5" d="M756.22,109.79h.15c3.63,0,7.26-.25,10.33-.25,11.64,0,18.65,6.6,18.65,17.54s-7.01,17.54-18.65,17.54c-2.72,0-5.85-.2-9.02-.25h-1.46c-1.41,0-2.82.05-4.59.2l-.1-.81c1.92-.2,2.37-.71,2.47-2.37.15-5.29.2-9.63.2-14.31s-.05-9.02-.2-14.31c-.1-1.66-.55-2.17-2.47-2.37l.1-.81c1.76.15,3.17.2,4.59.2ZM759.2,142.45c2.17.3,4.18.4,6.75.4,8.62,0,14.06-6.15,14.06-15.77s-5.44-15.78-14.06-15.78c-2.57,0-4.59.1-6.75.4-.2,5.75-.25,10.38-.25,15.37s.05,9.63.25,15.37Z"/>
      <path class="cls-5" d="M791.86,144.37c-1.41,0-2.82.1-4.28.2l-.1-.81c1.16-.1,2.42-.86,3.38-2.92,3.93-8.37,7.91-17.89,11.39-26.36.2-.55.3-1.01.3-1.51,0-1.26-.96-2.32-2.27-2.52l.1-.81c1.71.1,4.84.1,6.75,0,3.33,8.52,9.32,22.23,13.3,30.84.96,1.92,1.92,2.97,3.43,3.28l-.15.81c-1.46-.1-2.92-.2-4.74-.2-2.27,0-3.88.05-5.8.2l-.15-.81c2.02-.25,2.67-1.41,1.76-3.78-.96-2.47-2.07-5.09-3.17-7.76-2.47-.05-4.74-.1-7.16-.1s-4.59,0-7.06.1c-1.01,2.67-1.97,5.29-2.72,7.61-.86,2.52.05,3.83,2.12,3.93l-.1.81c-1.91-.15-3.12-.2-4.84-.2ZM810.71,130.15c-2.27-5.34-4.64-10.63-6.5-14.62-1.81,4.18-3.98,9.48-6,14.57,2.17.05,4.18.1,6.25.1s4.13-.05,6.25-.05Z"/>
      <path class="cls-5" d="M832.33,144.37h-.5c-1.41,0-2.82.05-4.59.2l-.1-.81c1.92-.2,2.37-.71,2.47-2.37.15-5.29.2-9.63.2-14.31s-.05-9.02-.2-14.31c-.1-1.66-.55-2.17-2.47-2.37l.1-.81c1.76.15,3.18.2,4.59.2h.66c1.41,0,2.82-.05,4.59-.2l.1.81c-1.66.15-2.22.55-2.42,1.76-.15,5.54-.2,10.03-.2,14.92s.05,9.37.2,14.92c.2,1.21.76,1.61,2.42,1.76l-.1.81c-1.81-.15-3.28-.2-4.74-.2Z"/>
      <path class="cls-5" d="M872.44,140.79c-3.23,2.72-7.26,4.18-11.29,4.18-11.39,0-18.4-6.85-18.4-17.89s7.01-17.89,18.4-17.89c4.59,0,8.57.91,11.14,2.32-.81,1.51-1.97,4.23-2.47,5.85l-.81-.2c.25-3.58-2.87-6.3-7.91-6.3-7.91,0-13,6.3-13,16.23s5.19,16.08,13.21,16.08c3.83,0,7.26-1.26,10.13-3.63l1.01,1.26Z"/>
      <path class="cls-5" d="M879.35,144.37c-1.41,0-2.82.1-4.28.2l-.1-.81c1.16-.1,2.42-.86,3.38-2.92,3.93-8.37,7.91-17.89,11.39-26.36.2-.55.3-1.01.3-1.51,0-1.26-.96-2.32-2.27-2.52l.1-.81c1.71.1,4.84.1,6.75,0,3.33,8.52,9.32,22.23,13.31,30.84.96,1.92,1.92,2.97,3.43,3.28l-.15.81c-1.46-.1-2.92-.2-4.74-.2-2.27,0-3.88.05-5.8.2l-.15-.81c2.02-.25,2.67-1.41,1.76-3.78-.96-2.47-2.07-5.09-3.18-7.76-2.47-.05-4.74-.1-7.16-.1s-4.59,0-7.06.1c-1.01,2.67-1.96,5.29-2.72,7.61-.86,2.52.05,3.83,2.12,3.93l-.1.81c-1.92-.15-3.12-.2-4.84-.2ZM898.2,130.15c-2.27-5.34-4.64-10.63-6.5-14.62-1.81,4.18-3.98,9.48-6,14.57,2.17.05,4.18.1,6.25.1s4.13-.05,6.25-.05Z"/>
    </g>
    <g>
      <rect class="cls-1" x="198.31" y="5.08" width="635.49" height="46.89"/>
      <path class="cls-3" d="M216.47,29.08c1.4-.17,2.14-.98,1.85-2.59-.31-1.72-.7-3.57-1.08-5.43-1.82-.04-3.43-.07-5.18-.07-1.61,0-3.19,0-4.9.07-1.08,1.82-2.14,3.64-3.05,5.25-.94,1.75-.52,2.7.91,2.77l-.21.56c-1.33-.1-2.21-.14-3.43-.14-.91,0-1.82.07-2.91.14l.04-.56c.81-.07,1.79-.52,2.66-1.82,4.03-5.85,8.19-12.6,11.94-18.52.35-.52.52-1.05.52-1.51,0-.73-.6-1.15-1.26-1.29l.18-.56c1.15.07,3.33.07,4.66,0,1.12,5.99,3.26,15.58,4.73,21.56.31,1.26.98,1.93,1.85,2.14l-.21.56c-1.12-.07-2.03-.14-3.19-.14-1.47,0-2.73.03-3.96.14l.04-.56ZM216.93,19.6c-.84-3.78-1.75-7.53-2.45-10.33-1.93,2.98-4.27,6.69-6.44,10.33,1.47.04,2.87.07,4.31.07,1.54,0,3.01-.03,4.59-.07Z"/>
      <path class="cls-3" d="M225.43,29.65l.04-.56c1.26-.14,1.75-.46,2-1.44.91-3.82,1.75-7.67,2.52-11.52.18-1.19-.28-1.47-1.68-1.26l.21-.56c1.61-.21,3.99-1.02,5.11-1.75l.38.21c-.28.95-.63,2.17-.91,3.36,1.44-2.1,3.81-3.57,5.71-3.57.56,0,1.19.14,1.57.42-.49.77-1.5,2.77-1.92,3.68l-.53-.17c.07-.98-.42-1.54-1.33-1.54-1.47,0-3.33,1.65-3.99,3.78-.67,2.91-1.26,5.81-1.79,8.75-.21,1.15.07,1.47,1.85,1.61l-.21.56c-1.68-.1-2.66-.14-3.78-.14-1.02,0-2,.03-3.26.14Z"/>
      <path class="cls-3" d="M241.88,29.51c-.98,0-2,.03-3.26.14l.04-.56c1.26-.14,1.75-.46,2-1.44.91-3.82,1.75-7.67,2.52-11.52.21-1.19-.28-1.47-1.68-1.26l.21-.56c1.61-.21,3.99-1.02,5.11-1.75l.42.21c-.39,1.16-.77,2.63-1.05,3.85h.14c-.81,3.26-1.65,7.11-2.31,10.82-.25,1.19.04,1.51,1.33,1.65l-.17.56c-1.26-.1-2.28-.14-3.29-.14ZM256.27,28.31c.91,0,1.79-.73,2.73-2.52l.63.31c-1.05,2.31-2.91,3.82-4.76,3.82-2.52,0-2.98-2-2.56-3.89.42-1.86.98-4.17,1.44-6.41.77-3.36-.04-5.29-2.52-5.29s-4.94,2.17-5.5,4.62l-.38.21.73-2.77c1.61-2.35,4.48-3.85,7.04-3.85,3.4,0,4.8,2.35,3.92,6.48-.46,2.17-1.02,4.83-1.58,7.46-.28,1.33.14,1.82.8,1.82Z"/>
      <path class="cls-3" d="M261.2,22.82c0-5.71,4.2-10.26,10.19-10.26,4.66,0,7.53,2.84,7.53,7.11,0,5.78-4.17,10.26-10.15,10.26-4.76,0-7.56-2.77-7.56-7.11ZM275.45,18.93c0-3.29-1.5-5.39-4.24-5.39-4.41,0-6.58,5.67-6.58,10.01,0,3.33,1.47,5.39,4.27,5.39,4.41,0,6.55-5.64,6.55-10.01Z"/>
      <path class="cls-3" d="M285.53,28.35c.95,0,1.82-.77,2.77-2.56l.6.35c-1.02,2.27-2.91,3.78-4.76,3.78-2.52,0-2.94-2.03-2.52-3.89.67-2.77,1.29-5.85,1.96-8.93.91-4.31,1.44-6.76,1.75-8.47.21-1.19-.25-1.47-1.65-1.26l.21-.56c1.61-.21,4.06-1.05,5.15-1.75l.42.21c-.67,2.49-1.79,7.35-2.73,11.83-.7,3.29-1.44,6.62-2,9.42-.25,1.33.18,1.82.81,1.82Z"/>
      <path class="cls-3" d="M302.71,26.63c-1.71,2.38-3.85,3.29-6.09,3.29-3.61,0-5.99-2.59-5.99-7,0-5.01,3.75-10.36,9.07-10.36,2.7,0,4.55,1.37,5.18,3.68.88-3.92,1.26-6.02,1.58-7.6.21-1.19-.28-1.47-1.68-1.26l.21-.56c1.61-.21,4.1-1.05,5.18-1.75l.42.21c-1.82,7.07-3.29,14.07-4.73,21.25-.25,1.3.18,1.82.81,1.82.94,0,1.82-.77,2.77-2.56l.6.35c-1.02,2.27-2.91,3.78-4.76,3.78-2.24,0-2.77-1.61-2.56-3.29ZM303.8,21.77c1.08-5.11-.25-7.81-3.29-7.81-4.24,0-6.41,5.53-6.41,9.28s1.3,5.29,3.75,5.29c2.83,0,5.15-2.91,5.95-6.76Z"/>
      <path class="cls-3" d="M319.93,22.92c0-5.01,3.89-10.36,9.17-10.36,3.12,0,5.18,1.79,5.57,4.66l-1.79,8.19c-1.68,3.01-3.92,4.52-6.86,4.52-3.68,0-6.09-2.63-6.09-7ZM333.23,21.77c1.02-5.11-.28-7.81-3.33-7.81-4.24,0-6.48,5.29-6.48,9.28,0,3.47,1.26,5.22,3.61,5.22,2.94,0,5.36-2.66,6.2-6.69ZM332.15,26.25c.1-.42.17-.88.25-1.3h.25l1.75-8.12c1.12-1.65,2.49-3.05,4.17-4.27l.42.28c-.81,1.33-1.33,2.73-2.21,6.48-.39,1.61-.88,4.03-1.54,7.21-.28,1.3.14,1.82.81,1.82.91,0,1.79-.77,2.73-2.56l.63.35c-1.05,2.27-2.91,3.78-4.76,3.78-2.42,0-2.84-1.86-2.49-3.68Z"/>
      <path class="cls-3" d="M343.07,29.51c-.98,0-2,.03-3.26.14l.04-.56c1.26-.14,1.75-.46,2-1.44.91-3.82,1.75-7.67,2.52-11.52.21-1.19-.28-1.47-1.68-1.26l.21-.56c1.61-.21,3.99-1.02,5.11-1.75l.42.21c-.38,1.16-.77,2.63-1.05,3.85h.14c-.81,3.26-1.65,7.11-2.31,10.82-.25,1.19.03,1.51,1.33,1.65l-.18.56c-1.26-.1-2.27-.14-3.29-.14ZM357.45,28.31c.91,0,1.79-.73,2.73-2.52l.63.31c-1.05,2.31-2.91,3.82-4.76,3.82-2.52,0-2.98-2-2.56-3.89.42-1.86.98-4.17,1.44-6.41.77-3.36-.04-5.29-2.52-5.29s-4.94,2.17-5.5,4.62l-.39.21.73-2.77c1.61-2.35,4.48-3.85,7.04-3.85,3.4,0,4.8,2.35,3.92,6.48-.46,2.17-1.02,4.83-1.58,7.46-.28,1.33.14,1.82.8,1.82Z"/>
      <path class="cls-3" d="M374.39,26.63c-1.71,2.38-3.85,3.29-6.09,3.29-3.61,0-5.99-2.59-5.99-7,0-5.01,3.75-10.36,9.07-10.36,2.7,0,4.55,1.37,5.18,3.68.88-3.92,1.26-6.02,1.58-7.6.21-1.19-.28-1.47-1.68-1.26l.21-.56c1.61-.21,4.1-1.05,5.18-1.75l.42.21c-1.82,7.07-3.29,14.07-4.73,21.25-.25,1.3.18,1.82.81,1.82.95,0,1.82-.77,2.77-2.56l.6.35c-1.02,2.27-2.91,3.78-4.76,3.78-2.24,0-2.77-1.61-2.56-3.29ZM375.48,21.77c1.08-5.11-.25-7.81-3.29-7.81-4.24,0-6.41,5.53-6.41,9.28s1.3,5.29,3.75,5.29c2.83,0,5.15-2.91,5.95-6.76Z"/>
      <path class="cls-3" d="M398.86,5.49h.14c2.45,0,4.62-.17,6.58-.17,6.93,0,11.17,3.64,11.17,10.12,0,8.65-6.41,14.25-15.68,14.25-2.42,0-4.83-.17-7.32-.17-1.02,0-2.03.03-3.33.14l.03-.56c1.26-.1,1.68-.42,2-1.4,1.61-6.76,3.08-13.55,4.34-20.37.1-.98-.21-1.3-1.4-1.4l.21-.56c1.23.1,2.24.14,3.26.14ZM395.95,28.17c1.47.21,2.87.28,4.83.28,7.67,0,12.36-6.06,12.36-13.34,0-5.64-2.98-8.58-8.33-8.58-1.61,0-2.84.07-4.31.28-1.75,7.07-3.29,14.18-4.55,21.35Z"/>
      <path class="cls-3" d="M418.7,22.68c0-5.81,4.41-10.12,10.22-10.12,3.57,0,5.6,1.58,5.6,3.71,0,3.29-4.73,5.88-12.32,6.2,0,.32-.04.63-.04.95,0,3.22,1.68,5.25,4.55,5.25,2.03,0,3.57-.67,5.46-2.35l.6.73c-2.21,2.03-4.48,2.87-7,2.87-4.27,0-7.07-2.87-7.07-7.25ZM422.27,21.59c5.88-.28,8.93-2.66,8.93-5.71,0-1.4-.91-2.35-2.49-2.35-3.19,0-5.85,3.47-6.44,8.05Z"/>
      <path class="cls-3" d="M436.48,22.92c0-5.01,3.89-10.36,9.17-10.36,3.12,0,5.18,1.79,5.57,4.66l-1.79,8.19c-1.68,3.01-3.92,4.52-6.86,4.52-3.68,0-6.09-2.63-6.09-7ZM449.78,21.77c1.02-5.11-.28-7.81-3.33-7.81-4.24,0-6.48,5.29-6.48,9.28,0,3.47,1.26,5.22,3.61,5.22,2.94,0,5.36-2.66,6.2-6.69ZM448.7,26.25c.1-.42.17-.88.25-1.3h.25l1.75-8.12c1.12-1.65,2.49-3.05,4.17-4.27l.42.28c-.81,1.33-1.33,2.73-2.21,6.48-.39,1.61-.88,4.03-1.54,7.21-.28,1.3.14,1.82.81,1.82.91,0,1.79-.77,2.73-2.56l.63.35c-1.05,2.27-2.91,3.78-4.76,3.78-2.42,0-2.84-1.86-2.49-3.68Z"/>
      <path class="cls-3" d="M459.62,29.51c-.98,0-2,.03-3.26.14l.04-.56c1.26-.14,1.75-.46,2-1.44.91-3.82,1.75-7.67,2.52-11.52.21-1.19-.28-1.47-1.68-1.26l.21-.56c1.61-.21,3.99-1.02,5.11-1.75l.42.21c-.38,1.16-.77,2.63-1.05,3.85h.14c-.81,3.26-1.65,7.11-2.31,10.82-.25,1.19.03,1.51,1.33,1.65l-.18.56c-1.26-.1-2.27-.14-3.29-.14ZM474,28.31c.91,0,1.79-.73,2.73-2.52l.63.31c-1.05,2.31-2.91,3.82-4.76,3.82-2.52,0-2.98-2-2.56-3.89.42-1.86.98-4.17,1.44-6.41.77-3.36-.04-5.29-2.52-5.29s-4.94,2.17-5.5,4.62l-.39.21.73-2.77c1.61-2.35,4.48-3.85,7.04-3.85,3.4,0,4.8,2.35,3.92,6.48-.46,2.17-1.02,4.83-1.58,7.46-.28,1.33.14,1.82.8,1.82Z"/>
      <path class="cls-3" d="M480.79,29.51c-.98,0-2,.03-3.26.14l.04-.56c1.26-.14,1.75-.46,2-1.44.91-3.82,1.75-7.67,2.52-11.52.21-1.19-.28-1.47-1.68-1.26l.21-.56c1.61-.21,3.99-1.02,5.11-1.75l.42.21c-.38,1.16-.77,2.63-1.05,3.85h.14c-.81,3.26-1.65,7.11-2.31,10.82-.25,1.19.03,1.51,1.33,1.65l-.18.56c-1.26-.1-2.27-.14-3.29-.14ZM495.18,28.31c.91,0,1.79-.73,2.73-2.52l.63.31c-1.05,2.31-2.91,3.82-4.76,3.82-2.52,0-2.98-2-2.56-3.89.42-1.86.98-4.17,1.44-6.41.77-3.36-.04-5.29-2.52-5.29s-4.94,2.17-5.5,4.62l-.39.21.73-2.77c1.61-2.35,4.48-3.85,7.04-3.85,3.4,0,4.8,2.35,3.92,6.48-.46,2.17-1.02,4.83-1.58,7.46-.28,1.33.14,1.82.8,1.82Z"/>
      <path class="cls-3" d="M500.11,22.68c0-5.81,4.41-10.12,10.22-10.12,3.57,0,5.6,1.58,5.6,3.71,0,3.29-4.73,5.88-12.32,6.2,0,.32-.04.63-.04.95,0,3.22,1.68,5.25,4.55,5.25,2.03,0,3.57-.67,5.46-2.35l.6.73c-2.21,2.03-4.48,2.87-7,2.87-4.27,0-7.07-2.87-7.07-7.25ZM503.68,21.59c5.88-.28,8.93-2.66,8.93-5.71,0-1.4-.91-2.35-2.49-2.35-3.19,0-5.85,3.47-6.44,8.05Z"/>
      <path class="cls-3" d="M528.43,29.51h-.21c-1.02,0-2.03.03-3.33.14l.03-.56c1.26-.1,1.68-.42,2-1.4,1.61-6.76,3.08-13.55,4.34-20.37.1-.98-.21-1.3-1.4-1.4l.21-.56c1.23.1,2.24.14,3.26.14h.21c1.02,0,2.03-.04,3.33-.14l-.04.56c-1.26.1-1.68.42-2,1.4-.84,3.54-1.51,6.44-2.17,9.52,6.58-5.78,9.14-8.37,11.8-11.48,1.02.07,1.72.1,2.56.1s1.58-.03,2.28-.1l-.04.56c-1.16.21-2.31.88-3.19,1.54-2.03,1.5-7.28,5.81-10.5,8.58,2.07.94,3.71,2.98,5.53,6.69,2.17,4.31,3.4,6.02,4.59,6.37l-.17.56c-.56-.07-1.51-.1-2.38-.1s-1.72.04-2.52.1c-2.73-7.21-4.97-11.03-8.12-11.97-.7,3.26-1.33,6.3-2,10.01-.1.98.21,1.29,1.4,1.4l-.21.56c-1.23-.1-2.24-.14-3.26-.14Z"/>
      <path class="cls-3" d="M547.82,22.92c0-5.01,3.89-10.36,9.17-10.36,3.12,0,5.18,1.79,5.57,4.66l-1.79,8.19c-1.68,3.01-3.92,4.52-6.86,4.52-3.68,0-6.09-2.63-6.09-7ZM561.12,21.77c1.02-5.11-.28-7.81-3.33-7.81-4.24,0-6.48,5.29-6.48,9.28,0,3.47,1.26,5.22,3.61,5.22,2.94,0,5.36-2.66,6.2-6.69ZM560.03,26.25c.1-.42.17-.88.25-1.3h.25l1.75-8.12c1.12-1.65,2.49-3.05,4.17-4.27l.42.28c-.81,1.33-1.33,2.73-2.21,6.48-.39,1.61-.88,4.03-1.54,7.21-.28,1.3.14,1.82.81,1.82.91,0,1.79-.77,2.73-2.56l.63.35c-1.05,2.27-2.91,3.78-4.76,3.78-2.42,0-2.84-1.86-2.49-3.68Z"/>
      <path class="cls-3" d="M587.33,19.56c0,5.01-3.75,10.36-9.07,10.36-2.77,0-4.62-1.4-5.22-3.85-.73,3.36-1.44,6.62-1.96,9.59-.18,1.15.07,1.5,1.85,1.65l-.21.56c-1.02-.04-1.82-.1-2.52-.1h-1.19c-1.02,0-2.03.04-3.33.14l.03-.56c1.19-.1,1.65-.42,1.96-1.3.84-3.5,1.65-7.42,2.52-11.45.91-4.38,1.47-6.9,1.79-8.47.21-1.19-.24-1.47-1.65-1.26l.18-.56c1.61-.21,3.99-1.02,5.15-1.75l.35.21c-.32,1.08-.56,2.1-.84,3.15,1.75-2.42,3.89-3.36,6.16-3.36,3.61,0,5.99,2.59,5.99,7ZM574.17,20.72c-1.08,5.11.25,7.81,3.29,7.81,4.24,0,6.41-5.53,6.41-9.28s-1.3-5.29-3.75-5.29c-2.84,0-5.15,2.91-5.95,6.76Z"/>
      <path class="cls-3" d="M593.88,28.35c.95,0,1.82-.77,2.77-2.56l.6.35c-1.02,2.27-2.91,3.78-4.76,3.78-2.52,0-2.94-2.03-2.52-3.89.67-2.77,1.29-5.85,1.96-8.93.91-4.31,1.44-6.76,1.75-8.47.21-1.19-.25-1.47-1.65-1.26l.21-.56c1.61-.21,4.06-1.05,5.15-1.75l.42.21c-.67,2.49-1.79,7.35-2.73,11.83-.7,3.29-1.43,6.62-2,9.42-.25,1.33.18,1.82.8,1.82Z"/>
      <path class="cls-3" d="M598.88,22.92c0-5.01,3.89-10.36,9.17-10.36,3.12,0,5.18,1.79,5.57,4.66l-1.79,8.19c-1.68,3.01-3.92,4.52-6.86,4.52-3.68,0-6.09-2.63-6.09-7ZM612.18,21.77c1.01-5.11-.28-7.81-3.33-7.81-4.23,0-6.47,5.29-6.47,9.28,0,3.47,1.26,5.22,3.61,5.22,2.94,0,5.36-2.66,6.2-6.69ZM611.1,26.25c.11-.42.18-.88.25-1.3h.24l1.75-8.12c1.12-1.65,2.49-3.05,4.17-4.27l.42.28c-.8,1.33-1.33,2.73-2.21,6.48-.38,1.61-.88,4.03-1.54,7.21-.28,1.3.14,1.82.81,1.82.91,0,1.79-.77,2.73-2.56l.63.35c-1.05,2.27-2.91,3.78-4.76,3.78-2.42,0-2.84-1.86-2.49-3.68Z"/>
      <path class="cls-3" d="M622.02,29.51c-.98,0-2,.03-3.26.14l.04-.56c1.26-.14,1.75-.46,2-1.44.91-3.82,1.75-7.67,2.52-11.52.21-1.19-.28-1.47-1.68-1.26l.21-.56c1.61-.21,3.99-1.02,5.11-1.75l.42.21c-.39,1.16-.77,2.63-1.05,3.85h.14c-.81,3.26-1.65,7.11-2.31,10.82-.25,1.19.04,1.51,1.33,1.65l-.17.56c-1.26-.1-2.28-.14-3.29-.14ZM636.4,28.31c.91,0,1.79-.73,2.73-2.52l.63.31c-1.05,2.31-2.91,3.82-4.76,3.82-2.52,0-2.98-2-2.56-3.89.42-1.86.98-4.17,1.43-6.41.77-3.36-.04-5.29-2.52-5.29s-4.94,2.17-5.5,4.62l-.38.21.73-2.77c1.61-2.35,4.48-3.85,7.04-3.85,3.39,0,4.79,2.35,3.92,6.48-.46,2.17-1.02,4.83-1.58,7.46-.28,1.33.14,1.82.8,1.82Z"/>
    </g>
    <g>
      <path class="cls-6" d="M88.29,96.93c.39-36.02-5.59-21.67,25.31-33.64,1.06-.45,2.2-1.69,3.31-.88-.46,15.92-.16,34.26,11.9,47.01,2.16,1.42,1.89,3.15-.97,2.76-13.15,1.24-25.78,4.13-37.14,10.87-2.01,1.19-2.46.65-2.44-1.36.05-8.25.02-16.5.02-24.76Z"/>
      <path class="cls-6" d="M175.68,113c-15.97-.14-30.77,1.44-43.91,10.6-.75-2.68-.53-5.09-.31-7.4.22-2.28,2.56-1.04,3.86-1.59,1.92,0,2.82-1.27.94-2.41-9.08-4.8-3.28-28.72-4.95-38.71-.03-2.36.54-3.46,3.27-3.9,7.12-1.14,14.03-3.18,20.59-6.09,2.66-1.18,3.24-.72,3.35,1.98.77,17.26,4.69,34.4,17.17,47.52Z"/>
      <path class="cls-4" d="M88.28,18.05c4.46,15.4,14.75,27.07,26.46,38.43-37.06,8.17-24.18,28.47-26.46-38.43Z"/>
      <path class="cls-6" d="M131.35,18.39c3.93,15.31,15.54,26.53,25.37,37.87-35.26,9.16-23.31,27.26-25.37-37.87Z"/>
      <path class="cls-4" d="M0,104.35c7.65-8.65,16.62-15.17,24.91-23.12.84-.76,1.84-1.98,2.89-1.19,1.06.8-.61,1.47-.93,2.26-13.1,29.4,4.59,14.4-26.87,22.05Z"/>
      <path class="cls-4" d="M9.27,110.11c3.27-4.09,5.65-7.64,11.08-6.12,2.21.62,2.77-.52,2.7-2.4-.39-4.53,6.45-18.89,11.26-19.52.68.48-3.47,7.68-3.77,8.3-12.2,27.85,7.62,17.14-21.27,19.73Z"/>
      <path class="cls-4" d="M113.02,31.79c1.84-4.89,7.62-5.85,9.61-10.24,2.6-2.54,8.16-4.46,6.85,1.77-.17,1.4-1.37,1.4-2.49,1.47-5.16,1.4-8.06,6.39-13.97,6.99Z"/>
      <path class="cls-4" d="M86.53,15.35c1.27,4.74-4.73,1.95-6.24,5.06-1.58,2.73-5.34,2.21-7.4,4.39-1.53.92-1.8-1.12-.67-2.27,2.56-.85,14.38-15.6,14.3-7.18Z"/>
      <path class="cls-2" d="M58.72,24.97c-.42.02-.84.03-1.27.05-.48-1.28,1.58-1.34,1.27-.05Z"/>
    </g>
  </g>
</svg>