<?xml version="1.0" encoding="UTF-8"?>
<svg id="Layer_2" data-name="Layer 2" xmlns="http://www.w3.org/2000/svg" viewBox="0 0 747.18 349.08">
    <defs>
        <style>
            .cls-1 {
            fill: none;
            }
        </style>
    </defs>
    <g id="Layer_1-2" data-name="Layer 1">
        <g>
            <rect class="cls-1" x="201.28" y="51.27" width="539.81" height="177.36"/>
            <path d="M194.81,162.15l9.86-.77c5.39-.46,7.7-1.85,11.09-11.09l26.95-73.31c3.08-8.47-.46-9.39-6.93-9.86l-7.39-.62v-1.08h48.67v1.08l-9.86.77c-5.39.46-7.7,1.85-11.09,11.09l-14.63,39.89c13.86-11.24,27.41-22.64,33.88-28.03,22.95-18.79,20.02-22.33,9.55-23.56l-1.39-.15v-1.08h39.73v1.08l-2.77.31c-11.55,1.23-24.49,9.09-44.66,25.72-4,3.23-8.78,7.24-14.17,11.55l23.56,50.05c2.31,4.77,3.23,6.31,9.24,7.08l6.93.92v1.08h-43.74v-1.08l8.47-.77c5.85-.46,7.08-2.46,4.62-7.7l-19.1-41.43c-3.7,3.08-7.55,6.31-11.55,9.55l-10.93,29.88c-3.23,8.62.46,9.39,6.93,9.86l7.39.62v1.08h-48.67v-1.08Z"/>
            <path d="M326.33,152.56c0-21.72,22.64-59.45,50.21-59.45,8.78,0,16.63,3.85,20.17,7.24,1.23-3.54,1.85-5.7,2.46-7.7,3.08-.62,8.93-.31,12.01.92l-9.86,17.71-16.94,48.51c.46.77,3.08,2.77,3.85,3.23,7.08-3.23,13.55-8.32,23.41-19.4l.92.62c-11.7,13.71-21.87,22.48-30.96,22.48-5.39,0-10.32-3.23-10.78-5.7,0-2.93,5.24-10.78,14.94-33.57h-.46c-9.7,12.47-32.96,39.27-48.2,39.27-6.78,0-10.78-5.08-10.78-14.17ZM344.81,161.03c8.62,0,41.89-32.5,47.28-47.43-.46-6.31-8.78-18.33-18.33-18.33-15.86,0-33.42,36.19-33.42,56.67,0,6.62,1.85,9.09,4.47,9.09Z"/>
            <path d="M403.72,197.48l6.28-.64c5-.52,7.14-1.54,10.56-9.91,11.13-28.2,22.41-54.85,32.97-81.24-15.42,4.51-27.12,17.12-31.26,23.18l-.86-.51c5-6.57,15.42-19.96,32.83-24.59,1.71-4.25,3.43-8.37,5-12.62h6.71l-1.86,11.07c1-.13,2-.13,3-.13,16.84,0,27.41,8.24,27.41,22.92,0,20.47-20.55,40.94-41.11,40.94-4.85,0-9.42-1.16-12.99-2.45l-9.28,23.56c-3.43,8.75-.14,9.4,6.28,9.91l6.85.51v.9h-40.54v-.9ZM450.68,164c21.55,0,30.55-26.78,30.55-42.23,0-11.72-5.14-17.64-16.84-17.64h-.86l-22.84,58.33c3,.9,6.57,1.54,9.99,1.54Z"/>
            <path d="M503.07,160.76c-.15-1.54,9.24-22.95,35.11-106.88l-12.32-1.23v-.77l25.1-.62.46.77c-26.03,79.16-33.88,102.41-34.81,107.34.46.77,2.93,2.93,3.7,3.39,7.08-3.23,13.71-8.47,23.56-19.56l.77.77c-11.71,13.71-21.72,22.33-30.8,22.33-4.77,0-9.39-2.62-10.78-5.54Z"/>
            <path d="M550.96,152.14c0-21.72,22.64-59.45,50.21-59.45,8.78,0,16.63,3.85,20.18,7.24,1.23-3.54,1.85-5.7,2.46-7.7,3.08-.62,8.93-.31,12.01.92l-9.86,17.71-16.94,48.51c.46.77,3.08,2.77,3.85,3.23,7.08-3.23,13.55-8.32,23.41-19.4l.92.62c-11.7,13.71-21.87,22.48-30.96,22.48-5.39,0-10.32-3.23-10.78-5.7,0-2.93,5.24-10.78,14.94-33.57h-.46c-9.7,12.47-32.96,39.27-48.21,39.27-6.78,0-10.78-5.08-10.78-14.17ZM569.44,160.61c8.62,0,41.89-32.5,47.28-47.43-.46-6.31-8.78-18.33-18.33-18.33-15.86,0-33.42,36.19-33.42,56.67,0,6.62,1.85,9.09,4.47,9.09Z"/>
            <path d="M693.41,160.76c.15-1.39.46-3.08,10.93-28.18,9.39-22.48,12.01-28.34,12.01-32.19,0-2.46-1.08-3.54-3.08-3.54-8.93,0-27.11,17.4-42.97,38.66-8.78,26.64-8.32,30.8-15.25,30.8-3.7,0-8.16-1.23-9.24-3.85l12.78-20.94,14.01-44.51c-.46-.77-2.93-2.93-3.7-3.39-7.08,3.23-13.71,8.47-23.56,19.56l-.77-.77c11.7-13.71,21.71-22.33,30.8-22.33,4.77,0,9.39,2.62,10.78,5.54-.15,3.08-5.54,13.71-15.09,36.04h.46c17.09-22.49,34.04-41.58,47.59-41.58,6.01,0,9.24,3.7,9.24,7.85,0,6.31-7.24,22.95-8.93,26.95-6.01,14.17-11.86,32.65-12.47,34.5.46.77,3.08,2.93,3.85,3.39,7.08-3.23,13.55-8.47,23.41-19.56l.77.77c-11.71,13.71-21.71,22.33-30.8,22.33-4.77,0-9.39-2.62-10.78-5.54Z"/>
        </g>
        <g>
            <rect class="cls-1" x="195.26" y="190.32" width="551.85" height="128.22"
                  transform="translate(-.26 .49) rotate(-.06)"/>
            <path d="M200.72,236.47c0-26.1,19.1-38.31,37.72-38.31,10.64,0,19.95,4.07,22.97,4.07,2.06,0,3.26-1.7,4.23-3.62l.73.11c.36,8.36.97,18.76,1.93,30.62l-.73.23c-1.45-10.28-5.8-29.95-27.57-29.95-16.08,0-27.81,10.51-27.81,35.48,0,27.8,14.39,36.28,29.14,36.28s24.06-8.7,29.02-15.82l.73.45c-2.66,3.96-12.57,18.42-33.73,18.42s-36.64-14.35-36.64-37.97Z"/>
            <path d="M279.79,247.09c0-17.74,11.85-28.59,26.96-28.59,13.66,0,26.72,8.81,26.72,27.46s-11.85,28.48-26.96,28.48c-13.66,0-26.72-8.7-26.72-27.35ZM306.76,273.08c8.58,0,15.36-6.44,15.36-26.22,0-16.84-4.96-27.01-15.48-27.01-8.71,0-15.48,6.55-15.48,25.99,0,16.5,4.84,27.23,15.6,27.23Z"/>
            <path d="M340.49,271.39l1.93-.23c6.29-.68,7.25-1.58,7.25-9.94v-62.49c0-1.81,0-3.16-2.3-3.05l-7.25.23-.12-.9,19.71-4.97v70.06c0,9.49.97,10.4,6.05,10.96l3.14.34v.79h-28.41v-.79Z"/>
            <path d="M376.52,271.39l1.93-.23c6.29-.68,7.25-1.58,7.25-9.94v-62.49c0-1.81,0-3.16-2.3-3.05l-7.25.23-.12-.9,19.71-4.97v70.06c0,9.49.97,10.4,6.05,10.96l3.14.34v.79h-28.41v-.79Z"/>
            <path d="M411.34,247.2c0-16.84,11.12-28.7,27.08-28.7,12.82,0,21.52,8.25,20.31,19.32h-36.03c-.24,1.7-.36,3.62-.36,5.54,0,16.61,7.98,26.56,21.28,26.56,7.13,0,13.3-3.16,17.41-9.61l.73.34c-4.59,7.91-12.45,13.79-23.94,13.79-15.84,0-26.48-10.96-26.48-27.23ZM445.2,236.24c2.54,0,3.38-1.02,3.38-3.84,0-7.12-4.84-12.43-11.24-12.43-7.74,0-12.94,6.1-14.51,16.5l22.37-.23Z"/>
            <path d="M468.78,248.11c0-16.27,11.61-29.61,29.87-29.61,11.12,0,18.74,4.97,18.74,9.15,0,2.71-3.14,5.99-6.65,5.99-7.13,0-5.08-13.67-13.9-13.67-5.92,0-17.05,5.88-17.05,24.18,0,15.82,8.22,25.77,21.4,25.77,10.76,0,15.36-6.67,17.29-9.61l.73.34c-1.09,2.37-8.1,13.79-23.82,13.79-14.87,0-26.6-10.06-26.6-26.33Z"/>
            <path d="M532.62,255.79v-33.56h-7.86v-1.02l7.86-1.02,9.31-12.66h.85v13.22h16.81l-.12,1.47h-16.93v29.38c0,10.96.24,20.12,8.46,20.12,5.2,0,9.67-3.05,12.57-7.12l.6.45c-.97,1.7-5.92,9.38-17.65,9.38-7.01,0-13.91-3.84-13.91-18.65Z"/>
            <path d="M567.08,271.39l1.93-.23c6.29-.56,7.25-1.58,7.25-9.94v-34.01c0-1.81,0-3.16-2.3-3.05l-7.25.23-.12-.9,19.71-4.97v41.59c0,9.49.97,10.51,6.05,10.96l3.14.34v.79h-28.41v-.79ZM580.38,191.83c4.23,0,8.1,3.16,8.1,7.69,0,4.18-3.63,7.57-8.1,7.57s-8.22-3.5-8.22-7.57,3.75-7.69,8.22-7.69Z"/>
            <path d="M603.35,247.09c0-17.74,11.85-28.59,26.96-28.59,13.66,0,26.72,8.81,26.72,27.46s-11.85,28.48-26.96,28.48c-13.66,0-26.72-8.7-26.72-27.35ZM630.31,273.08c8.58,0,15.36-6.44,15.36-26.22,0-16.84-4.96-27.01-15.48-27.01-8.71,0-15.48,6.55-15.48,25.99,0,16.5,4.84,27.23,15.6,27.23Z"/>
            <path d="M700.92,271.39l1.93-.23c6.29-.68,7.25-1.58,7.25-9.94v-26.22c0-4.52,0-13-8.58-13-6.17,0-12.58,4.41-16.93,8.14v29.95c0,9.49.97,10.4,6.05,10.96l3.14.34v.79h-28.41v-.79l1.93-.23c6.29-.68,7.25-1.58,7.25-9.94v-34.01c0-1.81,0-3.16-2.3-3.05l-7.25.23-.12-.9,19.71-4.97v10.06h.24c4.11-3.96,11-10.06,21.64-10.06,13.66,0,13.66,10.51,13.66,15.93v25.65c0,9.49.97,10.4,6.05,10.96l3.14.34v.79h-28.41v-.79Z"/>
        </g>
        <g id="B9Ws8L.tif">
            <g>
                <path d="M86.67,34.06h-5.62l-.79-2.99-1.48-3.69-7.21-.12-6.52.12-1.59,3.48-.85,3.19h-5.46l12.13-26.63h6.41l10.97,26.63ZM77.4,23.89l-4.88-12.28h-.37l-5.56,12.28,5.35.08,5.46-.08Z"/>
                <path d="M127.47,33.06l-.05.5c-1.7.44-3.44.73-5.25.87l-.64-.33c-2.93-3.76-5.3-6.94-7.1-9.54h-5.78v1.12l.27,8.38h-5.56l.37-8.01-.37-18.62,11.55-.04c3.43,0,6.08.67,7.95,2.01,1.87,1.34,2.81,3.26,2.81,5.74,0,1.77-.59,3.37-1.78,4.79-1.18,1.42-2.83,2.58-4.95,3.46,2.4,3.01,5.25,6.24,8.53,9.66ZM108.76,21.07l5.83.12c3.57-.86,5.35-2.76,5.35-5.72,0-1.55-.54-2.71-1.62-3.48-1.08-.77-2.71-1.19-4.9-1.24l-4.5.12-.16,10.2Z"/>
                <path d="M171.71,26.09l.16,7.96h-5.88l-16-19.95h-.37l-.05,11.03.16,8.92h-4.98l.27-7.88-.21-18.75h5.78l16.06,19.95h.42l-.11-19.74,5.09-.29-.32,18.75Z"/>
                <path d="M215.22,10.49c2.54,2.27,3.82,5.5,3.82,9.71,0,4.54-1.36,8.04-4.08,10.52-2.72,2.48-6.59,3.71-11.6,3.71-4.66,0-8.26-1.17-10.78-3.51-2.53-2.34-3.79-5.65-3.79-9.93s1.35-7.88,4.05-10.29c2.7-2.41,6.54-3.61,11.52-3.61,4.7,0,8.32,1.13,10.86,3.4ZM196.75,13c-1.57,1.62-2.36,4.11-2.36,7.49,0,3.68.77,6.37,2.3,8.07s3.91,2.55,7.13,2.55,5.65-.81,7.21-2.45c1.55-1.63,2.33-4.17,2.33-7.63s-.77-6.27-2.3-7.94c-1.54-1.67-3.91-2.51-7.13-2.51s-5.61.81-7.18,2.43Z"/>
                <path d="M254.16,30.86l-.42,3.19h-17.49l.37-8.01-.37-18.62h5.62l-.32,18.25.11,4.81h12.13l.37.37Z"/>
                <path d="M294.12,10.49c2.61,2.16,3.92,5.25,3.92,9.29,0,4.67-1.43,8.26-4.29,10.76-2.86,2.5-6.98,3.75-12.35,3.75-1.52,0-3.34-.02-5.46-.06s-4.1-.1-5.93-.19h-.05l.37-8.01-.37-18.62h.05l12.88-.17c4.88,0,8.62,1.08,11.23,3.24ZM289.8,28.37c1.71-1.69,2.57-4.23,2.57-7.63s-.82-5.95-2.46-7.57-4.12-2.43-7.44-2.43c-1.94,0-4.26.06-6.94.17l-.27,14.77.16,4.94c1.27.08,2.54.15,3.81.21,1.27.06,2.31.08,3.13.08,3.25,0,5.73-.84,7.44-2.53Z"/>
                <path d="M359.61,34.06h-5.62l-.79-2.99-1.48-3.69-7.21-.12-6.52.12-1.59,3.48-.85,3.19h-5.46l12.13-26.63h6.41l10.97,26.63ZM350.33,23.89l-4.88-12.28h-.37l-5.56,12.28,5.35.08,5.46-.08Z"/>
                <path d="M403.32,26.09l.16,7.96h-5.88l-16-19.95h-.37l-.05,11.03.16,8.92h-4.98l.26-7.88-.21-18.75h5.78l16.06,19.95h.42l-.11-19.74,5.09-.29-.32,18.75Z"/>
                <path d="M448.04,10.49c2.61,2.16,3.92,5.25,3.92,9.29,0,4.67-1.43,8.26-4.29,10.76-2.86,2.5-6.98,3.75-12.35,3.75-1.52,0-3.34-.02-5.46-.06-2.12-.04-4.1-.1-5.93-.19h-.05l.37-8.01-.37-18.62h.05l12.88-.17c4.87,0,8.62,1.08,11.23,3.24ZM443.73,28.37c1.71-1.69,2.57-4.23,2.57-7.63s-.82-5.95-2.46-7.57-4.12-2.43-7.45-2.43c-1.94,0-4.26.06-6.94.17l-.27,14.77.16,4.94c1.27.08,2.54.15,3.82.21,1.27.06,2.31.08,3.13.08,3.25,0,5.73-.84,7.44-2.53Z"/>
                <path d="M512.16,10.49c2.61,2.16,3.92,5.25,3.92,9.29,0,4.67-1.43,8.26-4.29,10.76-2.86,2.5-6.98,3.75-12.35,3.75-1.52,0-3.34-.02-5.46-.06-2.12-.04-4.1-.1-5.93-.19h-.05l.37-8.01-.37-18.62h.05l12.88-.17c4.87,0,8.62,1.08,11.23,3.24ZM507.84,28.37c1.71-1.69,2.57-4.23,2.57-7.63s-.82-5.95-2.46-7.57-4.12-2.43-7.45-2.43c-1.94,0-4.26.06-6.94.17l-.27,14.77.16,4.94c1.27.08,2.54.15,3.82.21,1.27.06,2.31.08,3.13.08,3.25,0,5.73-.84,7.44-2.53Z"/>
                <path d="M553.6,30.4l.32.37-.37,3.28h-20.08l.37-8.01-.37-18.62h20.19l.32.37-.42,3.28-8.05-.17-6.46.04-.16,7.76,6.15.08,5.62-.12.37.33-.42,3.28-5.99-.12-5.78.08-.05,3.44.16,4.89,6.46.04,8.21-.21Z"/>
                <path d="M596.25,34.06h-5.62l-.79-2.99-1.48-3.69-7.21-.12-6.52.12-1.59,3.48-.85,3.19h-5.46l12.13-26.63h6.41l10.97,26.63ZM586.98,23.89l-4.88-12.28h-.37l-5.56,12.28,5.35.08,5.46-.08Z"/>
                <path d="M639.97,26.09l.16,7.96h-5.88l-16-19.95h-.37l-.05,11.03.16,8.92h-4.98l.26-7.88-.21-18.75h5.78l16.06,19.95h.42l-.11-19.74,5.09-.29-.32,18.75Z"/>
                <path d="M687.55,26.09l.16,7.96h-5.88l-16-19.95h-.37l-.05,11.03.16,8.92h-4.98l.26-7.88-.21-18.75h5.78l16.06,19.95h.42l-.11-19.74,5.09-.29-.32,18.75Z"/>
                <path d="M728.24,30.4l.32.37-.37,3.28h-20.08l.37-8.01-.37-18.62h20.19l.32.37-.42,3.28-8.05-.17-6.46.04-.16,7.76,6.15.08,5.62-.12.37.33-.42,3.28-5.99-.12-5.78.08-.05,3.44.16,4.89,6.46.04,8.21-.21Z"/>
            </g>
            <g>
                <path d="M56.32,317.13c2.31,2.11,3.46,5.11,3.46,9.02,0,4.21-1.24,7.47-3.7,9.77-2.47,2.3-5.98,3.45-10.54,3.45-4.23,0-7.5-1.08-9.79-3.26-2.29-2.17-3.44-5.25-3.44-9.23s1.23-7.32,3.68-9.56c2.45-2.24,5.94-3.35,10.46-3.35,4.27,0,7.55,1.05,9.86,3.16ZM39.55,319.46c-1.43,1.5-2.14,3.82-2.14,6.96,0,3.42.7,5.92,2.09,7.5,1.4,1.58,3.55,2.37,6.47,2.37s5.13-.76,6.54-2.27c1.41-1.52,2.12-3.88,2.12-7.09s-.7-5.83-2.09-7.38c-1.4-1.55-3.55-2.33-6.47-2.33s-5.09.75-6.52,2.25Z"/>
                <path d="M75.47,317.55l-.14,7.78,4.86.08,5.1-.12.34.35-.39,3.01-5.48-.12-4.47.04-.05,2.66.24,7.78h-5.05l.34-7.44-.34-17.3h17.27l.34.35-.39,3.12-7.22-.23-4.96.04Z"/>
                <path d="M126.66,335.63l.29.35-.34,3.04h-18.24l.34-7.44-.34-17.3h18.33l.29.35-.38,3.04-7.31-.15-5.87.04-.14,7.21,5.58.08,5.1-.12.34.31-.39,3.04-5.44-.12-5.24.08-.05,3.2.14,4.55,5.87.04,7.46-.19Z"/>
                <path d="M160.25,339.02h-5.1l-.72-2.77-1.35-3.43-6.54-.12-5.92.12-1.44,3.24-.77,2.97h-4.96l11.02-24.74h5.82l9.96,24.74ZM151.83,329.58l-4.43-11.41h-.34l-5.05,11.41,4.86.08,4.96-.08Z"/>
                <path d="M192.15,338.09l-.05.46c-1.54.41-3.13.68-4.76.81l-.58-.31c-2.66-3.49-4.81-6.45-6.45-8.86h-5.24v1.04l.24,7.78h-5.05l.34-7.44-.34-17.3,10.49-.04c3.11,0,5.52.62,7.22,1.87,1.7,1.25,2.55,3.03,2.55,5.34,0,1.64-.54,3.13-1.61,4.45-1.08,1.32-2.57,2.4-4.5,3.22,2.18,2.8,4.76,5.79,7.75,8.98ZM175.16,326.96l5.29.12c3.24-.8,4.86-2.57,4.86-5.32,0-1.44-.49-2.52-1.47-3.24-.98-.72-2.46-1.1-4.45-1.16l-4.09.12-.14,9.48Z"/>
                <path d="M218.76,336.05l-.38,2.97h-15.88l.34-7.44-.34-17.3h5.1l-.29,16.96.1,4.47h11.02l.34.35Z"/>
                <path d="M235.98,331.93l.19,7.09h-4.96l.24-7.09-.05-1.5-9.77-16.15h5.29l.63,1.54,6.11,10.37h.38l6.78-10.29.77-1.62h5.15l-10.73,15.95-.05,1.7Z"/>
                <path d="M291.12,339.02h-5.1l-.72-2.77-1.35-3.43-6.54-.12-5.92.12-1.44,3.24-.77,2.97h-4.96l11.02-24.74h5.82l9.96,24.74ZM282.7,329.58l-4.43-11.41h-.34l-5.05,11.41,4.86.08,4.96-.08Z"/>
                <path d="M332.45,339.02h-4.43l-.63-7.51-1.44-11.17h-.34l-7.94,15.95h-3.95l-7.36-15.95h-.43l-1.44,10.83-.77,7.86h-4.19l3.22-24.74h5.68l1.44,3.7,5.92,13.14h.38l6.25-13.26,1.44-3.58h5.63l2.94,24.74Z"/>
                <path d="M362.47,335.63l.29.35-.34,3.04h-18.24l.34-7.44-.34-17.3h18.33l.29.35-.38,3.04-7.31-.15-5.87.04-.14,7.21,5.58.08,5.1-.12.34.31-.39,3.04-5.44-.12-5.24.08-.05,3.2.14,4.55,5.87.04,7.46-.19Z"/>
                <path d="M394.76,338.09l-.05.46c-1.54.41-3.13.68-4.76.81l-.58-.31c-2.66-3.49-4.81-6.45-6.45-8.86h-5.24v1.04l.24,7.78h-5.05l.34-7.44-.34-17.3,10.49-.04c3.11,0,5.52.62,7.22,1.87,1.7,1.25,2.55,3.03,2.55,5.34,0,1.64-.54,3.13-1.61,4.45-1.08,1.32-2.57,2.4-4.5,3.22,2.18,2.8,4.76,5.79,7.75,8.98ZM377.77,326.96l5.29.12c3.24-.8,4.86-2.57,4.86-5.32,0-1.44-.49-2.52-1.47-3.24-.98-.72-2.46-1.1-4.45-1.16l-4.09.12-.14,9.48Z"/>
                <path d="M410.06,331.23l.24,7.78h-5.05l.34-7.44-.34-17.3h5.1l-.29,16.96Z"/>
                <path d="M442.87,315.71l-.91,3.51-.48.12c-2.15-1.33-4.52-2-7.12-2-2.82,0-4.98.76-6.47,2.29-1.49,1.53-2.24,3.81-2.24,6.84s.75,5.47,2.26,7.09c1.51,1.62,3.66,2.43,6.45,2.43,1.35,0,2.69-.19,4.02-.56,1.33-.37,2.56-.89,3.68-1.56l.48.23-.38,3.62c-2.76,1.08-5.49,1.62-8.18,1.62-4.33,0-7.67-1.08-10.01-3.24-2.34-2.16-3.51-5.23-3.51-9.21s1.23-7.28,3.68-9.52c2.45-2.24,5.93-3.35,10.42-3.35,3.14,0,5.92.57,8.32,1.7Z"/>
                <path d="M475.98,339.02h-5.1l-.72-2.77-1.35-3.43-6.54-.12-5.92.12-1.44,3.24-.77,2.97h-4.96l11.02-24.74h5.82l9.96,24.74ZM467.56,329.58l-4.43-11.41h-.34l-5.05,11.41,4.86.08,4.96-.08Z"/>
                <path d="M510.52,331.62l.14,7.4h-5.34l-14.53-18.54h-.34l-.05,10.25.14,8.29h-4.52l.24-7.32-.19-17.42h5.24l14.58,18.54h.38l-.1-18.34,4.62-.27-.29,17.42Z"/>
                <path d="M542.62,330.85l.1,3.58c0,2-.65,3.66-1.95,4.95s-3.55,2.51-6.76,3.64l-1.73-2.2v-.42c2.15-.9,3.66-1.78,4.55-2.64.88-.86,1.32-1.97,1.32-3.33v-3.2l-.19-13.87-5.63.04-.43-.31.29-2.81h10.73l-.29,16.57Z"/>
                <path d="M578.94,326.84l-.05,2.93c.06,3.03-.96,5.38-3.08,7.05-2.12,1.67-5.12,2.5-9,2.5s-6.62-.8-8.61-2.41c-1.99-1.6-2.95-3.88-2.89-6.84l.1-3.43-.1-12.37h4.91l-.19,15.26c-.03,2.16.54,3.76,1.73,4.82,1.19,1.05,2.98,1.58,5.39,1.58,4.81,0,7.2-2,7.17-6.01l-.24-15.64h5l-.14,12.56Z"/>
                <path d="M613.39,317.13c2.37,2,3.56,4.88,3.56,8.63,0,4.34-1.3,7.67-3.9,10-2.6,2.33-6.33,3.49-11.21,3.49-1.38,0-3.03-.02-4.96-.06-1.92-.04-3.72-.1-5.39-.17h-.05l.34-7.44-.34-17.3h.05l11.69-.15c4.43,0,7.83,1,10.2,3.01ZM609.47,333.74c1.55-1.57,2.33-3.93,2.33-7.09s-.75-5.53-2.24-7.03c-1.49-1.5-3.75-2.25-6.76-2.25-1.76,0-3.87.05-6.3.15l-.24,13.72.14,4.59c1.15.08,2.31.14,3.46.19,1.16.05,2.1.08,2.84.08,2.95,0,5.2-.78,6.76-2.35Z"/>
                <path d="M650.15,339.02h-5.1l-.72-2.77-1.35-3.43-6.54-.12-5.92.12-1.44,3.24-.77,2.97h-4.96l11.02-24.74h5.82l9.96,24.74ZM641.73,329.58l-4.43-11.41h-.34l-5.05,11.41,4.86.08,4.96-.08Z"/>
                <path d="M664.97,331.23l.24,7.78h-5.05l.34-7.44-.34-17.3h5.1l-.29,16.96Z"/>
                <path d="M697.79,315.71l-.91,3.51-.48.12c-2.15-1.33-4.52-2-7.12-2-2.82,0-4.98.76-6.47,2.29-1.49,1.53-2.24,3.81-2.24,6.84s.75,5.47,2.26,7.09c1.51,1.62,3.66,2.43,6.45,2.43,1.35,0,2.69-.19,4.02-.56,1.33-.37,2.56-.89,3.68-1.56l.48.23-.38,3.62c-2.76,1.08-5.49,1.62-8.18,1.62-4.33,0-7.67-1.08-10.01-3.24-2.34-2.16-3.51-5.23-3.51-9.21s1.23-7.28,3.68-9.52c2.45-2.24,5.93-3.35,10.42-3.35,3.14,0,5.92.57,8.32,1.7Z"/>
                <path d="M730.89,339.02h-5.1l-.72-2.77-1.35-3.43-6.54-.12-5.92.12-1.44,3.24-.77,2.97h-4.96l11.02-24.74h5.82l9.96,24.74ZM722.47,329.58l-4.43-11.41h-.34l-5.05,11.41,4.86.08,4.96-.08Z"/>
            </g>
        </g>
        <g id="path2311">
            <path d="M127.7,253.55c-3.19.17-6.03-1.03-8.85-.99-2.21.77-5.21.35-7.67-.1-2.77.62-8.05.97-12.13.14-1.18-.11-1.45-.18-1.45-.35,0-.11.14-.12.53-.04,4.06.42,8.68.86,12.73-.25,2.42.44,6.2.93,8.59-.06,4.73,1.36,12.01,1.44,16.96.95,1.93-.43-4.33-.49-3.81-.96,0-.11.15-.25.24-.22,1.41.22,3.84.45,5.36.54.7.05.98-.03,1.35-.39.66-.7,1.89.25,2.73.22,2.91.47,4.39.52,7.19.25.61-.2,1.54-.3.82.46-2.68.83-8.03-.5-10.42-.47-3.24,1.74-8.28,1.18-12.2,1.28ZM128.49,251.52c-1.07-.29-2.24-.22-2.38-.97,1.13-.04,2.52.8,4.13.53,2.36.05,3.13-.58,4.83-.72.74.5-.13,1.07-.64.6-1.8.46-4.11.77-5.94.56ZM110.25,251.09c-1.82.04-2.08-.54-2.96-.99-2.01.25-3.64.54-5.78.6-1.8.19-4.93-.62-6.77-1.3-.06-.02-.07.03-.04.32.1.63-.37.88-.93.56-.57-.27-.55-.27-.87-.1-.77.42-1.77.12-3.66.03-3.96-.55-4.14.62-7.61.54-2.48.3-5.29-1.18-7.58-.78-.42.5-1.44-.06-2.15-.12-1.25-.28-1.53-.04-3.51.18-2.08.19-6-1.23-8.57-1.63-1.64-.5-3.21.75-4.87.8-.85.12-5.91.18-6.95.08-6.4-.71-12.08-2.68-18.19-3.04-2.01-.29-2.42-.28-3.52-.93-.17-.21.14-.34.44-.18,2.02.63,4.56.75,6.73.99,2.52.25,6.32.66,8.24-.41.54-.55,2.1.3,2.74.5,2.6,1.49,9.92.9,12.69.88.79.18,2.49-1.36,2.69-.11-.09.47-.93-.1-1.04.38-.05.25-.12.28-.77.26-.97,0-1.93.18-2.91.11-1.1,1.84-8.93-.33-10.86-1.02-.6.53-4.47.53-5.68.51,3.04.67,6.49,1.28,9.84,1.69,2.03.02,6.3.21,8.17-.44,1.27-.25,2.06-1.04,3.48-.46,1.91.58,3.74.61,5.68,1.3,2.01.79,4.67-.45,6.75.21,2.59-.69,5.66.79,8.34.83,2.53.22,4.95-1.04,7.42-.63.61-.03,3.4.42,4.39,0,.36-.32,1.45.06,1.43-.11-.47-.27-1.02-.79-.11-.9,4.31,1.53,9.13,1.86,13.74.81,1.32,1.4,1.01,1,5.09,1.11,5.84.06,5.81-.14,6.93-.24.2,1.02-.48.52-4.44.69-3.39,0-3.38.08-5.02.02ZM35.99,250.9c-3.18-.18-4.06-1.3-6.34-1.22-2.87.09-4.67.57-6.64-1.06-3.06,2.62-10.01,1.64-12.87.21,3.33.22,8.05,2.22,11.54-.07,2.31-1.81,1.88.74,4.29.56,1.02.04,2.87-.29,3.99-.21.01-.02-.01-.11-.05-.2-.57-.46-2.67-.71-2.5-.84-1.14-1.14,2.79.71,4.01.64,1.12.27,4.1.54,4.12-.07.09-.16.21-.14.39.06.5.48,2.49,1.15,3.25,1.16,2.1.23,4.9.08,6.82.28,1.18.09,1.96-.32,1.82.39-1.86.05-4.65-.21-6.69-.07-1.54.16-3.58.62-5.15.43ZM38.66,250.43c1.14-.17-.31-.33-.64-.43-1.09-.13-1.7-.98-3.02-.64-.25.26-2.69-.28-3.94-.24,2.02,1.33,5.21,1.6,7.6,1.32ZM86.88,249.2c-.85-.15-1.2-.32-2.33-.13-1.71.24-2.87-.49-4.54-.97-1.09-.3-1.14-.3-1.52.08-2.36.93-7.44.66-9.49.62-2.49-.05-11.48-2.37-7.56-2.08.77.1,6.13.71,5.44-.29-.57-.44-.44-.4-1.47-.41-2.1-.04-3.01-.15-4.63-.45-.58-.16-.8-.08-1.16-.33-.76-.53-.45.81-1.3.73-2.1-.4-4.78.51-6.8.21-1.35-.15-2.46-.74-2.34-1.26.07-.3.38-.27.51.06.22.7,3.14.79,3.51.63.11-.06-.04-.11-1.02-.35-1.33-.32-1.66-.41-1.84-.49-.65-.25-.86-.39-1.47-.16-1.18.51-3.62.04-4.94.14-.99.24-5.22-.13-5.41-1.01.2-.59,2.04.98,1.69-.09-1.74-.36-3.87-.46-5.73-1.1-1.87-.13-2.99.5-5.18.62-1.41.29-8.11-.31-7.28-1.33,2.64,1,5.51,1.24,9.39.49.62-.37,2.36-.08,2.75-.35.16-.15.18-.15.55.04,2.54.93,3.77.93,6.8,1.14,2.59.09,6.71-1.05,9.33.27.09.15,1.1.58.86.09.19-1.02,4.06.53,5.33.3.95.1,1.1-.06,1.16.3.2.28-2.27.16-2.82.15-.3,1.67-5.76-1.14-5.25-.16,3.96,2.16,8.42.28,12.65.17,3.6.32,7.92,2.86,11.36,1.05-2.75-.32-5.4-.97-7.93-1.53-1.7.19-6.85-1.38-1.93-.69,1.32.22,2.84.09,4.11-.22,1.06-.45.94.45.21.64-.22.06-.29.15-.15.21.16.06,1.71.15,2.1.11.71.14,3.35-1.03,2.79.19-.43,1.02,2.16-.17,2.49.54-.03.2,2.28.27,2.7.08.9-.14.38-1.12,1.33-.74.83.4,4.23.49,4.63.82,2.81,1.2,6.23.81,9.56.6.03-.28-.28-.61-.09-.8.25,0,2.73.22,2.86,0,.19-.09-.17-.44,0-.54.51-.07.93.25,1.65.34,3.16.82,5.99.43,8.76,0,1.05-.23.84.94-.3.6-.65-.05-1.4-.06-1.25.55,1.73,1.02,4.65.41,6.58.32-.62-1.17,1.01-.42,1.5-.4,1,.83,2.63,1.07,3.88,1.2.29.08,4.89-.73,4.03.26.02.06-3.3.1-2.91.24,1.08.52,3.58.48,4.69.33,1.42-.06,2.37-1.36,3.27-.36.14.51-1.28-.02-1.17.38,0,.33-.5.57-.72.36-1.2.1-4.44.45-6.13-.15-.36-.12-.91-.23-1.26-.11-2.28.69-3.59-.84-5.66.1-.87.27-8.93-.6-7.37-1.8-1.92-.06-5.91,1.07-6.62-.74.21-.52-.7.51-.93.33-.5.09-.16.53-.89.37-.7-.1-5.84-.07-2.91.42,1.74.23,3.1-.19,4.48-.37,1.17,1.27-5.51.7-6.21.99-2.7.47-4.05.23-6.44-.42-1.15.42-3.23.25-4.35,0-2.11.24-5.63-1.03-7.78-.31-1.44.23-3,.93-4.36.65-1.01.13-1.04.62-2.97.57-2.91.03,1.05.59,2.03.74.32.17,5.09.36,2.78.08-.62.06-4.09-.76-1.39-.84,1.58.32,3.32,0,4.95-.4,3.05-1.18,5.54.75,8.35.83,1.32.04,7.18-.82,7.47.6-.22.27-.53-.23-.72.07-.11.13-.06.24.09.2.05.02,3.53-.33,4.09-.09.82.73-5.65.49-6.17.61ZM86.31,248.18s-.09-.01-.13,0c-.09.04.22.04.13,0ZM77.04,247.51c2.04-.31-2.14-.45-2.36-.19-1.17.51,1.87.21,2.36.19ZM112,246.97c.35-.16.89-.16,1.13-.29-.12-.29-.66-.56-.9-.19-.25.28-1.07.39-1.4.53-.46.28.81.12,1.17-.05ZM108.46,246.67c-.95-.23-1.91-.22-2.75-.57-.38-.12-.34-.05.08.16.62.31,1.96.65,2.67.41ZM83.65,246.27c.06-.22-1.06-.31-.98-.72-.05-.18-.06-.19-.43-.25-.36-.01-2.61-.61-2.46-.12-.46.6-.38.38-1.72.47-3.09.03,1.29.59,1.77.33,1.07.02,2.83.58,3.81.29ZM86.12,245.76c.11-.12-1.47-.27-.47-.03.4.09.44.09.47.03ZM84.93,245.52c0-.05-.71-.24-.78-.21-.32.24.87.25.78.21ZM58.15,245.35s-.08-.01-.1,0c-.05.04.2.04.1,0ZM65.49,245.29c-.1-.08-.85-.41-.91,0-.02.06.93.06.91,0ZM47.55,244.26c5.46-1.48-3.65-.95-4.48-.65-.52.07.95.22.98.37.62.56,2.66.32,3.5.28ZM102.46,248.24c-1.02-.47-1.77-.34-2.89-.4-1.88-.83,2.19-.39,2.37-.84,1.46-.53,2.83.94,4.53.7.11,1.03-3.52.47-4.01.53ZM128.31,248.08s-.33-.05-.65-.1c-2.64-.54,1.86-1.07,1.94-1.23-.4-.15-1.82-.94-.35-.62,2.53.62,5.45,1.5,8.19.81.5-.14.52-.25.82.08.99.82,3.03.45,4.13.07,1.9.28,5.34.37,6.72.14.48,1.09-4.47.53-5.12.55-1.31-.36-2.53.27-4.06.21-2.7-.76-4.54,0-7.7-.66-.03.03-.06.05-.1.08-.85.65-2.81.83-3.82.67ZM131,247.3c.44-.19-.4-.45-.61-.13-.78.45.26.17.61.13ZM148.68,246.72c-.83-.23-9.79-.19-9-.4-.23-.7,3.82.05,5.33-.18,2.38-.01,3.9.04,4.05.13.26.27.07.62-.37.45ZM121.92,246.18c-1.34-.18-6.9-.41-7.66-1.56-1.38-.13-4.64-.18-5.82-.83-.27-.14-.3-.2-.13-.24,1.97.23,5.95.77,7.42.43.81.04,2.27-.57,2.86-.17.33.14,1.01.69.24.77-.33-.05-.49.19-.75-.13-.15-.15-.22-.19-.32-.16-.79.07-3.21.22-3.02.32.72.42,2.52.57,3.48.75.44.06,1.07.28,1.23-.1,2.47-.12,4.88,0,7.08-.89.61.8,2.08.8,3.31.82,1.37.05,1.46-.64,2.87-.19,4.14,1.52,8.34-.17,12.77-.08,2.14-.32.29.86-1.34.47-3.87-.07-7.08,1.62-11.02.18-.98-.34-1.7-.22-2.54.17-.33.06-2.34-.11-3.23-.24-1.33,1.06-3.39.65-5.42.69ZM125.8,245.63c1.28-.09.89-.59.06-.35-.53.15-.83.21-1.28.34-.25.17.96.03,1.22,0ZM93.43,244.1c-1.54-.02-3.16-.34-4.29-.64-.93-.05-.83.69-2.31.5-1.07.03-4.71-.58-5.46-1.36-1.86.04-3.66-.04-5.21-.57-1.15-.53-1.13.4-2.24.23-.91,0-3-.45-4.26-.57-3.16-.21-7.1,1.21-10.4.59-2.56-.39-4.34-.64-6.86-1.05-1.29-.11-2.52.29-4.14.28-1.61.11-2.09-.03-3.55-.35-.97-.24-.83-.2-1.16.19-.84-.11-2.18.34-2.66.11-.24-.28-.91-.61-1.53-.76-2.43-.71-3.07.22-5.31.25-1.47.06-3.2.39-4.59-.41-.16-.13-.17-.13-1.35-.16-.25,0-1.29-.09-1.47.12-.99.32-.67-.22-2.24-.07-1.01-.06-1.58.2-1.33-.52.03-.02.64-.04,1.35-.04,1.22,0,1.29,0,1.36-.11.28-.53-1.99-.17-2.19-.45-.69-.03-1.68-.7-2.28-.48-2.29.36-5.45-1.02-7.46-.35-1.17.29-2.96.25-4.26.03-2.36-.35-6.52-.14-9.27-.29-.75-.87.14-.7.84-.53,1.44.17,3.83.19,5.99-.03,1.54-.06,3.3-.46,4.35.36.15.4.79.17,1.26.1.29-.1,1.34-.19,1.56-.38,1.07-.27,3.49.49,4.53.42-.13-.57.6-.57.49-.04-.22.15,1.56.53,1.21.02.13-.93,1.23.36,2.48.1.99.06,2.12-.1,2.89-.02.61.24,1.28-1.52,1.82-1.64.31-.21,1.63-.52,1.38-.88-1.39-.83-4.47-2.31-6.09-3.09-1.97-.38-7.93.43-8.81-1.21-5.86-8.03,2.29-2.54,5.71-3.62-.34-.78-.41-1.41-1.52-1.42-1.85-.18-3.38-.54-4.94-.69.04,1.28-.48,1.46-.75.21,0-.42-.62-.47-.86-.85-1.36-2.78,6.48-.42,8.4-.43,4.38.48,8.81,1.24,13.24,1.45.06-.13.32-.5.31-.58.76-.12-4.46-.58-4.95-.69-6.54-.61-13.25-1.95-19.68-2.07-.57.42-.83-.43-1.55-.41-1.35-.26-2.78-.29-4.08-.56-.95-.1-1.21-.17-1.52-.84-.21-.2-.21-.24-.07-.5.32-.41,1.48.05,2.2-.05,8.99-32.15,16.66-63.85,24.14-96.59-.28-.46-.99-.94-1.02-1.46.08-1.04,1.11-.47,1.52.16,4.92,5.69,11.19,12.69,16.03,18.18.48-.64,1,.45,1.27-.68,1.04-2.81,2.25-5.52,3.04-7.84,2.09-5.76,4.84-12.4,6.9-17.98,2.02-5.13,3.59-8.74,5.19-13.33.27-3.39.09-8.86.13-11.57.23-.14.5-.15.58.17,0,.3.4.18.51.39,1.79.03,3.66,1.76,5.56,1.23,1.1-.35,2.55.44,3.58,1.12.53.45,2.34.49,1.73,1.23-1.32.46-3.34-1.3-4.98-.52-1.11.61-3.15.4-4.06-.11-.58-.44-1.35-.36-1.71-.07.14,1.28-.33,6.88.03,7.64,4.46,6.42,9.49,13.86,14.58,20.23,1.86,2.39,6.49,8.37,7.79,10.02.69-1.75-.61-5.78-1.41-7.26-.89-1.16-.77-.29-2.42-.55-1.9-.14-2.02.1-2.53-1.09-.24-.68.55-.36,2.27-.44,3.54.19,2.74-.55,4.34-2.67,1.96-2.88,4.03-13.44.23-15.16-1.14.01-3.93-.23-2.44-1.47,6.99.48,14.64.98,21.35,1.54,2.6.1,2.32.68,2.41-.87.04-1.5-.17-3.91-.1-5.54,1.43-1.73.85,3.48,1.22,4.25.08.91.27,1.33.82,2.07.51.85.34.41,2.32.66,3.68.43,9.1.33,12.63,1.17.6.23,4.84-.34,3.81.94,1.43.99-1.88.27-2.04.58,1.91,3.54,2.85,8.86,2.48,12.76.19,3.98-1.08,1.52-3.43,1.18-.73-.2-5.69-1.64-6.71-1.54.09.62,1.06,2.19,1.5,2.86,4.86,0,9.46.28,12.9.48.23.65-.3.39-1.18.41-2.34.05-4.03-.54-2.62.43.49-.3.36-.1,1.89-.18,1.57,0,1.73.02,1.73.23-.15.29-.58.19-1.66.21-1.85.05-1.84-.23-.79,1.29.86,1.28,2.07,4.28,2.47,6.13.96,4.31.89,5.24,1.07,10.57-.05,1.61.25,2.52,1.21,3.7,0,.82,3.06.17,3.22.51.21.02-.02.53.14.54.12,0,.36.15.4.25.49.54-3.3-.06-2.36.67,1.4,2.09,2.43,3.36,3.94,5.48,7.96,11.11,16.22,21.12,25.52,31.39,5.37,5.7,12.45,13.89,17.29,17.73,1.11-.16,7.21-4.51,6.51-1.83-1.15.89-3.59,1.65-5.05,3.29-3.27,3.24-6.49,6.24-9.77,9.42-3.34,3.19-6.61,6.45-10.23,9.69-1.1.66-.26,1.14-.44,1.89-.59.46-.6.59-1.11-.44-.46-.67-1.15-.19-3.38-.12-2.34.15-5.71.51-6.9.62-.42.05-.7.08-2.99.26-1.68.13-1.72.14-1.67.26-.16,2.05-2.83,3.98-4.06,5.47-3.39,3.11-7.23,5.96-10.06,9.58-.46.98-.65.96-1.09,1.78q-.17.5-1.35.52c-2.18.03-1.91.26.45.23,1.8.35,4.37-1,4.95-.15.02.23-.04.2.78.33,1.48.26,2.68-.15,4.05-.27,1.48-.42,5.08.78,7.19.67.55.05.71-.05.75.29-.65.17-2.22-.24-3.2-.23-3.07-.77-5.35.14-8.49.06-2.15-.43-3.19-.28-5.84-.22-3.4.2-3.12-.93-5.81-.65-2.98-.03-4.93.74-8.5.08-1.15-.12-1.44-.55-2.66-.33-.03.9-2.66.55-3.48.46-.6-.22-3.22-.08-3.47-.69-1.54.67-5.31.7-7.33.14-1.02-.4-.97.85-2.35.61-.72.06-1.13-.16-1.65.12-1.75.38-4.68-.55-6.54-.91-.83-.44-1.7.12-2.49.28-1.1.23-4.41-.2-5.35-.06.17.14,0,.47.07.6,1.24.18,2.13.41,3.57.34,1.67.07,1.55-.48,2.54-.4.56.27,2.94.04,3.71.43-.26.24,4.64-.11,4.47.38-.45,1.33-.37.76-2.76.82ZM87.77,243.2c0-.14-.23.04-.08.05.04,0,.08-.02.08-.05ZM81.6,241.98c-.02-.11-.51-.16-.43-.03-.03.12.41.09.43.03ZM113.95,241.68c.17-.16.13-.24-.12-.24-.58.06-4.2.06-4.32.26.08.08.79.11,2.53.09,1.67-.01,1.82-.02,1.92-.11ZM128.8,241.75c.93-.17,2.75-.1,2.5-.23.26-.31-3.25,0-2.98-.2-.67-.9,3.73-.1,3.57-.77.57-.59-2.81-.05-2.59-.32-.65-.84,2.09-.1,3.22-.72.54-.57-2.93.1-2.2-.68.45-.11,3.4-.08,2.94-.46-.02-.07-.16-.08-.99-.05-.67-.04-1.33.21-1.22-.29.09-.21,3.45-.33,3.03-.59,0-.08-.09-.08-.83-.06-.95.03-1.15-.01-1.15-.25,0-.18.17-.25.58-.23.58-.06,2.52,0,2.26-.51-.24-.1-2.45.25-2.04-.35-.22-.27,3.29-.03,3.2-.65-.14-.05-1.61.04-1.71-.06-1.39-.79,3.27-.34,2.86-.9-.3-.26-1.96.23-2.2-.21,0-.74,3.49-.17,3.43-.95-.33,0-2.75.2-2.42-.23,1.9-.6,3.74-.2,3.65-.73-.3-.29-2.21.37-2.42-.11.2-.85,3.09-.18,3.54-.79.43-.45-2.31.1-2.37-.01-1.61-.84,3.81-.52,3.76-1.2-.79-.08-2.78.48-3.37.01.15-.56,2.94-.3,1.37-1.24-4.65,3.21-11.2,4.08-16.82,4.85-5.86.84-10.41,1.32-16.25,1.77,7.33-.07,18.49-1.32,26.97-3.34,4.69-1.43.18,1.04-2.65,1.37-7.08,1.63-15.23,2-22.78,2.86,7.69-.16,17.78-1.53,25.14-2.66-6.93,2.41-15.31,2.98-22.5,3.77-1.01.06-4.19.31-4.78.45.9.25,6.24-.26,7.8-.29,5.71-.55,11.28-1.11,17.17-2.19-4.66,1.92-12.23,2.32-17.61,2.91-26.28,1.61-54.93,1.48-81.21-2.09,1.17.56,2.29.55,4.95,1.02,26.62,3.04,53.57,2.92,80.83,1.23,3.72-.38,9.01-.85,12.03-1.79,2.46-.11-3.65,1.61-4.19,1.44-6.97.77-18.73,1.89-3.91,1.02,2.68-.19,4.34-.44,6.69-.96.7.84-4.63,1.21-6.39,1.44-4.08.39-13.45.67-17.1.89.78.39,4.16.02,6.04.02.64-.03,12.31-.58,12.78-.65.99.16,3.26-.85,3.6-.08-.19,1.37-12.3.9-11.59,1.45,2,.11,8.69-.29,10.56-.08.1.15-.45.22-.52.3.11.12,2.05.21,2.3.11ZM115.85,241.38c.18-.13-1.18.07-.37.05.19,0,.35-.02.37-.05ZM88.58,240.92c3.48-.04,9.03.16,11.53-.11-17.39-.23-37.3-.42-55.24-1.44,14,1.29,29.29,1.4,43.71,1.55ZM104.3,240.7s-.12-.01-.15,0c-.09.03.28.04.15,0ZM104.88,240.7c-.09-.03-.38.02-.09.02.11,0,.15-.01.09-.02ZM34.95,239.67c-1.92-.34-5.61-.4-7.63-.59-.78.3,7.11.51,7.12.62.05.05.51.01.51-.04ZM44.23,239.31c-.17-.26-2.49-.25-.74-.03.44.02.55.12.74.03ZM44.6,239.32s-.09-.01-.13,0c-.09.04.22.04.13,0ZM25.65,238.89c.91-.36-1.43-.21-1.56-.07.15.18,1.29.19,1.56.07ZM34.01,238.82c-1.08-.33-5.92-.62-6.9-.38,1.43.21,5.28.42,6.9.38ZM95.13,238.46c0-.06-.35-.06-.38,0-.04.07.4.05.38,0ZM100.02,238.39c12.78-.43-1.82-.32-4.21-.01.49.27,2.57-.03,4.21.01ZM95.62,238.41s-.12-.01-.15,0c-.09.03.28.04.15,0ZM106.29,238.07c0-.07-.1-.07-.1,0,0,.07.1.07.1,0ZM29.96,237.8c-.22-.13-2.33-.21-2.43-.1.11.29,2.35.1,2.43.1ZM30.34,237.82s-.09-.01-.13,0c-.09.04.22.04.13,0ZM31.43,237.2c-.1-.08-1.58-.15-1.91-.09-.17.1,1.97.25,1.91.09ZM90.48,235.78c.22-.06,1.21-.07,1.59-.07,1.33-1.22-1.14-.6-1.89-.76v-.32c1.01-.26,2.76.42,2.38-1.17-.79-.05-2.24.47-2.84-.2-.23.53-.81,3.06.76,2.52ZM76.34,235.73c1.92.04,11.16-.05,12-.09.55.03.79.23.67-.57-1.49-.04-11.32.05-10.22-.23.97-.7,11.19.68,10.3-1.18-10.49.16-22.01.09-32.4-.24-.22,1.71-.36,1.75,2.06,1.78,6.2.33,12.82.46,17.6.52ZM94.67,235.56c1.18-.14,1.18-.14,1.24-.24.37-.58.75-.63-.94-.5-.9.25-2.01-.34-.61-.38,1.28-.08,2.4.02,1.98-1.13-.28-.04-2.01.09-2.55.21-.94-.71-.61.25-.78.89-.32,1.46.63,1.31,1.67,1.15ZM98.91,235.35c.57-.02,1.15-.3.93-.67-.35-.02-2.91.17-2.45-.28.08-.18,2.64-.1,2.48-.38.73-1.72-.92-.63-2.57-1.02-.26-.1.06-.79-.31-.67-.05.64-.27,2.9-.03,3.14.57-.02,1.43-.05,1.95-.11ZM36.92,235.2c-3.6-.84-8.2-1.76-11.6-2.35,3.58,1.65,7.89,2.02,11.89,2.5l-.29-.15ZM101.39,235.24c2.1-.22,1.48,0,1.96-.85-.24-.33-3.23.48-2.47-.5.78.11,1.7-.06,2.49-.17,0-.19.08-1.01-.06-.96-.66,0-2.07.18-2.8.13.03.96-.61,2.83.88,2.35ZM52.75,234.83c.25-.3.28-1.12.23-1.7-1.04,0-2.45-.11-2.67-.27-.1-.04-.15.11-.24.85-.1.75-.09.8.09.87.22.16,1.82,0,2.24.33.21.25.16.18.36-.09ZM105.73,234.95c5.68-.35,11.31-1.09,17.02-1.63,5.93-1.04,11.84-1.28,16.9-4.72.42-.08,2.4-2.01,1.5-1.25-.45.4-.34.21-.95.65-6.83,4.31-16.14,4.06-23.82,5.27-3.25.66-9.46.59-12.46,1.12-.24,1.09.85.54,1.81.56ZM56.16,234.9c.09-.06.07-1.24.08-1.55-.92.04-2.25-.23-2.72-.24.01.16-.33,1.55.11,1.69.15.08,2.14.3,2.53.1ZM49.3,234.4c.25-.11.27-.16.37-.96.08-.66.07-.67-.32-.63-.48.07-2.32-.06-2.62-.27-.06-.17-.35,2-.03,1.77.6-.04,2.02.3,2.6.09ZM45.86,234.13c.3-.03.33-1.32.36-1.55-.5-.07-2.6.32-2.34-.71.14-.66-.21-.43-.37-.85-.47.45.35.63.07,1.23-.05.91-.75,1.92.97,1.82.73,0,.79.27,1.32.06ZM42.75,233.7c.23-.12.23-.11.32-.85.06-.5.03-.59-.16-.48-1.68,0-4.1-.54-5.73-.64-5.06-.66-10.42-1.15-15.23-2.25-.96-.9,5.31.62,5.55.46,4.93.56,10.32,1.44,15.3,1.73.06-.51.2-.77.56-.92.12-.02.14-.05.19-.39.14-.88.19-1.23.17-1.25-1.07-.1-3.17-.3-4.59-.37-5.65-.49-10.27-1.1-15.7-1.82-.33.12-3.49-.82-3.25-.21.51.66,3.55.81,4.3,1.07,3.39.79,7.42,1.04,10.55,1.9-.18.1-5.02-.57-5.18-.59-2.65-.39-6.08-.95-8.55-1.48-.71-.15-.74-.13-.57.22,2.5,1.24,8.78,1.52,11.3,2.28-2.84.33-8.32-1.39-10.94-1.46.42,2.15,3.1,1.46,5.05,2.05,1.96.42,4.15.59,6.09,1.03.38.05.36.14-.03.13-1.89-.02-6.5-.8-8.98-1.22-1.32-.22-1.41-.2-1.15.19,6.57,1.62,14.01,2.33,20.68,2.88ZM105.99,233.72c7.18-.44,13.2-1.34,20.19-2.17,5.42-.93,11.15-1.36,15.41-5.39,1.41-1.33.69-1.14-.48-.95-.22.89-.92,1.28-1.95,1.8-2.4,1.24-4.43,2-6.8,2.51-1.36.11-2.97.92-4.28.38-1.37-.44.13-4.22-1.59-3.42-.32.93.85,3.98-.49,3.96-1.69.1-3.54.6-5.26.67-5.38.51-11.18,1.24-16.7,1.63-.67,1.56,1.01.91,1.93.96ZM71.18,233.11c11.99-.04,9.77.17,17.6-.25-2.08-.54-9,.09-8.88-.17-.33-.8,5.72-.17,6.66-.44,1.34-.1,2.03.04,2.59-.16.33-1-.46-.38-2.84-.58-2.94-.03-3.08-.04-2.89-.24.08-.08,1.46-.13,4.45-.14,1.64,0,1.47.05,1.6-.56.62-1.05-1.54-.46-1.95-.55-8.91.48-20.42.4-28.97.05-1.4-.15-1.97-.08-1.94,1.46-.07.35-.03.48.15.51.74.58-.04.83,1.98.78,6.1.15,6.47.38,12.45.29ZM92.42,232.78c.45-.51.43-1.57.57-2.28.21-.9.49-.98-.78-.86-.84.1-1.22-.04-1.77-.03-.24.13-.98,2.55-.39,2.39.48-.09.42.55.51.83.07.07,1.6.03,1.86-.05ZM91.13,232.33c-.38-.42.93-.4.99-.26.2.3-.85.3-.99.26ZM93.51,232.75c.06-.16.02-.34-.08-.34-.13-.03-.22.81.08.34ZM89.94,232.65c.03-.15-.12-.41-.19-.16-.17.36.15.48.19.16ZM55,232.71c.95.03.9-.71,1.06-1.6.13-1.43.13-1.31,0-1.31-.33,0-1.51-.12-1.97-.19-.17.6-.2,2.67-.1,2.98.26.33.53.08,1.02.12ZM96,232.65c.5-.03.39-1.32.43-1.55-.58.21-1.98.35-2.66.22-.47-.14-.45.29-.15.39.45.16.51.72.64,1.09.43-.02,1.51-.04,1.73-.15ZM94.85,232.18c-.43-.39,1.13-.45,1.33-.28.16.17-.04.24-.9.33-.26.03-.35.01-.43-.05ZM52.1,232.52h.29c-.01-.51.27-1.06.79-1.12.29,0,.21-.23.24-.43-.97.15-2.23-.27-2.93-.24-.34.65.41.61.26,1.31-.14.72.9.44,1.34.48ZM99.12,232.37c.74-.11.64,0,.77-.76.08-.63.05-.7-.21-.55-.38.21-1.4.31-1.56.16-.11-.1-.92-.45-.99-.42-.56,1.07.38.7.71,1.46.16.47.79.09,1.29.12ZM97.85,231.95c-.24-.6,1.6-.25,1.8-.23.7.28-1.71.3-1.8.23ZM102.64,232.21l.74-.09v-.32c-.54,0-1.45.06-2.11.09v.41c.43,0,.76-.03,1.37-.1ZM49.36,232.05c.06-.31.6-.67.58-1.01.2-.53-.53-.47-.46-.16.06.22-.28.59-.46.31-.08-.09-.08-.13-.03-.25.06-.42-1.07-.22-1.48-.58-.67-.37-.43.99-.34,1.32.08.76,1.24.49,2.13.58l.05-.2ZM53.28,232.08c.15-.3-.32-.12-.25.06.05.09.18.05.25-.06ZM45.79,232.04c-.09-.5.45-.91.83-1.12.06-.35.05-1.27.12-1.55-.02-.02-.35-.06-.73-.07-.93-.04-1.1-.07-1.2-.23-.09-.17-.49-.2-.52.04-.01.48-.4,1.52.03,1.84.12.1.14.16.16.51-.08.76.9.54,1.3.58ZM105.53,231.96c5.81-.34,10.59-.99,16.11-1.6,2.45-.26,2.28-.28,4.17-.56-1.14-.25-3.47.44-4.9.43-5.6.29-12.6,1.88-16.38,1.19.35-.56,1.04-.24,1.83-.41,1.51-.15,3.23-.31,4.68-.51,4.78-.51,9.62-.91,14.37-1.77-4.74.35-10.44.94-15.26,1.45-.87.04-4.66.48-5.77.31-.07-.48,1.04-.29,1.46-.44,2.45-.33,3.53-.41,6.27-.67,4.47-.72,9.2-.69,13.61-1.77-3.58-.11-7.97.88-12.24,1.16-3.31.34-3.87.38-7.03.74-1.54.11-2.08.39-2.08-.02,4.61-.97,10.04-.99,15.01-1.82,2.19-.27,4.1-.47,5.81-.67.89-.6-.25-.43-1.26-.26-5.74.8-11.87,1.41-17.71,1.92-2.48.1-2.01.02-2.21,2.43.77,1-.13,1.05,1.53.88ZM18.1,231.77c-2.94-.53-2.67-.35-3.96-2.56-.35-.09.56,1.39.53,1.56.16,1.28,2.94,1,3.43,1ZM102.88,231.38c.56.02.82-.4.49-.68-.42,0-1.88.4-2.2.13-.21-.47,2.05-.34,2.35-.41.05-.37.23-1.5-.03-1.42-.51.07-2.58.01-2.9.32-.29,2.5-.42,2.25,2.28,2.06ZM95.69,230.78c.96-.17.89-.56.89-1.33-.7.2-2.14.15-2.69.1-1.07,1.31.45,1.57,1.8,1.23ZM99.41,230.62c.62-.09.68-.72.61-1.14-.52.1-2.32-.03-2.76.09-.63,1.1,1.3,1.38,2.16,1.05ZM52.95,230.38c.13-.06.39-.1.55-.13v-.53c-1.22-.03-2.39-.17-2.85-.27-.04.05-.04.56-.04.7.57.26,1.95.38,2.34.23ZM49.63,230.21c.5.09.76-.93.31-.75-.33.24-1.6-.12-2-.01-.15.15-.35.11-.44-.07-1.03.33,1.48,1.2,2.12.84ZM19.82,230.09c-.77-.24-4.59-1.38-4.91-1.26.35.35,4.4,1.43,4.91,1.26ZM142.11,229.64c.86-.1,1.2-.15,1.26-.59-.33-.01-2.18,0-2.2.64.22.11.56-.05.94-.05ZM20.68,229.57c-2.25-.56-4.5-1.46-6.92-1.9.33.75,2.87.97,3.81,1.37,1.1.12,2.34.9,3.11.54ZM64.61,229.46c.3-.12-.53-.24-.58-.12-.13.24.48.22.58.12ZM62.46,229.25c.02-.18.03-.19.46-.28.58-.43-.81-.35-1.1-.38.03.36-.11.92.39.83.23,0,.24,0,.25-.17ZM66.66,229.17c-.08-.68.9-.83,1-1.24-.17-.69.74-.63.77-1.09-.07-1.22-2.04,1.82-2.32,2.06.12.08.39.04.36.31-.02.28.18.22.2-.04ZM75.52,229.37c.28-.08-.93-.17-.76,0,.04.06.62.07.76,0ZM76.25,229.37c0-.07-.26-.07-.25,0,0,.07.26.07.25,0ZM128.76,229.35c.31-.17-.45-.1-.4-.03.03.08.27.14.4.03ZM66.02,229.29c.16-.5-.25-.19-.25.03.05.09.22.07.25-.03ZM78.33,229.32c-.03-.3-.74.03-.2.05.11,0,.2-.02.2-.05ZM79.18,229.3c.28-.34-.02-.89.55-.95,1.01-.26,1.96-.55,3.04-.67,1.94-.28,6.27-.7,7.77-1,.08-.34.83-2.15.58-2.31-2.97.13-6.15.54-9.31.88-1.69-.09-3.53,1.17-1.94,1.89-.03-.21-.09-.45.16-.61-.62-.96,1.57-.71,5.03-1.34.74-.05,2.68-.41,1.95.04-1.17.21-3.78.53-4.72.71-.6.04-1.49.26-1.98.49.32.1,1.18-.15,1.6-.19,1.38-.17,5.59-.83,7.17-.58.21.17-.09.42.37.4.29,0,.4.2.19.34-2.35.22-5.98.59-8.28,1.04-.95-.01-1.84.68-2.35.16-.16.29-.1,1.2-.3,1.48-.33.42.31.3.47.22ZM129.67,229.27c1.01-.11,1.17-.4.04-.16-.72.06-1.02.3-.04.16ZM88.52,229.13c.27-.4-1.03-.18-.95-.03.12.16.82.04.95.03ZM53.63,228.87c.01-.09.2-1.21-.01-1.15-.41-.05-4.05-.9-2.41.57-.09.12,1.75.09,1.79.14.25.03.07.53.35.57.21.05.24.03.29-.13ZM89.91,228.96c.12-.2.29-1.06.32-1.3-.41-.28-.99.48-.55.83.34.23-.13.74.23.47ZM13.23,228.89c-.16-.24-.17-1.09-.28-1.28-.29-.06.13,1.68.28,1.28ZM92.71,228.91c1.61-.27-.75-.15-.95-.18-.1-.02-.67-.2-.64-.01.05.53,1.18.11,1.59.19ZM20.37,228.88c-.02-.08-.11-.07-.13.01-.02.07.16.07.13-.01ZM131.79,228.89c.37-.04.81-.17.98-.35-.15-.07-2.84.58-.98.35ZM48.9,228.79c.06.02-.51-.43-.51-.17-.02.23.47.26.51.17ZM95.7,228.75c.58-.26.86.34.95-.13-.13-.28-1.3.08-1.68-.21-.35-.17-.78-1.16.02-.92.27.1.35.09.65-.04.83-.39-1.29-.08-1.4-.1-.68.96.3,1.81,1.47,1.4ZM141.17,228.73c.48.26,4.05-3.88,3.29-3.84-.73.29-1.02,1.26-1.64,1.8-1.03,1.25-2.12,1.7-2.09,2.13.05-.01.24-.05.44-.09ZM59.05,228.73c4.14-.02-1.76-.74-2.28-.62-.6,1.11,1.46.48,2.28.62ZM129.11,228.62c2.54-.54,5.15-.99,7.48-1.8-1.88.33-6.45,1.29-8.3,1.48-.27.03-.41.1-.29.34.08.27.84.02,1.11-.02ZM14.24,228.66c.21-.12-.48-.37-.42-.17.06.09.32.36.42.17ZM65.73,228.45c.3-3.32-.69-10.06-.64-14.03-.02-3.78-.27-1.82-1.26-.19-.31.59-.36.75-.25.87.32,2.41.12,3.87.27,6.47.17,1.66-.5,8.5,1.89,6.87ZM55.45,228.59c1,.04,1.19-.62-.26-.71-1.15-.17-.96-.11-1.07.46.53.37.59.29,1.32.25ZM99.01,228.6c.31-.14,1.45.09,1.12-.53-.21-.31.31-.38.27-.68.06-.31-.77-.18-.91-.14.97,1.14-.47,1.07-1.39,1.29-.29.18.24.13.91.07ZM78.3,228.21c.07-3.37,2.58-3.72,5-3.8,2.19-.23,5.61-.46,8.29-.84.42-1.16,1.22-3.54,2.09-6.43-3.24.39-7.38,1.76-10.7,2.56-.46.11-.96.28-2.65.92-.55.21-.57.23-.63.41-.03.1-.17.45-.31.77-.08,1.11-2.92,6.67-1.8,6.65.46-.03.61.44.71-.25ZM97.87,228.57c-.32-.25-.13-.41-.22-.7-.17-.22.13-.31.34-.4.5-.15.49-.23-.05-.28-.86-.26-.7,1.56-.07,1.38ZM45.64,228.16c.31-.07,1.18-.1,1.3.25.84-1.95-.28-1.48-1.9-1.74-.3-.11-.59,1.19-.17,1.15.21.1.38.32.38.5.1.41.19-.14.39-.16ZM72.65,228.41c.64-1.18,1.61-2.89,1.94-4.27.33-.8,1.41-1,1.17-1.87-.99.31-2.53,1.12-3.27,1.47-.64.45-2.1.52-1.8,1.6.04.72.07.81.29.9.3.07.58,1.04.07,1.06-.23.03-.22.14.03.25.48.29.9,1.36,1.57.86ZM75.88,228.43c.31,0,1.39-2.78,1.58-3.23.59-1.26-.16-1.16.57-2.09.53-.59.59-.06.79-1.26.14-.73.14-.69.02-.69-2.49.65-2.48.76-3.2,3.4,0-.08-1.19,2.65-1.4,3.26-.67,1.16,1.16.54,1.64.63ZM85.98,228.44c.21-.42-.22-.44-.56-.36-.68.25-1.23.02-1.47.33.07.08,1.95.1,2.04.03ZM144.23,228.28c.77-.93-3.4.37-.94.2,0,0,.77-.01.77-.01l.17-.19ZM76.78,228.42c.05-.08.49-1.6.49-1.68,0-.19-.1-.04-.45.71-.44.92-.45,1.13-.04.97ZM50.25,228.25c.07-.27-.72-.05-.61-.01.1.08.62.31.61.01ZM74.03,227.21c.34-.83.51-1.19.56-1.55-.35.35-.89,1.35-1.26,2.13-.24.53-.23.64.05.61.15-.02.17-.05.65-1.19ZM91.14,228.21c-.16-.16,1.46-.84.48-.79-1.07-.39-1.07,1.45-.48.79ZM101.57,228.36c.02-.06-.27-.08-.23,0,.03.06.22.08.23,0ZM69.47,228.2c1-.13-.14-1.37.84-1.71,0-.37-.03-1.4-.12-1.47-.3.05-1.68.67-1.43,1.22.13.46.15,1.58.21,2.08.11.02.34-.15.49-.12ZM71.09,228.28c-.03-.09-.12-.11-.12,0,0,.09.16.12.12,0ZM43.91,228.16c.59-1.97,1.12-1.45-2.52-1.93-1.33.14-7.18-1.58-6.24-.12-.08.7.39.56.73.82.55.37,1.14.66,1.89.5.5-.03.06-.72.79-.9,1.12-.67,1.2.59,1.56,1.22.63-.1,3.69.48,3.78.41ZM39.19,228.04c-.02-.24-.32.12-.09.1.05-.01.09-.05.09-.1ZM93.45,227.84c.34-.66-.34-.5-.67-.44.37.16.34,1.26.67.44ZM96.67,228c.11-.12.23-.48.23-.65-.04-.16-.41-.24-.32.07.06.19-.17.4-.29.56.17.1.21.27.38.03ZM49.99,227.71c1.55-.43-1.91-.87-2.24-.54.24.73,1.43.67,2.24.54ZM101.08,227.76c.1-.08.29-.45.25-.49-.39-.31-.61.75-.25.49ZM66.63,227.43c.57-.49.04-.63-.37-.65-.02.26-.27,1.59.37.65ZM129.3,227.56c.6-.23,8.72-1.29,6.79-1.81-1.77.5-5.99,1.47-7.59,1.52-.51.03-.62.05-.63.12-.04.48,1.16.17,1.44.16ZM59.7,227.51c.36-.39-2.77-.48-2.87-.55-.66.36,3.06.63,2.87.55ZM108.93,227.34c.01-.27.53-.75.18-.96-.23-.3.07-.46.4-.43,1.22-.28-.94-.39-.47-.94.02-.12.76-.03.74-.16.09-.36-1.2-.53-.62-.96.39-.17-.5-1.11-.67-1.41-.47-.5-.08,4.33-.11,4.64,0,.59.47.52.55.21ZM33.42,227.38c.31-.48-.32-.97-.36-.44.07.18-.18.38-.24.48-.02.04.59.17.6-.04ZM62.7,227.4c.34-.03.27-.1.28-.3-.96-.11-1.92.45-.28.3ZM144.73,227.37c1.97-.69-.89-.86-1.07-.26-.62.59.5.27,1.07.26ZM109.51,227.23c.11-.21-.19.03-.09.06.03,0,.07-.03.09-.06ZM30.81,227.18c-4.46-.72-10.45-1.54-15.27-1.95,4.74.74,10.64,1.55,15.27,1.95ZM56.22,227.06c.41-.28-1.96-.47-1.89-.28-.03.28,2.03.44,1.89.28ZM107.46,227.03c.13-.09.23-.57-.04-.53-.41,0-.51.99.04.53ZM81.45,227c2.11-.49,5.32-.49,7.02-1.02-.3-.25-9.56,1.03-7.02,1.02ZM104.76,226.88c-.02-.24-.13-1.18-.41-1.33-.12.09-.49,2.27.41,1.33ZM39.11,226.94c0-.1-.21-.1-.2,0,0,.1.21.1.2,0ZM111.64,226.94c.3-.15-.33-.17-.19,0,.04.04.09.04.19,0ZM103.57,226.87c.05-.09.25-2.28.22-2.42-.17-.55-2.34-.85-2.31-.15.01.13.03.14.52.19.89.03.82.44.08.37-.61-.06-.88.07-.69.33-.07.16,1.8.12,1.78.26.47.55-1.63.09-1.94.27-.05.18-.2.75-.16.85.39.11,2.4.35,2.49.31ZM106.42,226.68c.06-.23-.38-.23-.43-.08-.2.27.49.39.43.08ZM128.86,226.76c1.44-.29,3.1-.61,4.52-.91.17-.08,2.24-.35,1.68-.72-1.75-.12-4.4.86-6.24,1.07-1.12-.02-1.62.91.04.56ZM109.98,226.68c.02-.18-.26-.05-.17.07.05.08.15.03.17-.07ZM113.43,226.78c.18.02.06-.45.07-.52-.09-.03-1.09-.09-.96.31.03.36.68.22.89.21ZM53.41,226.71c.21-.06.18-.16-.06-.19-1-.14-2.08-.25-2.1-.23.19.44,1.82.51,2.16.42ZM62.65,226.66c-1.01-1.31.82-.07.24-1.15-1.38-.83.11-.29.08-.97.1-.47-.89-.39-.91-.77-.05-.38,1-.03.86-.51-.01-.41-1.66-.87-.18-.95.59-.43-.63-.6-.58-.91-.08-.32.61-.15.69-.35.16-.44-.63-.39-.63-.77-.03-.38,1.02.06.43-.56-.49-.53.81-.61-.54-.88-1.06-.32-.24,1.55-.45,2.41.02,1.52.06,3.98.12,5.41.04.07.78.09.89.02ZM31.83,226.6s-.13-.05-.24-.05c-.49.02.32.19.24.05ZM93.06,226.61c1.04.11.88-.67.96-1.14-.02-.06-.94-.15-.97-.18.64-.26,1.37.2,1.31-1.15-.75.01-1.72.07-2.42.19-.32.58-.69,1.61-.74,2.32.57,0,1.27,0,1.86-.04ZM114.4,226.51c.1-.46.47-.16.58.14.38-.09,2.43.02,2.47-.27-.82-.54.24-.54-.3-1.22.11-.31,1.47-.32,1.59-.49-.46-1.58-1.3-1.15-2.65-.96-.32,1.1,1.43.26,1.9.24.41.67-1.57.53-1.67,1.07-.61.54.04.5-.07.94-.42.04-2.82,0-1.92.67.03-.01.06-.07.07-.12ZM97.09,226.48c.1-.2.18-.38-.28-.28-.76.13-1.62-.04-2.22-.2-1.11,1.01,2.28.44,2.49.47ZM100.53,226.47c.3-.83-.55-.33-1.5-.43-1.48.05-1.32-.05-1.3.48.74-.07,2.41.24,2.79-.05ZM50.4,226.44c.11-.3-.19-.31-.59-.37-.38-.04-1.48-.23-1.8-.2-.14.06-.07.26.1.31.39.1,2.12.33,2.29.26ZM67.39,226.44c.24-1.14,2.38-2.65,2.36-3.68-.31.14-.88.38-1.29.46-.01.24-.06,1.22-.07,1.28-.55.4-1.47.48-2.21.41-.03,1.1-.04,1.8,1.21,1.52ZM111.96,226.4c-.02-.13-.14-.15-.14-.02-.01.13.16.16.14.02ZM60.55,223.49c.24-5.43-.27-1.69-2.33.44-.96-.39,2.3-3.88,2.5-4.64.17-.25.2-.43.09-.43-.28.04-.2-1.44-.28-1.68-.09-.44,0-5.66-.24-5.12-.19-.09-.18-.25-.18-.43-.39.29-.62,2.56-.59,3.65.12,1.86,1.99,2.7-1.08,2.67-1.62-.06-.86.11-1.17,2.09.2.81-1.15,7.13.13,6.2.11-.09.21-.1,1.28-.07,1.05.02,1.18.04,1.44.14.76.3.25-.53.44-2.82ZM119,226.2c.71-.24-1.23-.19-.93.06.09.14.78-.02.93-.06ZM119.79,226.17c0-.15-.16-.23-.28-.14-.21.1.34.38.28.14ZM142.47,226.2c.09-.13-.05-.08-.1,0-.09.13.05.08.1,0ZM145.13,226.17c.72-.1.91-.14.98-.18.41-.2-1.72-.2-1.61-.01-.31.46.3.21.63.19ZM47.42,225.92c.36-.18-3.15-.68-2.15-.09.5.01,1.96.43,2.15.09ZM110.73,225.9c0-.15-.11-.21-.16-.08-.08.22.15.34.16.08ZM56.29,225.9c.17-1.38.44-5.52.55-7.92-.05-.13-1.57-.19-1.68-.07-.23,1.28-.63,6.11-.74,7.78.39.1,1.53.36,1.87.2ZM120.42,225.85c.5-.17,1.19-.92,1.62-.4.16.18.18.19.51.19.35,0,.5-.04,1.62-.41.31-.1.62-.2.69-.21.38-.08-.05-1.88-.06-2.02-.34-.52-.55-1.07.1-1.38,1.55-.84.4,3.83.88,3.73.5.44.66-.43.76-.83.23-.4-.17-.9.14-1.23.36-.23,1.11-.71,1.16.06-.03.33.88.01,1.27.42.49.18.78,1.23,1.36,1.23.39.07,1.67-.52.75-.32-.34.13-1.53.05-.76-.39.05-2.14-1.85-6.39-2.5-8.97-.4-.07-1.96-.36-2.1-.12.21,1.03,1.54,6.13,1.77,7.14-.99.16-1.63-5.44-2.13-6.63-.23-.76.03-.64-.92-.7-1.46-.21-2.65,2.03-4.19,3.1-.92.93.52,4.24.57,5.72-.14,2.94-1.12-4.77-1.39-4.86-1.17.7-1.83,1.54-1.19,3.26,0,.96.82,2.32,1.45,3.14.24.24.33.77.58.48ZM96.48,225.79c1.85-.33-1.46-.3-1.55-.26-.08.29,1.33.35,1.55.26ZM53.93,225.53c.03-.24.06-.97.07-1.31-.89.02-1.85-.13-2.55-.29-.08,0-.15.29-.22.9-.31,1.06.97.65,1.88.86.44-.08.74.34.82-.16ZM99.38,225.69c.26-.15-.91-.14-.56,0,.16.04.49.04.56,0ZM106.14,225.59c.59-.14,1.11-.02,1.4-.2.07-.33-1.63-.09-1.98-.09-.29.12-.89-.24-.63.31.22.29.6,0,1.21-.02ZM44.57,225.63c-5.63-1.17-12.64-1.47-18.6-2.35-4.13-.29-12.9-1.72-16.19-1.58,12.07,1.68,22.95,2.66,34.79,3.93ZM112.63,225.63c0-.07-.21-.07-.2,0,0,.07.21.07.2,0ZM114.35,225.52c.03-.23-.34-.09-.27.05.05.09.25.05.27-.05ZM136.92,225.59c.54-.71-.21-.19-.4-.5-.32-.34.37-.93.68-.51.05.11.08.12.26.1.41-.12-.08.65.2.65.95-.61,3.76-.54,5.62-.82,1.76-.04-.54-2.14-1.34-.59-.18.43-.39.02-.57.04-.06.19-.22.29-.59.39-.71.31-.88-.18-1.41,0-.26.12-.56.14-.64.03.59-1.4,3.94-2.1,5.93-3.31,3.93-1.55,8.83-4.61,12.73-5.77-1.58,1.43-5.05,2.5-7.08,3.66-.37.4-3.39,1.03-2.78,1.88,1.37.82,5-2.1,6.9-2.67,2.47-1.53,5.57-1.51,2.92-3.76-2.19.88-7.21,3.3-9.57,4.46-2.5,1.13-6.57,2.99-9.66,4.44-1.47.93-4.21,1.15-1.19,2.3ZM50.57,225.48c.02-.19-.54.11-.16.09.08,0,.15-.05.16-.09ZM112.49,224.26c1.51-1.53,2.13-2.23,3.56-3.76-.28-.16-.67-.83-.9-.99-.01.08-1.36,1.36-.49,1.28.87.25-1.17.46-1.16.96-.8.96-4.43,5.9-1.01,2.51ZM118.97,225.44c.02-.43-1.09-.08-1.15.03-.13.11,1.2-.02,1.15-.03ZM48.55,225.33c0-.14-.54-.3-.37,0,.04.05.37.05.37,0ZM146.53,225.29c1.22-.98-.79-.38-1.4-.43-.46.82,1.04.42,1.4.43ZM47.53,225.21c.31-.18-.3-.56-.22-.74.63-.14.61-1.03.7-1.66.06-.48.43-1.8.4-2.27.4-2.5,1.46-3.24-.91-3.08q-.51,0-.57.15c.19-.84-1.89,7.67-1.63,7.35.32.13,2.03.32,2.23.25ZM97.4,225.14c.25-.55-.31-.3-1.02-.38-1.38-.06-.88.02-1.14-.51-.13-.17-.14-.17-.22-.07-1.13,1.67,2.06.95,2.38.97ZM100.76,225.12c.1-.27.04-.28-1.37-.29-1.32,0-1.37,0-1.38.2-.28.3,1.86.19,2.69.23l.05-.14ZM50.29,225.05c.59.12.56-1.11.48-1.5-.6-.02-1.53-.19-2.24-.36-.82,1.53.28,2.04,1.76,1.86ZM114.38,224.89c.14-.05.26-.11.27-.14.03-.09-.43-.72-.52-.72-.77.4-1.05,1.32.26.86ZM127.67,224.94c.13-.25-.39-.05-.29.06.03.05.22.01.29-.06ZM128.86,224.85c-.04-.19-.77-.49-.68.02.04.1.64.08.68-.02ZM44.73,224.79c.32-1.54,1.36-5.32,1.63-7.28-5.74-.27-15.79-.11-21.99.83-4.36.59-9.99,1.52-14.47,2.44-.42.49,1.75.33,2.01.47,2.62.24,6.4.74,8.7.98,8.02.75,16.13,1.99,24.12,2.55ZM110.86,224.61c.39-.87,2.49-2.55,1.55-2.95-1.9-2.33-2.06-3.42-1.85.1.11.14,1.62,2.11.31,1.28-.62-1.17-.48,2.5-.02,1.56ZM115.75,224.63c.03-.44-.3-1.37-.27-1.85-.06-.04-.89.67-.94.81-.07.18.77,1.39,1.21,1.04ZM106.21,224.51c1.86-.14,1.18.32,1.28-1.9.03-.66-.02-2.07-.39-2.6.41-.24.24-.77.34-1.26.4-.75-1.3-2.64-1.37-2.63-.3-.11-.18-.92-.56-.42-.38,2.2-.47,4.87-.89,7.07-.21,1.82-.49,1.98,1.59,1.75ZM106.35,219.62c-.48-.73.29-.79.5-.21,0,.23-.34.38-.5.21ZM67.74,224.36c.63-.17.3-1.6-.36-1.52-.16.05-1.01.09-1.31.1-.12,1.64.28,1.81,1.67,1.42ZM100.83,224.43c.36-.44-.41-.15-.45-.01.03.05.33.06.45.01ZM113.69,223.85c.65-.74-.38.12-.61.47-.26.37.53-.39.61-.47ZM129.04,224.38c-.03-.09-.17-.16-.22-.11-.05.03.28.31.22.11ZM145.09,224.38c1.01-.07,2.33-.2,2.37-.24,0-.54-.48-.34-1.13-.33-.91.14-1.34-.18-1.93.08-.22.6.08.58.69.49ZM70.44,224.07c.55-.28,1.33-.64,2.01-1.01.19-.33,1.1-1.79.64-.73-.4.88.29.16,1-.04,4.77-1.99,9.23-3.49,14.2-4.71,6.65-1.62,13.84-2.46,20.91-2.99,2.49-.24,6.41-.34,9.09-.36.05-.02.22-.22.38-.44,2.14-2.39,1.14-3.06,1.13-6.7-.24-3.32-.59-7.03-.99-10.36-.28-3.74-.99-7.39-1.3-11.16-.24-1.52-.47-3.67-.74-5.24-.04-.3-.07-.3-1.92-.24-10.33.33-20.06.56-30.68,1.1-2.22.08-4.46.24-6.01.26-2.74.27-3.69-.39-3.03.78,4.78,10.78,2.61,23.65-1.69,34.35-.82,2.2-1.78,4.49-2.99,6.62-.53.81-1.31,1.61-.01.86ZM71.08,222.5c.03-.13.57-1,.68-1.02.08.02-.61,1.43-.68,1.02ZM73.41,221.5c4.17-8.89,6.49-14,8.66-21.63-1.16,6.75-5.14,15.42-8.66,21.63ZM72.68,219.73c2.59-5.12,5.72-13.84,6.93-19.79.04,3.73-2.19,8.48-3.38,12.22-.02.54-3.98,9.57-3.55,7.57ZM77.1,219.62s.13-.41.24-.5c.23-.14-.1.72-.24.5ZM77.72,218.44c1.97-4.03,4.5-11.61,5.92-15.21-1.25,4.68-3.32,11.16-5.92,15.21ZM80.75,217.49c2-4.21,3.67-8.71,5.17-13.2.26-.85.39-.71.15.16-1.47,4.47-2.72,9.31-5.31,13.04ZM83.51,217.12c1.1-2.69,3.07-7.14,4.01-9.95.43-.69.84-4.13,1.12-3.17-.85,4.15-3.11,9.83-5.12,13.12ZM89.42,216.25c-.03-.06.1-.41.17-.46.21-.16-.07.72-.17.46ZM86.87,215.78c1.32-3.64,3.6-8.51,4.57-12.02-.07,2.81-1.71,5.45-2.95,8.61-.54,1.36-.93,2.08-1.42,3.32-.14.33-.25.38-.21.08ZM89.75,215.39c1.1-2.84,3.43-8.04,4.44-10.52-.23,2.25-1.83,4.83-2.6,6.83-.59.93-1.03,3.22-1.84,3.69ZM95.43,215.07c1.07-2.33,2.72-5.95,4.01-8.92.37.14-3.03,8.06-4.01,8.92ZM92.64,214.98c1.18-2.06,3.7-8.32,4.48-9.65-.78,2.84-2.8,7.57-4.48,9.65ZM98.37,214.45c1.48-2.51,3.49-7.8,4.41-9.35-.8,2.9-2.87,7.24-4.41,9.35ZM101.11,213.83c.55-1.1,1.8-3.23,2.38-4.45.41-.19,1.47-4.67,2.35-5.34-1.13,3.4-2.7,7.53-4.74,9.79ZM103.8,213.73c1.09-1.8,3.49-6.92,4.27-8.64.06.92-3.48,8.63-4.27,8.64ZM108.73,213.49c.78-1.37,2.03-3.34,2.79-4.74.15-.21,1.17-2.66,1.21-2.03-.75,1.72-2.59,5.67-4,6.77ZM106.29,213.53c.21-.68.99-1.22.27-.13-.11.16-.27.23-.27.13ZM111.11,213.43c.94-1.58,2.25-4.62,3.09-5.5-.73,1.56-1.87,4.58-3.09,5.5ZM113.97,212.8c-.03-.21,4.27-7.47,2.45-3.65-.15.24-.45.74-.66,1.11-.75,1.06-1.26,2.64-1.8,2.54ZM115.71,212.68c-.08-.08-.01-.2.51-.93.94-1.09,1.03-2.02,1.68-2.53.21.14-.25,1.03-1.33,2.61-.36.42-.49.96-.87.85ZM106.95,212.57c0-.06.1-.14.13-.1.04.02-.13.19-.13.1ZM107.2,212.19c.81-1.33,1.78-3.46,2.41-4.1-.34,1.15-1.67,3.56-2.41,4.1ZM109.64,207.93c0-.16.81-1.83.89-1.83.38-.2-.99,2.41-.89,1.83ZM97.44,224.33c.2-.07.18-.19.18-.35-2.4-.11-2.32.57-.18.35ZM127.9,224.07c.07-.29-.29-.06-.23.09.05.14.21.08.23-.09ZM131.86,224.07l.11-.13c-.7-.64.33-1.5.91-.75.54-.63,1.63-1.03,2.19-.28.31.55.81-.3.69-.66-.09-.38,0-.67.37-.74.45,0,1.44-.65,1.51.17.07.5,1.23-.27,1.49.3,1.14.17,3.99-1.81,5.95-2.49,3.27-.78-3.06-2.59-1.02-1.52.93.61-.06.57-.43.17-.76-.26-2.15-.64-2.95-.85-4.02-.99-7.77-1.55-12.15-1.89.56,1.09,2.28,9.14,3.34,8.67ZM99.64,224.05c.35-.2-1.32-.14-1.35-.07-.27.27,1.12.08,1.35.07ZM149.75,223.96c2.97-.34,8.04-.78,10.91-.99,1.6-.16,1.2.13.8-.93-.41-.75-.59-1.49-1.1-1.96-2.4.12-6.39.67-9.58.68-.11-.18-1.57.52-1.69.65-.31.32.29,1.13-.22,1.34-.74,1.09-1.33,1.6.88,1.21ZM127.45,223.83c0-.11-.14-.33-.21-.33-.17.01.11.67.21.33ZM103.96,223.37c.24-2.3.81-5.68.91-7.78-1.3.12-2.4-.24-2.39,1.7-.26,1.84-.6,4.16-.79,5.97.64-.09,2.33.7,2.26.11ZM53.43,223.51c.94.05.79-.77.75-1.47-.45-.01-2.09-.17-2.48-.21-.3,1.29-.56,2.15,1.73,1.69ZM94.57,223.47c.53-1.58,1.35-4.48,1.82-6.09.2-.7.2-.73,0-.69-.64.22-2.06-.14-2.25.85-.65,1.71-1.49,4.47-1.91,6.02.44-.01,2.27-.02,2.35-.1ZM97.1,223.4c.75.03.96-.29.71-.6-.67.07-1.39.12-2.22-.18-.96,1.01.11.91,1.51.78ZM109.7,223.28c-.15-.18-.12.26,0,.13.05-.05.04-.08,0-.13ZM145.27,223.39c.29-.09.34-.44.06-.51-.38-.08-.66.76-.06.51ZM100.76,223.24l.33-.03c.57-1.23-.91-.55-1.62-.78-1.26-.23-.79.17-1,.86.56,0,1.94,0,2.3-.05ZM134.13,223.19c.05-.1-.36-.07-.34-.02,0,.12.31.13.34.02ZM147.61,223.18c.72-.48-1.79-.33-1.56.06.07.04,1.61.12,1.56-.06ZM114.85,222.75c.78-.6.5-.98-.19-.15-.8.88-.42.75.19.15ZM117,223.12c1.01,0,.54-.41-.04-1.14-.26.04-.9.08-.97.26-.26.73-.07,1.12,1,.88ZM50.91,222.99c.68-2.41-.16-1.39-1.88-1.97-.25-.14-.36,1.17-.41,1.31-.04.71,1.8.89,2.29.65ZM142.56,222.9c.27-.15.33-.16.63-.06.19-.01.28-.53.47-.64-.3-.03-2.76,1.35-1.1.7ZM69.09,222.57c.61-.09.66-1.81.22-1.45-.15.1-.9.15-1.03.23.02.45-.2,1.93.82,1.22ZM109.38,222.47c1.15-.33-.98-.64-.07-1.13.61-.25-.51-1.13-.62-1.5-1.12-1.92-.39,3.33.69,2.62ZM118.01,222.37c.03-.45-.27-.85-.51-.47.02.07.55.99.51.47ZM67.55,222.38c.41-.11.31-.79.19-1.07-.26-.07-1.14-.07-1.43-.22-.75-.6-.31,1.32-.2,1.37.08.06,1.24,0,1.43-.07ZM97.46,222.38c.53.03.93-.82.86-1.39-.27-.07-1.34-.08-1.65-.21-.74-.21-.65-.26-.86.42-.63,1.46.58,1.21,1.65,1.18ZM147.57,222.33c.32-.04.42-.07.49-.16.42-.63-.78-.21-1.06-.27-.92.1-1.16.75.56.43ZM162.26,222.18c-.93-2.07-1.64-4.35-2.67-5.89-.5-.4,2.72,6.53,2.67,5.89ZM70.33,222.15c2.06-4.63,3.33-7.42,4.76-12.61.57-2.16.78-3.07.72-3.13-.06-.06-1.93-.47-2.15-.47-.19-.02-.32.32-.45.05-.36-.42-2.38-.54-2.91-.31-.28.38-.05.96-.35,1.2-.77.29.51-1.48-.35-1.26-2.25-.11-.1,8.33-.27,9.13.37,1.46.41,4.46.66,5.85.11.42-.03,2.25.34,1.54ZM100.81,221.98c.29-.03.15-.59.44-.57.21-.05.21-.76.18-.82-.55.23-1.7-.07-2.24.06-1.15,1.52.35,1.58,1.62,1.33ZM163.18,221.62c4-4.32,8.15-9.21,12.06-13.78,1.1-1.31,1.29-1.4.35-.98-.66.32-2.95,1.47-2.98,1.55-.13.15-.06,1.27-.31,1.33-1.15.86-3.14,1.51-4,2.79-1.39,1.64-5.9,5.43-6.64,6.89.13.46.85,2.06,1.04,2.38.11.19.29-.18.48-.18ZM146.02,221.57c.19-.7.84.05,1.15-.35,0-.07-.1-.73-.34-.61-.08.04-.08.07-.04.21.11.56-.42.3-.65.11-.13,0-.95.48-1.2.61.42-.09.9.61,1.08.02ZM116.89,220.85c1.14-1.12,1.55-1.37,2.65-2.44-.14-1,.16-1.11-1.96,1.1-1.54,1.51-2.56,3.01-.69,1.33ZM8.37,221.5c-.32-.24-3.59-.47-3.28-.4.64.2,3.55.63,3.28.4ZM113.14,221.29c-.12-.1,1.76-1.59,1.08-1.67-.14.03-1.34.09-1.47.11-.07.23.19,1.19.02,1.33-.14.19.38.7.36.22ZM54.02,221.39c.54-.07.36-1.44.39-1.86-.73-.01-1.6-.37-2.33-.46-.53,2.04-.43,2.53,1.94,2.32ZM117.55,221.41c.45-.01.28-.59.16-.73-.31.13-1.29,1.07-.16.73ZM8.63,220.79c.32-.37.39-.93.24-1.45.07-.12.3-.44.31-.5-.36-.07-.29-.59.09-.87,1.2-.92.89-2.8,1.64-5.03.77-2.98,1.14-5.19,1.54-7.91,1.15-7.32,2.86-13.35,4.6-20.99,3.14-12.29,6.49-23.6,9.24-36.08,1.27-6.59,1.65-13.74,3.45-20.29.11-.26.11-.29.05-.5-.15-.41.2-.48.5-.28.23.09.04.87-.06,1.06-.47,1.29-.47,1.83-.74,3.06-1.6,8.15-2.01,15.72-4.02,23.78-5.76,20.6-10.64,40.98-14.66,61.74-.57,1.45-1.33,4.43,1.35,3.13,1.84-3.95,5.3-11.24,7.29-16.06.26-.48,1.24-3.21,1.59-3.42.15.97-1.37,3.42-1.54,4.1-.73,2.48-11.74,24.19-3.8,11.3,1.81-2.9,2.72-5.71,4.1-8.39-.86,3.58-3.25,7.66-5.24,10.92-.22.56-.94,1.11-.54,1.26,1.95-.48,3.97-.69,5.39-.96,5.16-.93,13.43-1.63,18.01-1.67,1.81.03,9.03.07,9.1.05.39-.31.38-1.51.74-2.71,2.4-10.23,4.62-20.34,6.98-29.97,1.31-5.44,2.6-11.17,3.93-16.84.02-.94,1.34-3.86.79-4.69-.55-1.24-.45-1.86-.12-3.12.35-1.32-3.77-4.45-4.71-6.02-4.03-4.55-7.3-8.41-11.44-13.2-.42-.52-2.09-2.39-2.5-2.85-.5-.83-.79,1.23-.85,1.36.16.86-2,5.17-.86,1.3.54-2.98,1.96-2.79.38-4.14-.27.12-.62,1.76-.86,1.87-.31-.45.26-2.02.62-2.14-1.99-2.35-5.23-6.19-7.27-8.27-.6,1.05-.86,3.51-1.45,5.02-.24.19,0-.69-.05-.79-.11-.49.79-3.71,1.2-4.58,0-.16-2.07-2.48-2.21-2.48-2.85,10.04-4.99,20.61-7.46,30.83-3.73,15.51-7.71,30.94-11.62,46.39-1.23,4.43-2.67,10.96-4.2,15.53-.23,1.49-1.84,3.55.81,3.37,1.03.09,1.77.35,2.27.14ZM12.93,216.42c3.36-7.35,5.81-17.73,9.64-24.64-1.57,4.13-3.62,9.21-4.97,13.3-1.47,3.78-2.75,8.57-4.67,11.34ZM43.32,215.9s2.35-2.59,2.46-1.91c-.28.22-2.24,2.01-2.46,1.91ZM41.19,215.19c1.47-1.06,4.15-4,5.5-4.69.04.65-.48.44-1.31,1.42-1.25,1.03-2.8,2.84-4.19,3.27ZM39.01,214.5c1.89-1.97,5.43-5.26,7.44-7.43-1.25,2.11-5.36,6.09-7.44,7.43ZM36.92,213.63c.06-.11.41-.41.41-.34.02.07-.5.67-.41.34ZM37.38,213.15c2.83-2.73,5.94-6.64,8.68-9.48-1.86,2.86-5.93,7.39-8.68,9.48ZM35.3,211.97c2.97-3.02,7.5-8.53,10-11.32-2.74,3.89-6.41,8.3-10,11.32ZM14.03,210.38c2.46-8.09,6-19.07,9.63-26.49-1.02,3.48-3.2,7.47-4.24,11.26-1.95,5.16-3.29,10.41-5.39,15.23ZM33.88,210.31c3.31-4.41,6.84-9.08,10.06-13.01-1.17,2.1-3.09,4.29-4.55,6.24-1.55,1.96-4.03,5.73-5.51,6.76ZM29.77,207.71c3.3-4.86,6.85-10.3,9.97-15.21-2.57,4.71-6.47,11.12-9.97,15.21ZM33.53,206.98c1.81-2.77,4.9-6.89,6.75-9.82.46-.42,2.28-4.04,2.51-3.48-2.87,4.34-5.81,9.55-9.25,13.3ZM27.69,206.84c3.45-6.13,7.73-13.43,11.21-19.11-1.45,3.49-4.04,7.2-5.87,10.53-1.52,2.22-3.77,7.02-5.34,8.58ZM26.63,203.86c3.53-5.98,6.5-12.57,9.74-17.56-2.96,5.49-6.08,12.65-9.74,17.56ZM14.89,202.32c.88-3.95,3.18-9.46,4.56-14.08,1.31-3.35,2.34-8.11,4.11-10.84-2.91,7.91-5.64,16.88-8.67,24.92ZM16,193.99c.05-.34.12-.51.18-.29,0,.24-.23.78-.18.29ZM29.27,193.71c1.68-3.33,4.1-8.22,6.18-11-1.72,3.3-4.18,8.17-6.18,11ZM16.58,191.76c1.8-6.36,3.81-13.17,6.28-18.48.2,1.3-1.61,3.94-1.94,5.7-1.24,3.21-2.92,9.9-4.34,12.78ZM40.33,191.41c0-.11.19-.54.29-.65.54-.45-.26.93-.29.65ZM27.95,188.51c2.64-5.01,6.12-10.17,9.02-15.06-2.59,5.07-5.84,10.61-9.02,15.06ZM35.71,182.18c.06-.12.13-.15.05,0-.06.12-.13.15-.05,0ZM28.3,181.91c1.52-2.8,5.53-10.55,8.13-13.56-.22.79-1.94,3.14-2.46,4.21-1.21,1.95-2.84,4.98-3.95,6.77-.24.45-1.54,3.1-1.73,2.59ZM35.86,181.92c.27-.93,1.61-2.84,2.49-3.87-.73,1.18-1.48,3.04-2.49,3.87ZM38.6,177.62c.2-.23,1.02-1.71,1.07-1.28-.03.13-.78,1.16-1.07,1.28ZM37.79,172.02c0-.08.42-1.04.61-.77,0,.1-.55,1.08-.61.77ZM36.62,154.43c.55-1.49,3.75-8.06,4.68-10.12.48.26-.28,1.02-.91,2.8-1.22,2.48-2.53,5.61-3.77,7.32ZM37.26,150.59c-.4.4,2.88-8.68,3.8-9.33-.09,1.16-1.31,2.99-1.67,4.2-.69,1.36-1.26,3.82-2.13,5.13ZM37.64,147.04c.02-.14.47-1.93.61-1.69,0,.16-.13.71-.3,1.29-.11.35-.2.61-.31.4ZM28.4,145.94c1.04-2.76,2.77-8.32,3.91-10.62-.2,1.74-1.44,4.15-1.92,5.9-.66,1.5-1.08,3.77-1.98,4.72ZM38.27,145.01c1.93-7.13,3.46-7.29-.03.21l.03-.21ZM28.15,143.28c.89-2.84,2.64-8.71,3.74-11.21-.6,3.27-2.48,8.31-3.74,11.21ZM38.1,142.2c0-.13.09-.33.15-.45,0,.12-.13.77-.15.45ZM28.88,137.92c-.03-.7,1.89-7.95,2.64-8.66-.29,2.16-1.95,6.63-2.64,8.66ZM51.2,220.74c.11-.04.24-1.14.24-1.24-.25-.13-1.88-.24-2.18-.39-.06.06-.27,1.23-.24,1.32.16.2,1.88.66,2.18.32ZM67.47,220.74c.42-.11.03-1.58.05-1.62-.22-.06-1.51.06-1.74.12-.13,1.33.31,1.71,1.69,1.5ZM68.87,220.77c.2-.05.41-.22.56-.36.12-1.4-.19-1.17-1.42-1.21.14.71-.24,1.92.86,1.57ZM165.54,220.23c5.7-5.41,12.44-11.77,17.96-17.26-1.69.54-3.21,1.76-4.73,2.43-1.36.49-1.65.69-2.57,1.94-3.74,4.43-7.84,8.92-11.21,13.32.03,0,.27-.2.55-.44ZM112.28,220.42c-.06-.53-.21-1.87-.35-2.38-.11-.09-.66-.15-.24-.3.43.04-.17-2.28-.02-2.67-.36-.02-1.17.07-1.22.17-.09.39-.08,3.66.38,3.57.35.32,1.42,2.15,1.45,1.61ZM98.49,220.41c.11-.32.38-1.01.28-1.32-.37-.06-1.89-.24-2.25-.25-1.01,1.88.83,1.74,1.96,1.56ZM101.05,220.16c.67.07.69-1.64.65-1.62-.46.23-.56.27-.95.29-1.33-.11-1.37-.23-1.47,1.18.43.26,1.23.3,1.77.15ZM153.66,220.06c2.01-.22,5.05-.2,6.46-.55-.11-.65-1.31-2.64-1.38-2.76-.02-.08-6.52,3.15-6.82,3.39.36.09.88-.07,1.75-.09ZM116.76,219.78c1.33-1.23-.52-.87-1.16-.61.34.37.57,1.4,1.16.61ZM109.57,219.83c.57-.64-1.38-.74-.21-1.26.92-.45-.68-.65-.35-1.17.09-.19.08-.2-.05-.51-.54-.9.97-.61.43-1.15-.38-.34.04-.51-.67-.48-1.04-.25-.51,1.71-.57,2.66.11.45.91,2.13,1.42,1.92ZM114.13,219.23c.27,0,.02-.39.25-.43.35-.17-.19-.5-.23-.75-.42,0-1.27.02-1.7.03-.13,1.51.61,1.21,1.67,1.15ZM54.48,218.98c.04-.06.2-1.11.1-1.11-.66-.13-2.79-.64-2.44.69.24.26,2.02.7,2.35.42ZM51.49,218.88c.06-.06.22-1.02.18-1.12-.02-.06-.14-.07-1.58-.16-.6-.04-.61-.03-.69.48-.27.97,1.59.93,2.09.8ZM67.03,218.7c.67.04.39-1.11.29-1.44.03-.08-1.18.04-1.69.07-.02,1.21.03,1.74,1.4,1.37ZM69.15,218.74l.17-.06c-.03-.38-.06-.96-.15-1.24-.25.01-1.27,0-1.3.1-.19.73.42,1.53,1.28,1.21ZM116.62,218.53c.64.1.37-1.52.11-1.16-.35.51-1.71,1.73-.11,1.16ZM147.02,218.62c4.67-2.23,9.15-4.3,13.72-6.45.13-.28,5.32-2.02,3.74-2.24-6.99-2.3-13.78-3.66-20.69-4.67-.16,2.78.24,6.06-.61,8.08.46.84,1.88,2.98,2.77,4.25.39.4.54,1.28,1.08,1.02ZM161.74,218.42c1.81-1.8,3.75-3.64,5.75-5.7.38-.39.25-.42-.42-.07-2.17,1.23-4.7,2.16-6.73,3.43.1.01.78,3.48,1.41,2.34ZM115.57,218.1c.38-.68.85-.76-.29-.71-.69.02-.7.02-.71.15-.06.11.5.91.5,1.02,0,.17.11.07.5-.46ZM98.88,218.5c.1-.09.32-.88.28-1-.42-.1-1.68-.31-2.11-.38-.98,1.45.83,1.68,1.83,1.39ZM118.56,217.84c.8-.82.78-.78.65-1.36-.11-.32-.17-1.83-.45-1.63-.2,0-.3.11-.97,1.03-.28.4-.49.73-.49.8.32,1.42,0,2.74,1.26,1.16ZM61.22,218.18c.31-.55,1.33-2.26,1.43-2.69-.23-.19-.98-.62-.16-.6.46.04.71-.16.24-.24-.18-.09-.69-.3-.69-.49-.07-.31.87-.03.55-.47-.37-.35-.77-.55-.21-.7.67-.35-.2-1.24-.82-1.05-.01,1.15-.04,3.45-.05,4.6-.42.13-.85,2.61-.29,1.64ZM101.2,218.25c.26-.05.15-.67.45-.56.34.07.25-.51.28-.72-.67.09-1.42-.02-1.96.36-1.06.78.54,1.28,1.23.91ZM62.81,217.97c-.21-.35-.64-.84-.74-.14.08.04.68.36.74.14ZM120.43,217.63c-.04-.18,3.69-2.76,2.37-2.78-.91-.47-2.34,1.86-3.02,2.4.1.69.09.96.65.38ZM113.78,217.67c.14-.04-.49-.83-.6-1h-.95c-.24,1.1.83,1.27,1.55,1ZM144.94,217.31c-1.37-2.43-5.1-7.99-6.76-10.84-.73-.97-.86-2.44-2.51-2.06-1.65.45-1.25.84-3.16,2.45-1.33,1.69-1.82,3.49-3.19,5.2-.3.73-.94.92.39,1.08.69.12,1.97.4,2.6.49.65-.81,1.62-3.13,2.3-2.95-2.39,3.67-2.87,2.74,1.52,3.85,2.67.54,6.27,2.1,8.82,2.78ZM130.72,212.96c.08-.28,2.09-4.06,2.17-3.31-.2.39-1.88,3.53-2.17,3.31ZM59.43,217.24c-.74-1.44-.46-3.87.03-5.5q.17-.51-.11-.87c-1.45-1.61-.09-4.1-.07-5.64-1.12-1.31-.67-4.04.33-5.43-.14-.13-.74-1.35-.81-1.08-.28,4.19-.66,9.15-.96,13.22-.07,1.24-.45,5.59-.32,5.21.09.09,1.84.17,1.92.08ZM62.72,217.19c.12-.03.08-.51,0-.56-.13.06-.62.89,0,.56ZM56.91,217.13c.54-7.18,1.49-17.26,1.79-24.43-.23-1.19.16-2.19.33-3.31-.29-1.44-.69-3.59.25-5.07.44-.54-.14-.92-.32-1.41-.36-2-.53,3.35-.74,4.14-1,7.93-1.5,15.09-2.26,22.58-.05,1.49-1.03,6.97-.59,7.54.05.06,1.57.04,1.55-.03ZM54.7,217.02c.09-.32.24-.85-.39-.7-.51.11-1.31-.28-1.76-.35-.3.79-.4,1.14.86,1.1.97.06,1.23.05,1.29-.05ZM115.83,217.01c.95.07,1.29-1.56.6-1.55-.3.04-1.51.34-1.81.38-.44-.17-.19.86-.11,1.12.05.11.91.16,1.32.04ZM51.81,216.9c.3-1.55.14-1.28-1.26-1.54-.95-.38-.64.62-.86,1.18-.04.41-.1.38,1.07.43.93.04,1.01.03,1.05-.08ZM69.07,216.87c.22-1.16-.31-1.16-1.37-1.14-.2.72.5.6.28,1.27.22-.02,1.07-.01,1.09-.13ZM99.32,216.76c.03-.25.28-.55-.19-.49-.47.05-2.71.1-1.19.61.29.13.93.09,1.32.08l.06-.2ZM49.12,216.86c2.8-14.62,6.62-32.83,9.48-47.7.58-3.59-.38-.5-.81,1.73-2.82,12.33-5.68,23.85-8.38,35.98-.64,2.83-1.26,5.47-1.9,8.23-.43,1.71-.72,1.93,1.61,1.75ZM66.84,216.83c.77.03.38-.87.35-1.31-.55.04-1.23-.02-1.58-.24-.11,1.11-.41,1.87,1.23,1.55ZM141.33,216.75c-3.99-1.56-7.41-2.2-11.7-2.97-2.25-.09-3.02-1.44-4.59.05-.73.72-.32.44.46.59,5.72.41,11.19,1.28,15.83,2.33ZM107.28,216.12c.15-.79-.46-.95-.83-.62.14.26.99,2.1.83.62ZM101.68,216.5c1.7-1.02-1.53-.59-1.69-.2,0,.24,1.06.37,1.69.2ZM120.55,215.74c1.51-1.33.18-.87-1.07-.87.14.84-.19,2.48,1.07.87ZM112.68,216.31c.49-.04-.47-1.08-.51-1.14-.14.17-.24,1.49.51,1.14ZM113.82,216.21c.29-.75-.17-1.66-.97-1.16.06.09.5,1.37.97,1.16ZM54.72,215.86c.14.08.21-.71.17-1.06-.38-.11-1.83-.63-2.16-.55-.01.44-.57,1.78.41,1.61.55.13,1.04.11,1.57,0ZM159.28,215.7c.09-.22-.57-1.59-.82-1.75-.21-.02.34,2.32.82,1.75ZM117.53,215.4c.46-.47.06-.66-.4-.48-.14.2,0,1.27.4.48ZM115.36,215.3c2.83-.6-.81-.47-1.08-.34-.13.68-.03.6,1.08.34ZM68.84,215.25c.08-.03.05-.58-.06-1.28-.06-.37-.06-.37-.21-.36-.13.02-.93.03-1.04.09-.14.18.13,1.14.15,1.46.07.12.88.18,1.17.08ZM66.88,215.1c.44.14.2-1.61.06-1.67-.17-.11-1.27.09-1.45.16-.25.93.44,1.81,1.39,1.51ZM160.86,214.93c1.98-.99,4.16-1.95,6.33-3.06,1.03-.5.95-.39.34-1.03-.85.39-6.05,2.81-7.73,3.75-.2.63.47.72,1.05.34ZM52.03,215c.06.11.23-1.28.3-1.76.03-.23.11-.19-.72-.33-1.54-.44-1.16-.3-1.56,1.69.3.32,1.59.66,1.98.39ZM124.11,214.22c.98-.79,1.74-1.34.13-1.43-.19-.03-.2-.03-.83.64-.41.43-.63.7-.61.75-.09.11,1.11.2,1.31.04ZM54.93,214.2c.08-.17.25-1.73.24-2.25-.43,0-1.2.03-1.47-.13-.49-.2-.54-.19-.62.13-.03.15-.36,1.76-.2,1.79-.03.08,1.87.71,2.05.47ZM122.1,214.12c.63-.85,2.35-1.53-.13-1.56-1.67-.33-2.11.35-2.79,1.53-.25.26,3.01.2,2.92.04ZM160.8,213.43c4.98-2.57,10.83-4.93,15.29-7.52.12-.91-2.03.64-2.52.71-1.8.84-6.25,2.97-7.73,3.86-1.79.54-5.13,2.34-6.44,2.96-.04.91.46.47,1.4,0ZM63.6,213.64c.22-.47,1.68-3,1.41-3.17-.58-3.4-.51-8.01-.81-11.46-.06-.49-.15-.24-.58,1.55-.47,1.98-.31,1.4-.3,4.28.23,2.67-.22,8.33.28,8.79ZM68.3,213.16c.56.14.18-1.53.17-1.77-.23.17-.89.1-1.16.07-.08.05-.05.53.1,1.45.07.41.5.38.89.24ZM66.78,212.94l.16-.1c.04-2.09-.1-1.43-1.63-1.56-.33.45.12.4.09.9-.16,1.25.69.91,1.39.76ZM128.82,212.54c.64-1.11,2.42-3.77,2.62-4.62-1.09.79-4.99,4.54-4.86,4.55.23.2.7.17,1.19.31.76.1.63.34,1.05-.24ZM142.84,212.58c.27-1.51.45-6.46.33-7.36-.97-.24-4.4-.9-5.51-.64,1.6,2.4,3.45,6.16,5.18,8ZM52.4,212.51c.2-.29.33-1.71.34-2.06-.27-.12-1.53-.06-1.86-.1-.06.32-.51,1.89-.25,1.83.17.13,1.3.6,1.77.33ZM126.38,212.16c.19-.22.71-.51.55-.69-.23-.16.1-.55.23-.76.22-.3,2.11-3.48,1.22-1.66-.49.75-1.13,1.59-1.27,2.32-.56.73,5.28-4.96,5.51-5.12,1.09-1.21,3.12-2.01-.65-1.7-.2.04-.13-.03-3.68,3.77-2.22,2.23-2.02,2.49-2.96,3.31-.14-.1-.61.5-.61.6.29.1,1.22.5,1.65-.05ZM125.27,210.8c1.98-1.91,2.29-3.5,3.54-5.21.1-.04.17.05.13.18-.04.12-.92,1.55-1.11,1.8-1.88,2.95,2.5-2.36,3.52-3.27-.21-3.54-.46-6.86-1.19-10.5-1.65-3.53-4.04-7.28-5.73-10.95-3.72-7.01-6.97-14.48-10.03-21.78-.4-.85-2.52-6.32-1.04-1.26,2.16,9.04,3.94,18.63,4.92,27.81.49,3.37.81,6.85,1.23,10.25.18.54-.01,2.3.56,1.74-.32,1.18-.16,2.07-.02,3.71.24,1.9.4,7.41.49,8.41,3.06.47,2.7.61,4.05-2.09.86-1.14,2-5.1,2.74-5.28-.47,2.25-6.1,10.87-2.07,6.44ZM121.79,211.6c1.51-2.66,3.54-7.53,4.93-10.31-.7,2.72-3.13,8.03-4.93,10.31ZM120.89,210.07c.37-1.33,4.05-9.96,4.77-11.12.21.36-.24.84-.5,1.52-1.2,2.44-3.07,8.02-4.27,9.6ZM120.62,207.41c.64-2.82,2.68-7.31,3.38-10,.6-1.91.47-.06.06.69-.56,2.05-1.49,4.22-2.14,6.21-.34.51-.76,3.11-1.3,3.11ZM120.69,202.56c-.03-.07.19-1.01.35-.77.08.17-.24,1.11-.35.77ZM121.06,201.39c.74-2.32,1.53-5.47,2.26-7.72-.33,1.92-1.17,6.16-2.26,7.72ZM120.3,198.82c0-.06,0-.09.03-.07.04.02-.02.22-.03.07ZM120.41,198.45c.54-1.69,1.4-4.68,1.91-6.5-.06,1.59-1.3,5.38-1.91,6.5ZM120.14,194.22s.07-.22.1-.16c0,.02-.07.22-.1.16ZM120.29,193.67c.31-.67.64-2.79,1.01-3.09-.14.44-.73,3.05-1.01,3.09ZM120.17,189.13c.02-.13.05-.27.08-.32.11-.09-.13.89-.08.32ZM54.98,211.49c.5.05.32-1.28.44-1.53.05-.39-1.65-.57-1.91-.68-.32,1.57-.76,2.54,1.47,2.2ZM60.31,211.42c-.21.43.97-14.85-.74-10.39-.27.82-.65,2.75.12,3.76.3.43.31.5.1,1.08-.82,1.75-.58,4.33.52,5.55ZM62.51,211.18c0-.16-.71-.55-.54-.67.03-.08.08-.09.28-.06.45.1.46-.38.1-.54-1.29-.69,1.04-.39,0-.99-.18-.05-.51-.35-.51-.47,0-.11.1-.15.46-.17.74-.1-.57-.5-.46-.68-.06-.39,1.11-.12.45-.57-.98-.54,1.33-.85-.88-1.11-.01,1.28.06,4.96.1,5.22.12.24.89.09,1,.05ZM169.41,210.76c.8-.57,2.61-.82,2.19-1.8-.95.32-2.38,1.14-3.06,1.41.13.4-.07.56-.24.75,0,.18.18.13,1.11-.36ZM67.84,211.02c.09-.09.37-.23.52-.31.04-1.76-.05-1.2-1.27-1.33.09.57-.07,2.19.75,1.64ZM66.57,210.76c.35-.22.12-.95.11-1.32-.42.01-.49-.06-.79.55-.67,1.11-.15,1.01.68.77ZM52.8,209.82c.02-.11.78-1.75-.27-1.58-.29.03-1.05-.39-1.18-.23-.51,1.71-.56,2.24,1.45,1.81ZM65.54,209.66l.13-.25c-.53-.56.3-.16.43-1.02.47-.91-.34-.41-.85-.44-.06.31-.09,2.83.29,1.7ZM166.81,209.31c4.41-2.22,9.2-4.52,13.71-6.53,2.58-.68-9.3-3.86-10-3.94-5.22-1.33-10.36-2.39-15.36-2.91-.62.12,1.2,1.78,1.42,2.22,1.47,1.4,9.1,12.37,10.23,11.16ZM165.05,209.32c-3.69-4.43-7.21-8.74-10.94-13.25-2.24-.85-4.75-.55-7.27-.82-1.99-.36-2.12,1.16-2.75,0-1.14-5.42-2.05-12.1-3.93-17.29-7.25-10.39-14.73-22.26-20.66-32.92-.66-1.17-1.46-2.54-2.15-3.73,3.1,8.96,6.66,19.54,8.7,28.81,1.2,5.1,2.62,11.61,3.66,16.62.91-2.62,2.09-6.38,2.54-9.46.51-.33.17.76.05,1.36-.45,2.26-1.37,5.21-2.11,7.39-.86,2.44.4,5.87.71,8.32,1.57-3.11,2.49-7.65,3.46-10.45-.28,3.19-1.78,6.78-2.94,9.9-.76,1.42-.15,2.43-.03,3.75.29.89.82-1.77,1.32-2.74,1.15-2.78,1.92-5.56,2.85-8.26-.35,3.05-2.25,7.24-3.49,10.52-1.1,1.88-.07,4.49-.16,6.52.13.48,2.75.17,2.98.13,1.19-2.29,3.2-7.03,4.22-9.77.9-.78-.6,2.14-.69,2.48-1.04,2.67-2.08,4.74-2.93,7,1.89-1.17,4.9-4.95,5.59-7.7.56,0-1.5,3.88-1.1,3.39,3.95-4.03,6.47-4.86.99-.22-1.52,1.06-2.47,2.91-3.27,4.46-.83.87,1.11.44,1.62.61,7.88.59,17.73,2.98,25.73,5.31ZM143.58,204.04c.27-.7.7-2.19,1.06-2.79.2.04,0,.83-.41,1.66-.27.23-.37,1.42-.64,1.13ZM139.59,203.57c.13-.69,2.01-4.25,2.6-5.1.28.38-.84,1.79-1.09,2.52-.66,1.14-.87,2.07-1.51,2.58ZM133.13,203.03c1.84-3.58,3.32-8.62,4.94-11.53-1.21,3.57-3.02,8.77-4.94,11.53ZM132.07,201.56c1.34-3.89,3.19-8.52,4.48-12.22-.09,2.05-1.49,4.65-2.07,6.53-.67,1.38-1.5,4.86-2.42,5.69ZM130.75,190.39c0-.09.17-.56.22-.61.07-.11-.07.91-.22.61ZM131,189.55c.54-2.12,2.04-7.04,2.78-9.28-.22,2.25-1.79,7.37-2.78,9.28ZM129.45,182.29c-.06-.12.44-1.55.23-.48-.07.19-.04.67-.23.48ZM129.97,180.12c.53-2,.73-4.29,1.11-6.15.5.48-1.07,7.41-1.11,6.15ZM128.39,177.85c.02-.13.12-.6.12-.27.03.35-.18.76-.12.27ZM128.56,176.8c.09-.92.67-4.72.97-4.99.07.62-.8,5.87-.97,4.99ZM127.35,172.78c0-.44.46-3.12.57-3.3.11-.02-.32,4.03-.57,3.3ZM55.44,209.26c.52-2.18.24-1.73-1.57-2.26-.4,1.82-.62,2.25,1.57,2.26ZM67.87,208.98c.67-.18.18-2.1.13-2.11-.85-.11-1.05.49-1.3,1.23.61.54-.09,1.3,1.17.89ZM66.58,208.81c.11-.29-.19-.03-.17.08,0,.07.11.02.17-.08ZM53.08,207.83c.09.05.72-2.04-.12-1.75-.23,0-.99-.31-1.17-.27-.51,1.43-.37,2.09,1.29,2.02ZM66.51,207.35c.27-.6.11-.72-.08-1.11-.07-.29-1.11-.21-1.36-.31.09.34-.28,1.94.63,1.6.71-.15.49.53.8-.17ZM55.73,206.89c.05-.24.3-2.69.28-3.06-.44.21-1.43-.37-1.64-.14-.13,1.74-1.36,3.45,1.36,3.2ZM67.8,206.41c.22-.02.31-.28.5-.16.18.18.33-.37.03-.31-.27.07-.59.05-.81-.01-.18.34-.33.71.28.48ZM66.94,205.82s.48-1.31.4-1.33c-.42-.03-.71-.04-.57.77.06.31-.02.78.17.56ZM76.14,205.42c1.72-7.45,1.53-17.1-2.14-23.79-.81-.02-3.24.08-3.47.2-.27,1.9-.1,4.87-.27,7.03-.7,5.51-1.12,11.25-2.57,16.58,2.09-.39,1.15-1.29,2.9-5.69,1.03-2.8,1.26-4.58,2.19-6.76-.42,2.82-2.14,7.44-3.04,10.37-.07.71-1.23,2.12.35,1.65-.05.61,2.94-7.38,3.26-9,.22-.88.27-1.01.41-1.01.08,1.58-.9,3.29-1.44,5.26-.48,1.45-1.26,3.19-1.7,4.61-.11.18.86.18,1.16.17.5-.42,1.52-4.81,2.37-5.8.2.56-.89,2.79-1.47,4.38-.93,1.91-.44,1.51.66,1.58.17-.26,1.01-3,1.12-2.65-.04,2.85-2.35,2.74,1.59,3.23l.1-.36ZM68.24,204.85c0-.06,0-.09.03-.07.04.02-.02.22-.03.07ZM68.34,204.14c.93-3.45,2.08-8.12,3.1-11.57.06,1.37-1.25,5.13-1.58,6.72-.49,1.4-.84,3.94-1.52,4.84ZM70.17,193.79c0-.23.06-.01.03.07-.01.05-.02.02-.03-.07ZM70.27,193.14c0-.1.24-.99.25-.92-.03.04-.07,1.17-.25.92ZM71.48,192.28c.13-.37.27-1.66.47-1.88.09.11-.28,2.21-.47,1.88ZM70.52,192.03c0-.14.32-1.99.33-1.31-.06.48-.33,1.54-.33,1.31ZM70.92,189.93c0-.06.02-.12.05-.14.13-.01,0,.45-.05.14ZM53.51,205.63c-.02-.51.8-2.18-.15-2.08-.42,0-.8-.3-1.07-.3-.06.44-.83,2.45.2,2.3.46.12.69.31,1.01.08ZM66,205.69c.44.07.36-1.12.28-1.4-.12-.08-.9-.03-1.03-.14-.55-.52-.22,1.3-.21,1.43.06.12.61.19.96.12ZM62.45,205.57c-.24-.29-.91-.62-.15-.75.11,0,.21-.2.15-.31-.2-.22-.97-.6-.24-.74.95-.35-1.04-1.02-.11-1.2.72,0-.06-.57-.16-.81.04-.28.55-.1.51-.52-.04-.22-.83-1.08-1.04-.73-.16-.66-.04,5.15.02,4.81.09.03.97.53,1.02.25ZM177.74,205.22c1.11-.47,3.6-1.73,4.38-2.2-.26-.52-.16-.32-2.43.72-.98.52-2.06.9-2.58,1.27.01.45.18.43.64.2ZM67.04,204.09c.78.13.51-1.04.39-1.37-.03-.04-.61.15-.76.25-.06.21-.19,1.56.37,1.12ZM66.19,203.74c.29-.88-.57-1.27-1.33-1.14,0,.22.02,1.03.07,1.11.13.08,1.01.2,1.26.03ZM137.15,203.79c.1-.1,1.18-1.89,1.1-2.23-.18.43-4.26,2.9-1.1,2.23ZM56.07,203.43c0-.08.2-1.53.14-2.06-.28-.12-1.13-.37-1.43-.42-.08,1.12-1.06,2.62.66,2.53.41-.04.54.28.62-.05ZM53.87,203.01c.14-.09.19-.82.18-1.2-.42-.02-1.09-.42-1.37-.35-.08.09-.28.94-.28,1.2-.05.41,1.43.55,1.47.35ZM182.91,202.63c.72-.27.3-.74-.2-.38-.39.24-.57.91.2.38ZM67.02,202.35c.57-.17.33-.57.3-1.14-.16-.83.01-1.35-.39-1.19-.12.08-.46.11-.55.2.07.21-.12,2.92.64,2.12ZM65.74,202.14c.59,0,.25-.94.24-1.32-.2-.07-.94-.07-1.18-.13-.08.63-.33,1.95.94,1.45ZM68.08,201.05c1.15-6.94,2.31-16.6,1.6-23.38-1.05,3.34-2.54,9.88-3.61,13.53-.5,1.77-.89,3.52-1.37,5.18-.58,2.22-.5,1.3-.12,2.13-.16.44.95.19,1.12.14.17.19-.36-4.46-.24-4.05.51-.23.24.31.49,1.81.06.53.13.98.16,1,.2.03.53-.1.77-.06.02-1.35-.85-6.06-.47-6.54.76.06,1.07,13.77,1.67,10.25ZM184.92,201.6c.82-.5,2.03-1.17,2.79-1.69-.89.47-2.47,1.03-3.26,1.64-.32.36-.17.38.47.05ZM180.88,201.52c-21.3-20.67-40.01-44.55-56.16-69.43,1.48,3.28,3.38,7.09,4.72,10.44,6.74,16.73,11.81,34.47,15.16,52.16,12.29-.06,25.08,2.36,36.28,6.83ZM154.52,193.5c.08-.87,3.08-4.69.98-1.36-.61.71-.59,1.33-.98,1.36ZM152.43,192.39c.21-.4,1.72-4.3,2.42-4.74-.53,1.63-1.83,4.14-2.45,4.92l.03-.18ZM147.01,191.58c.37-.81,1.66-3.68,2.07-4.43-.34,1.35-1.21,3.33-2.11,4.56l.04-.13ZM144.93,191.46c.09-.29.14-.39.16-.3.04.1-.24.65-.16.3ZM149.98,191.27c.28-.74,2.09-5.03,2.55-5.77-.05,1.2-1.98,5.27-2.55,5.77ZM145.16,190.9c0-.09.15-.46.18-.43.04-.03-.16.5-.18.43ZM145.38,190.26c.89-2.61,3.19-8.92,3.99-11.68-.19,2.42-2.89,9.91-3.99,11.68ZM144.22,188.52c.05-.24.28-1.11.41-1.25.09-.05-.5,2.1-.41,1.25ZM144.77,186.69c1.08-3.51,2.34-7.26,3.15-10.4-.24,2.75-1.35,5.53-2.21,8.14-.49,1.5-1.01,3.09-.94,2.26ZM149.7,185.41c.05-.48.44-.96.18-.23-.14.34-.22.43-.18.23ZM149.98,184.56c.01-.16.74-2.75.76-1.95,0,.18-.65,2.49-.76,1.95ZM144.19,183.95c.61-2.5,1.87-7.35,2.32-9.86.33,1.08-.66,3.89-.85,5.21-.44,1.29-.69,3.82-1.47,4.65ZM143.46,181.12c.02-.21.11-.64.2-.84.13-.25.05,1.19-.2.84ZM143.89,179.03c.25-1.42.92-6.28,1.14-7.94.75-1.22-1.04,9.36-1.14,7.94ZM142.35,176.73c-.03-.1.07-.47.13-.47.1,0-.05.72-.13.47ZM142.52,175.7c.28-1.21,1.23-5.68,1.49-6.83.46.2-1.22,7.55-1.49,6.83ZM141.12,174.19c.02-.11.06-.25.09-.31.05-.1.06-.09.08.07.08.35-.23.66-.17.23ZM141.33,173.28c.34-1.12,1.06-5.29,1.55-6.22.22-.11-.92,5.84-1.55,6.22ZM141,168.74c.34-1.21.33-3.65.69-4.11.19.75-.39,4.28-.69,4.11ZM139.45,167.74c.04-1.19.73-4.32.68-5.11.03-.35-.05-.7.18-.49.15,1.52-.48,4.85-.86,5.59ZM138.25,163.12c-.13-.81.17-4.01.45-4.79.18-.57-.18,3.19-.19,4-.01.39-.1,1.48-.26.79ZM136.61,159.83c-.13-.33-.21-2.7.16-2.88.08-.04,0,2.47.02,3.12-.01.23-.12.01-.18-.24ZM54.23,201.12c.06-.18.07-.72.08-.97-.48.03-1.03-.16-1.33-.38-.01.02-.05.13-.07.26-.13.65-.15.85-.13.92,0,.13,1.33.62,1.45.17ZM56.25,200.82c-.1.07.84-2.61-.26-2.38-.25,0-.56-.18-.74-.24-.18.1-.26,1.3-.34,1.7-.37.84.86.91,1.34.92ZM65.79,200.3c.16-.13.02-.98-.03-1.15-1.04-.26-1.26-.1-1.05,1.05.26.19.85.26,1.08.1ZM62.35,200.21s-.04-.09-.08-.11c-.37-.17.1.36.08.11ZM61.54,200.01c0-.08-.1,0-.1.03.01.04.11.03.1-.03ZM66.85,199.65c.52-.2.05-.92.1-1.45-.1-.74-.01-.53-.5-.46-.51.09-.3.15-.3.76.13,1.42.11,1.39.7,1.15ZM60.4,199.61c.06-.44.18-4.41-.21-4.72-.39-.19.01-.46.17-.68-.11-1,.1-4.31-.28-4.61-.98-.08-.69,2.12-.87,3.07.12.4.26.79.46,1.24.63,1.06-.55,1.1-.45,2.34-.04.9.18,3.41,1.17,3.36ZM54.4,199.62c.52-1.74.1-1.01-.89-1.71-.23-.55,1.08.2,1.2-.07-.05-.29.71-2.09-.07-2.01-.27,0-.63-.29-.81-.27-.04.04-.36,1.53-.44,2.03-.29,1.66-.85,2.38,1.01,2.03ZM63.42,199.25c.79-3.46,2.31-7.61,2.72-10.97-1.02-4.9-1.05-10.6-1.85-15.92-.05-2.49-2.17-12.56-.71-11.65.57,9.39,1.92,17.51,2.73,26.64.57,1.53,2.17-10.73,3.34-10.31-.25-9.03-1.78-19.33-2.8-28.37-5.24-8.02-3.22-5.88-3.52,3.02.44.36.11.92.04,1.41-.19,1.17-.02,2.09-.08,3.22-.14,1.96.41,3.3-.75,4.43.5,12.1-.02,28.39.88,38.5ZM64.03,195.28c-.22-5.83-1.08-13.68-.92-19.34.52,4.82.53,8.15.89,12.92-.13,1.43.86,6.37.03,6.42ZM65.25,190.74c-.74-8.91-2.03-18.53-2.4-27.25.93,4.9,1.06,11,1.68,15.79-.05,2.95,1.51,9.01.72,11.46ZM62.39,199.3c.04-.41-.2-.27-.42-.54-.68-.58.97-.16.24-.78-.26-.13-.53-.41-.49-.5.04-.1.05-.1.4-.11,1.06-.21-1.21-.79.02-1.06.63-.03-.34-.65-.27-.85,1.21-.19-.15-.87-.5-.54-.04.12-.04,4.36,0,4.43.25.02,1.07.49,1.02-.05ZM56.56,197.99c.1-.41.28-2.24.27-2.68-.58-.02-1.8-.37-.38-.48.86.18.54-1.59.67-2.18-.31.03-.85-.24-1.07-.17-.06.15-.37,2.35-.41,2.52.09,1.13-1.35,3.7.92,2.98ZM55.08,195.35c.39-1.18.05-1.06-.93-1.3,0,.02-.49,1.18-.06,1.16.25.05.73.34.98.15ZM59.3,194.63c.24-.24-.23-.73-.2-.1,0,.22.05.25.2.1ZM62.34,194.35c-.08-.25-1.06-.73-.22-.84.18-.03.2-.04.22-.2.01-.15,0-.18-.18-.27-1.1-.68.78-.39-.02-1.03-1.22-.81.83-.39,0-1.03-.65-.3.12-.65-.25-.85-1.1-.81-.39,3.85-.5,4.01.19.04.84.49.94.22ZM55.33,193.75s.4-1.82.19-1.68c-.27-.12-.66-.2-.89-.45-.11.26-.31,1.29-.39,1.77-.06.39.86.49,1.09.35ZM57.14,192.04c.26-.34.19-1.38.32-1.8.12-.37-.55-.22-.71-.42-.54-.53-.5,2.1-.55,2.17.05.16.78.26.94.04ZM129.83,191.59c-.46-3.21-1.04-6.42-1.73-9.75-.05-.18-.38-1.78-.58-2.26.23-.14-3.19-.1-3.81.07,1.45,3.09,4.27,8.98,6.12,11.94ZM55.72,191.46c.07-.33.38-2.34.38-2.45.05-.19-.59-.5-.39-.62.8.07.57-.98.77-1.67-.1-.12-.57-.48-.42-.56.54-.11.6-.06.63-.94.65-3.77.43-2.26,1.4-8.35.27-2.39.96-4.23.59-5.4-.46,1.44-1.11,5.76-1.5,7.35-.7,3.45-1.39,7.13-2.12,10.62-.39,1.87-.43,2.04-.41,2.07.01.02.25.04.53.05.49.01.51,0,.54-.11ZM57.4,189.54c.33-1.29,1.71-10.83,1.1-12.56-.09-.29-.96,5.77-1.22,8.16-.29.77-.66,3.73-.68,4.06-.11.57.59.38.8.34ZM60.23,186.84c-.04-5.29-.71-.36-.68,1.59.72,1.36.77.94.68-1.59ZM62.32,189.09c.18-.51-1.44-.88-.02-.98-.01-.22.07-.49-.19-.55-.35-.1-.79-.79-.14-.67.17.04.36.15.33-.18.06-.35-1.04-.92-.2-1,.18,0,.2,0,.2-.16-.02-.29-.85-.61-.26-.8.58-.17-.52-.46-.73-.35,0,1.37-.02,3.57.05,4.59.25-.02.9.43.96.1ZM60.16,182.84c0-3.12-.31,1.08-.23,1.05.31.04.2-.04.23-1.05ZM62.3,183.57c.11-.34-.95-.41-.73-.74.03-.12.54-.09.7-.09-.01-.17.06-.44-.15-.47-.43-.14-.69-.57-.09-.62.21-.03.24-.05.25-.18,0-.29-.66-.57-.55-.71-.07-.3.53-.13.5-.44-.02-.35-1.17-.76-.24-.91.27.07.22-.34,0-.37-1.36-.22-.7.08-.81,2.2.17,2.66-.18,2.21.65,2.45.4.13.46.12.46-.13ZM59.56,182.08c.03-.58.35-2.36.13-2.67-.23-.32-.61,4.01-.13,2.67ZM71.99,180.74c.53-.21,2.14.18,2.25-.56,2.32-3.37,3.92-6.61,5.23-10.46.55-1.98.71-1.45-.57-3.28-1.16-1.65-2.39-3.54-3.32-4.91-2.61-3.61-5.31-8.39-8-11.51.82,7.23,1.88,14.6,2.42,22.55.19,2.12.36,5.99.41,8.05.29.51,1.01.15,1.59.12ZM78.84,180.9s-1.26-.02-1.32.03c-.06.02,1.39.04,1.32-.03ZM79.31,180.87s-.09-.01-.13,0c-.09.04.22.04.13,0ZM80.21,180.85c.54-.07-.51-.06-.48,0-.04.06.16.06.48,0ZM81.49,180.76c-.13-.03-.58.02-.14.02.17,0,.23-.01.14-.02ZM83.3,180.68c.1-.07-1.66.03-1.57.06-.1.06,1.4,0,1.57-.06ZM84.14,180.64c-.04-.07-.32-.07-.36,0-.06.07.42.07.36,0ZM85.03,180.64c.29-.05.22-.07-.2-.06-.88.08-.11.15.2.06ZM77.34,180.37c2.79-.16,8.18-.32,10.49-.51.33-.11-.99-1.58-.55-1.6.51.03.95,1.17,1.37,1.59,5.03-.11,9.85-.27,15.02-.47,1.03-.07,1.02.15,1.34-.8.03-.46.65-.88.38-1.2-.12-.27-.42-.04-.47-.25.02-.27.4-1.06.33-1.17-.24-.06-.98.37-.78-.18-1.6-.16-4.56.37-6.45.62-1.4-.14-29.65,4.41-20.68,3.97ZM104.19,177.02c-.2-.29.53-.51.24-.07-.09.11-.18.13-.24.07ZM107.91,179.94c1.39-.23,7.99-.17,8.67-.48-2.33-.28-7.64-.08-9.68.49,0,.1.47.09,1.01,0ZM105.76,179.89c.58-.21-1.84-.04-1.79.02-.04.05,1.55.03,1.79-.02ZM76.09,179.48c13.05-2.97,25.57-4.45,38.71-5.07.97-.09.9.12.83-.52-.21-1.37-.59-3.43-.85-4.97-1.08-6.05-2.66-12.09-4.6-18.07-.57-1.05-1.02-4.51-2.21-4.32-6.12.62-14.01.19-20.14.7,1.66.2,14.41-.31,17.81-.3,2.29.1,2.55-.34,2.49.44-6.78.33-19.14.25-26.35.48-1.85,0-2.16.01-2.16.15.45.8,1.01,2.21,1.26,3.15,1.63,5.38.57,11.55-.37,16.81-.74,2.24-1.9,5.01-2.84,7.29-1.99,4.1,1.31-2.06,2.06-3.46,1.75-2.96-1.88,4.39-2.47,4.97-.34.94-3.37,3.6-1.19,2.72ZM77.7,178.29c-.04-.06.33-.7.42-.73.26-.06-.3.98-.42.73ZM79.5,178.05c0-.09.46-.84.58-.94.29-.17-.61,1.47-.58.94ZM78.27,177.35c1.26-2.99,5.27-11.06,6.29-14.04-1.14,4.21-3.87,10-6.29,14.04ZM80.46,176.47c1.97-3.7,4.91-8.95,6.09-12.44-1.06,4.31-3.59,9.12-6.09,12.44ZM87.26,175.9c.04-.17,1.17-1.81,1.15-1.6.1-.03-.81,1.75-1.15,1.6ZM83.41,175.01c0-.07.14-.23.17-.19.04.06-.15.42-.17.19ZM85.44,174.92c1.7-2.56,3.86-6.43,5.02-8.82-.8,3-3.19,6.65-5.02,8.82ZM92.84,174.67c1.47-2.33,4-6.46,4.88-8.8-.1,2.12-3.2,7.25-4.88,8.8ZM90.66,174.48c0-.3.97-1.25.3-.26-.15.15-.12.35-.3.26ZM98.02,174.22c1.61-2.15,3.53-5.18,4.5-6.74-.3,1.49-2.8,5.45-4.5,6.74ZM84.02,174.09c1.26-2.43,3.18-5.99,4.5-8.51-.98,2.77-2.81,6.31-4.5,8.51ZM101.32,173.66c.88-1.52,2.98-5.25,3.63-6.21.05.88-1.56,3.05-1.88,3.79-.52.88-.92,1.42-1.4,2.2-.13.26-.27.43-.35.22ZM91.32,173.46c1.13-2.01,3.63-5.65,4.78-8.19-.6,2.45-3.21,6.55-4.78,8.19ZM96.19,173.5c1.2-1.86,3.28-5.01,4.34-6.87.03,1.07-1.33,2.57-1.52,3.12-1.19,1.74-1.91,3.04-2.82,3.75ZM106.39,173.49c.93-2.19,2.89-6.03,4.02-7.98-.68,2.21-2.81,6.14-4.02,7.98ZM104.43,173.14c-.05-.12.6-1.15.68-1.08.02.06-.6,1.49-.68,1.08ZM89.29,172.93c.84-1.59,2.68-4.26,3.38-6.14.13-.29.37-.94.48-.58-.82,1.94-2.4,5.11-3.85,6.72ZM108.66,172.38c-.07-.07.36-.71.47-.71.15-.06-.33.95-.47.71ZM110.89,172.27c.14-.57,1.21-2.13,1.58-2.94.26.36-.95,2.79-1.58,2.94ZM105.17,171.92c.54-1.01,1.99-4.19,2.77-5.04-.09.67-2.21,4.69-2.77,5.04ZM109.29,171.41c.85-1.51,1.82-3.76,2.44-4.54.24.3-2.17,4.61-2.44,4.54ZM80.46,170.49c.41-.99,1.18-2.67,1.56-3.5-.3.82-1.02,3.02-1.56,3.5ZM59.28,179.16c.18-.39.24-.58-.13-.5-.09.24-.25,1.53.13.5ZM125.7,179.08c.88-.1,1.98.1,1.51-.35-.22.01-4.13-.07-3.8.32.1.11.34.11,2.28.03ZM110.61,179c-.15-.55,0-1.89-.99-1.59.11,1.03-.36,2.04.99,1.59ZM105.96,178.92c.22-.11.27-1.74-.06-1.4.16.42-.91,1.88.06,1.4ZM107.03,178.92c-.32-.46.24-.64.45-.19.08.2.29.32.33.19.21-.24.66-.74-.06-.58-.39.21-.24-.22-.54-.21-.19,0-.18-.12,0-.15.32.05.13-1.03-.05-.86-.62.08-1.14,2.15-.13,1.81ZM111.72,178.93c.08-1.24-.31-1.69-.59-1.54-.33.02-.34.02-.36.16.09.38.03,1.84.95,1.38ZM114.86,178.82c1-.14,1.57.15,1.57-.36-.03-.49-.41-2.95-.59-3.4-1.14-.15-1.53-.16-1.16.99.02.53.96,2.31.14,2.01-.2-.17-.5-2.77-.75-3.01-.43-.18-3.13.02-3.09.3-.26.16-.15.72-.15,1.05.24-.02.37.1.41-.29.06-.36.1-.43.25-.43.21-.01.22-.46.44-.43.32-.13.41,1.67.12,1.59-.15.07-.17.26-.05.67.22.81.24.93.23,1.43.82-.05,1.45-.08,2.64-.12ZM62.19,178.46c.1-.1-.6-.7-.6-.78,0-.15.1-.22.34-.22.79-.04-.4-.71-.34-.88,0-.14.11-.21.31-.21.63.06-.33-.6-.31-.76.05-.44,1-.05.29-.68-.28-.25-.24-.54.07-.54.67-.31-.65-.67-.83-.43-.05.05-.06.54-.04,2.05.02,1.36,0,1.98.08,2.47.33-.04.89.3,1.03-.01ZM124.05,178.34c.6-.06,2.53-.11,3.07-.24.38-3.39-3.29-2.59-5.46-2.96-.12.5,1.15,2.58,1.39,3.32.3-.06.53-.08,1-.12ZM59.89,178.17c.02-.56.59-4.95-.14-3.89-.26.3-.23.2-.43,2.01-.13.71-.25,2.22.56,1.88ZM107.93,176.76c.04-.12-.02-.21-.08-.12-.1.16,0,.3.08.12ZM139.81,175.91c-.23-.81-1.17-4.48-1.37-4.39-.15.28-.15,1.77-.53,2.14.1.15,2.71,4.81,1.91,2.24ZM110.17,176.47c.57-.38-.68-.32-.51-.03.04.1.31.11.51.03ZM108.3,176.07c.81-.06,1.14.05,1.19-.52-1.07.17-2.92-.14-3.55.43.68.24,1.51.08,2.36.08ZM58.9,174.91c.16-.35.6-1.66.13-1.63-.06.07-.2.9-.26,1.54-.07.5.07.24.13.09ZM126.43,174.92c-1.43-6.88-3.24-14.07-5.41-20.73-3.09-8.17.2-7.08-9.63-6.97-1.41-.05-1.7.29-1.77-.39.08-.13.07-.14-.14-.18-.21-.04-.21,0,.05.71.62,1.85.41,1.08,1.34,3.51,2.72,7.27,4.91,11.89,8.32,19.3.63,1.33,1.34,3.29,1.94,4.26.64.12,1.13.13,1.92.23,1.09.1,2.09.33,3.1.42.26,0,.27,0,.27-.16ZM60.05,172.35c-.04-2.55-.24-.59-.38.56.1.69.51,1.36.38-.56ZM62.09,173.2c.03-.31-.74-.66-.19-.92.12-.06.15-.12.15-.26.07-.27-.78-.69-.48-.89,1.3-.16-.5-.68.26-1.07.52-.22-.47-.67-.09-.92.37-.3-.51-.54-.58-.37-.17.23-.06.37-.14.93-.11,1.46.27.3.1,2.21-.04.91-.04,1.14.01,1.19.13.04.97.49.94.11ZM137.6,172.77c-.1-.39.74-2.77.4-3.4-.03-.05-.79-2.86-1.13-3.87-1.8-5.69-4.41-13.64-6.6-19.24.23-.01-1.8-.02-1.4.04,5.16.81-8.02.55-7.34.68-.22.73,1.7,3.27,2.3,4.42,1.58,2.44,3.36,5.63,4.97,8.12,1.87,3.17,4.08,6.72,6.17,9.82.42.5,2.46,4.14,2.63,3.43ZM59.6,170.42c.27-1.57-.12-1.71-.22-.35-.17,1.2-.05,2.98.22.35ZM61.93,168.01c.01-.2,0-.23-.17-.33-.61-.31.62-.82-.05-1.26-.55-.41.46-.51,0-.98-.39-.31.31-1.12-.05-1.35-.44-.19-.4,3.29-.48,4.01.25.04.76.38.75-.08ZM59.87,167.92c.08-.41.3-2.6,0-2.59-.08.44-1.02,3.22,0,2.59ZM80.21,166.81c.81-3.47,1.29-8.17.82-11.75-1.01-.45-4.16-1.46-5.38-1.09-.22.33-.27-.08-.38-.19-.07-.04-.79-.04-.99-.04-.33.82-.09,2.62-.99,2.92-.53-1.03.56-3.03.4-4.71.84-14.54-3.71-30.05-6.8-44.21-.51-1.48-2.05-3.19-3.13-4.77-1.27-1.75-1.13-1.56-1.08.51.17,10.28.19,23.33.35,36.74-.53.51-2.85.13-2.53.31-.33.16,2.1-.1,2.54.1.33.15.01.47.14.67.14.17.14.3,0,.47-.37.38.45,1.1,1.15,2.28,4.02,5.96,7.42,11.01,11.59,17.11.68.61,4.08,6.91,4.29,5.66ZM60.9,163.99c-.15-.13-.08.48-.06.61.02-.12.09-.56.06-.61ZM61.81,163.48c.04-.16-.03-.35-.16-.47-.33-.22-.12,1.04.16.47ZM61.04,162.14c.14-1.98.12-1.79.7-1.77-.24-.45-.61-1.29-.71-.17-.09.56-.09-1.38-.2-1.46-.25.07-.32,2.52-.54,2.97-.17,1.34.57-.51.59-.88.39-1.82-.34,5.3.16,1.32ZM59.91,162.78c.12-.52-.1-.17-.13.07-.05.27.05.21.13-.07ZM61.73,162.53c.08-.09.08-.28,0-.36-.17-.24-.2.65,0,.36ZM59.4,162.12c.11-.61,1.02-2.55-.14-2.64-.29.13-.46,2.88.14,2.64ZM62.7,159.65l.27-.16c-.07-.94.22-2.7-.92-2.02,0,.35-.32,2.98.65,2.19ZM61.56,158.25c-.12-1.81-.31.02-.34.58.34.31.4.41.34-.58ZM59.94,158.8c-.74-1.42-3.57-4.22-4.84-5.79-1.57-1.4-2.87-3.92-3.56-3.42,3,3.3,5.55,6.53,8.4,9.21ZM59.94,156.22l-.03-1.23c-.65-.57.09-.42,0-1.22.1-.72-.39-.55-.1-1.07.23-.38-.52-.53.09-.96-.02-1.28-.03-8.31-.12-8.05-.12-.34-.32-.88.13-1.07,0-.27,0-1.31-.08-1.39-.4-.33-.42-.42-.12-.59.47-.22-.46-.36-.35-.61.06-.32.56-.11.45-.58-.16-1.04.76-1.35,1.54-1.92,0-3.85-.02-6.7-.05-12.72-.05-11.77-.05-15.54,0-15.83-2.1,7.07-4.5,18.58-6.47,26.53-.74,4.32-2.72,9.24-2.75,13.37,1.63,1.92,3.66,4.03,5.31,5.99.73.36,3.02,4.8,2.55,1.37ZM61.45,156.71c.64-.91-1.6-.66-.65.04.16.07.48.05.65-.04ZM62.8,156.64c.15-.07.09-.32.08-.48-1.22-.3-1.11.89-.08.48ZM61.48,155.43c.46-1.04-1.99-.11-.42.06.21,0,.39-.03.42-.06ZM62.65,155.41c.71-.44-.24-.49-.63-.42-.09.4.1.65.63.42ZM80.98,154.1c-.44-3.36-.81-3.57-1.25-.08.37.02,1.41.79,1.25.08ZM61.45,154.22c-.58-.37-.13-.96.42-.85.64.1.3.7.4.98.43.07.67-.02.63-.67,0-.46,0-.48-.13-.51-.49.01-1.67.08-2.16.14-.25.91-.09,1.18.91,1.07l-.07-.16ZM79.41,153.24c.4-.95.22-1.79.73-2.23.22-.46-.87-2.76-1.3-3.06.14-.22-4.17.09-4.14-.06-.33-.3-.1.5-.19,1.31-.03,1.71-.18,2.35-.16,3.92.54.02,1.29.28,1.29-.41.35-1.46.72-3.83,1-4,.31.15-.85,4.11-.74,4.46.09.09.8.13.91.15.35-.15.89-3.99,1.12-4.66,1.04-2.28-.84,5.03-.59,4.8.11-.02.94.44.84-.06.07-.39.71-3.58,1.07-3.99.25.61-.69,3.34-.77,4.08-.2.42.47.31.76.36l.18-.6ZM74.65,152.81c-.27.24.57-3.01.61-3.45.35-1.68.35.23.19.75-.39,1.07-.2,3-.8,2.7ZM61.11,152.61c.37-.16-.55-.18-.52-.1-.01.13.36.2.52.1ZM61.2,151.83c.05-.28.72-.83.08-.88-.44,0-.39-.4.06-.56.28-.08.27-.66-.13-.58-.72-.11.28-.54.25-.85.02-.27-.59-.22-.54-.48.23-.17.87-.54.35-.85-.44-.06.11-.66.19-.86-.15-.3-.79-.25-.22-.72.88-.55-1.21-.71-.1-1.02.85-.14-.33-.6.15-.94.23-.25.11-.29-.36-.29-.93-.03-.24.3-.47.77-.08.22-.08.46-.06,2.82.29,4.08-.51,4.48.76,4.44ZM62.78,151.77c.18-1.13-.08-6.63-.06-7.9-.02-.08-.62-.09-.73-.02-.25.31.47.46.45.7,0,.09-.04.1-.25.1-.96.1,1.08.87-.03,1.01-.62.09.96.83.02.95-.27.06-.32.22-.11.37.38.27.5.59.05.74-.13.05-.15.08-.14.24.01.38.96.69.17.91-.55.13.53.85,0,1.06-.27.1-.21.47-.05.57.25.07.39.49.07.59-.15.07-.17.09-.13.18.23.27.27.84.74.5ZM50.78,148.26c-.23-.4-4.53-5.52-5.21-5.92-.37.55,2.63,3.17,3.22,4.13.8.75,1.77,2.56,1.99,1.79ZM74.95,147.4c.06-1.22.81.43.75-2.19.34-3.66.6-6.66,1.27-10.35.05,3.31-.97,8.62-1.22,11.88.23.13.74.1,1.06.11.34-2.15.85-6.13,1.4-8.1.08,1.28-.59,4.5-.84,6.04-.03.39-.36,1.77-.25,1.95.69.26,1.39-.09,1.38-.9.09-.07.42-4.1.91-3.42.08.43-1.14,4.13-.3,3.15,2.54-3.28,5.14-9.61,5.84-14.13-2.85-3.78-5.88-7.61-8.8-11.34-.31-.34-1.67-2.29-1.73-2.12-.02.03-.06.6-.07,1.27-.11,2.37-.01,5.06-.28,4.88-.04.16-.13-6.98.05-6.32.08-.11.09-.16.05-.25-.07-.13-.45-.63-1.52-1.99-1.34-1.65-2.16-3.15-3.72-5.05-.2.13.86,5.15.07,3.82,0,1.01.56,2.69.82,3.74.16.3-.19-2.77-.16-3.26.11-.28-.57-3.73.04-2.92.43.45.15,6.87.76,8.58,1.95,8.91,3.5,18.07,4.14,27.04.08-.02.31-.07.35-.1ZM74.8,144.57c.04-.39.09-1.6.18-1.75.07-.12.09.32.05.94-.03.97-.21,1.55-.22.82ZM75.03,141.1c.03-3.03.29-5.42.31-8.51.4-4.5.2,5.84,0,7.19,0,.99-.35,3.31-.3,1.32ZM74.15,140.7c-.06-.41-.33-9.2,0-9.17.06,1.04.43,8.73,0,9.17ZM75.44,125.43c-.12.24.13-3.34.44-2.82.11-.22-.03,3.34-.44,2.82ZM72.3,124.43c.1-.13-.44-8.88.27-8.35-.07.64.25,7.42-.27,8.35ZM71.16,121.78c-.15-2.06-.47-6.04-.51-8.05.84-.21.69,8.87.51,8.05ZM51.47,147.37c3.38-13.7,6.57-27.43,9.81-41.04.03-.59-.54-1.21-.04-1.74.2-.34-.02-.5,0-1.08-.05-.66-.09-.82-.19-.69-.78,1.84-3.87,10.05-4.89,12.43-3.27,8.55-6.08,15.96-9.32,24.21-.68,2.17-1.65,1.97.35,3.86.79.84,2.43,2.8,3.22,3.66.31.28.32.52.53.2.41-.58.28.53.54.2ZM76.82,147.35s-.09-.01-.13,0c-.09.04.22.04.13,0ZM77.86,147.35c-.09-.13-1.6,0-.47.03.28,0,.49-.01.47-.03ZM78.57,147.34s-.12-.01-.15,0c-.09.03.28.04.15,0ZM79.66,147.34c-.09-.01-.24-.01-.33,0-.25.03.58.03.33,0ZM80.49,147.33c.07-.14-.82.03-.27.05.13,0,.25-.02.27-.05ZM82.29,147.33c.09-.06-.25-.06-.48,0-.31.08.52.04.48,0ZM85.5,147.28s-.43-.04-1.01-.03c-1.67.01-2.13.03-1.99.08.16.05,2.95,0,3.01-.05ZM86.65,147.22c-.09-.07-.77.02-.98.04.13,0,1.09.04.98-.04ZM87.01,146.58c2.53-.13,7.16-.01,9.06-.27-.11-.5-1.12-1.62-1.66-2.34-3.71.69-22.6,3.43-7.4,2.62ZM118.2,146.65c.92-.33-1.37-.22-4.28-.09.07.07,3.79.15,4.28.09ZM113.47,146.58c-.29-.06-.98-.06-1.01,0-.22.05,1.45.08,1.01,0ZM124.68,146.4c2.66-.25-3.37-.01-3.22-.05-1.24.16,2.4.13,3.22.05ZM136.24,146.31c2.08-.11-.94-.24-1.16-.1.04.41.63.06,1.16.1ZM101.09,146.24c3.76,0,2.92.05,3.16-3.16-2.56-.25-6.97.67-8.81.72-1.09-.1,1.35,2.19,1.47,2.58,1.33-.04,2.55-.08,4.17-.14ZM126.36,146.31c.2-.07-.45-.07-.36,0,.04.06.21.06.36,0ZM128.17,146.28s-.09-.01-.13,0c-.09.04.22.04.13,0ZM79.75,146.13c.34.18,1.49-1.97.93-.68-.83,1.13,3.56-.57,4.15-.44,2.78-.44,5.79-1.21,8.69-1.58.35.04.43-.17.63-.39.11.06.32.17.43.23,7.22-.95,14.09-1.63,21.78-1.17.2.57.26.71-.66.58-.71-.07-4.02-.13-4.11-.07,0,.39.19,3.56.79,3.35-.15-.07,6.17,0,5.77-.11-2.2-8.42-7.25-15.95-10.61-23.81-6.93.33-16.94-.81-23.92-.09,4.79.08,9.25.12,14.77.22,4.2-.19,13.46.6,5.63.63-6.06-.24-14.04-.1-20.04-.45-.33-.04-.34-.05.11.61,1.36,2.31,1.81,5.91,1.53,8.48-1.04,3.92-1.95,7.22-4.04,11-.64,1.13-.84,1.67-1.59,2.71-.82,1.18-.86,1.02-.23.96ZM81.02,144.65c1.9-3.67,3.43-7.93,5.02-10.84-1.07,3.43-3.11,8.08-5.02,10.84ZM82.09,144.52c1.66-3.15,3.94-7.93,5.48-10.5-1.12,3.19-3.57,7.78-5.48,10.5ZM83.89,143.8c1.73-3.03,4.1-7.24,5.76-10.54-1.03,3.37-3.76,7.79-5.76,10.54ZM85.64,143.64c1.25-2.37,3.96-6.76,4.93-8.59-.56,1.94-3.27,6.48-4.93,8.59ZM87.47,143.63c1.84-2.74,3.91-6.18,5.64-9.07-.81,2.43-3.63,6.99-5.64,9.07ZM90.08,142.95c1.57-2.75,4.2-6.76,5.06-8.01-.7,2.21-3.51,6.1-5.06,8.01ZM92.59,142.24c-.12.02.75-1.11.74-.92-.22.19-.47,1.13-.74.92ZM95.05,141.88c-.04-.08.14-.43.32-.61.45-.49-.24.91-.32.61ZM100.4,141.4c.69-1.73,5.66-10.1,2.5-3.92-.72.97-1.64,3.52-2.5,3.92ZM102.96,141.12c.54-1.13,2.3-4.73,3.3-5.91-.6,1.57-2.31,4.94-3.3,5.91ZM93.4,141.09c.37-.3,4.99-8.51,4.3-6.37-1.25,1.78-2.38,4.67-4.3,6.37ZM95.59,141.08c.7-1.24,3.25-5.03,3.85-6.08-.68,1.95-2.31,4.53-3.85,6.08ZM105.19,140.92c-.07.19,3.71-6.89,3.01-4.69-1.22,2.41-1.56,2.9-2.81,4.7-.12.21-.24.21-.2,0ZM107.83,140.75c.1-.52,1.86-3.82,2.3-4.09.56-.39-2.47,4.93-2.3,4.09ZM98.37,140.72c.64-1.18,2.48-4.21,3.64-6.09,0,.73-2.39,5.12-3.64,6.09ZM110.04,140.23s1.56-3.01,1.73-2.42c-.1.29-1.49,2.89-1.73,2.42ZM112.38,139.94c-.15-.27,1.01-1.93,1.13-1.53-.01.26-.87,1.78-1.13,1.53ZM105.2,146.07s.08-.11.08-.15c-.03.09.54-3.36.39-3.09-1.19.15-.97-.66-1.23,2.24-.18,1.28,0,1.14.76.99ZM107.71,145.92c0-.18.06-.55.25-.33.1.1.11.1.21,0,.15-.14.13-.17-.15-.21-.34-.07-.54-.29-.77-.51-.05-.11-.01-.17.28-.42.13.09.04-1.64-.03-1.67-.06-.11-.08-.11-.6-.08-.66.04-.69.05-.76.22-.08.25-.51,2.92-.44,3.15.58.02,1.59.06,2,.08v-.23ZM110.62,146.01c.42-.16-.08-.39-.22-2.02-.28-1.15.09-1.52-.95-1.41-.03.85.07,2.88.07,3.43.03.05.78.05,1.1,0ZM111.72,145.92c.07-.09.08-.02-.28-1.67-.36-.96.06-1.76-.73-1.69-.55.02.4,2.57.26,3.28-.32.29.78.12.75.08ZM124.23,145.72c.72-.31,6.64.6,5.6-.7-2.14-1.52-7.56-1.73-10.62-2.16-.18.56.96,1.99,1.21,2.6.54.71-.37.27,3.81.26ZM108.88,144.63c.1-.13.04-.31-.14-.44-.43-.46-.35.9.14.44ZM129.28,143.82c-3.06-7.35-5.84-14.13-9.94-20.57-.33-.35-.39-.96-.74-.92-1.6.14-8.5-.27-9.92-.19-1.55-.31,2.18,4.95,2.43,5.99,2.58,4.8,4.78,9.41,7.46,14,3.33.07,7.61,1.33,10.71,1.68ZM116.72,122.99c-.16-.18-8.03.12-8.09-.46,3.03-.44,6.53.11,9.16.06,2,.25.67.59-1.07.39ZM108.7,143.64l.14-.06c-.18-.21-.47-.38-.19-.63.18-.23.09-.42-.12-.28-.04.09-.35,1.27.17.97ZM61.27,142.55c.26.01.22-.42.19-.69-.42.04-1.2-.16-1.03.43.04.51.32.29.84.26ZM132.55,142.39c.12-6.54-1.05-15.29-5.39-19.69-.74-.21-4.35-.23-7.33-.3-.3,0-.31.06-.07.38,4.4,6.53,8.26,14.02,12.8,19.6ZM124.1,123.25c-.75-.08-3.51.08-3.82-.27-.78-.53,7.48.02,6.98.01.26.59-1.67.2-3.16.25ZM62.65,142.39c-.13-.65-.95-.78-.68.05,0,.03.74.08.68-.05ZM44.66,141.42c-3.67-4.8-10.98-12.67-15.45-17.54,4.85,5.66,10.41,12.53,15.45,17.54ZM61.23,139.8c.34-.45-.76-.53-.41-.88.29-.53-.58-.06-.42.41-.15.57.51.51.83.47ZM62.47,139.63c.06-6.96-.14-25.16-.23-33.52-.45-.1-.63.92-.49,1.21.45,7.33.23,14.91.39,23.65.02,5.9.02,6.73-.05,7.15-.22.69-.08.61-.18,1.26-.36.6.32.45.57.25ZM82.67,121.93c.53-.38-2.29-.15-2.77-.12-.66.24,2.49.39,2.77.12ZM118.42,121.79c-2.94-5.23-6.68-11.85-9.56-16.88-6.81-.17-12.88-.93-20-1.45-8.07-1.7,23.97,1.86,18.57.81-5.54-.54-10.34-.91-15.83-1.26-1.1.18-5.65-.96-4.96.12.11.17.37.68.58,1.14,2.14,4.99.37,12.01-2.8,16.41,1.19-.25,3.11-.81,4.24-1.1.88-1.86,2.05-4.73,3.27-6.36-.57,1.95-1.32,2.85-2.11,4.56-.23.46-.75,1.23-.88,1.61.39.32,3.02-.68,2.79-.49.2-.05,1.13-.16,1.1-.41-.23.16,2.71-5.52,2.6-4.12-.46.92-1.99,3.08-2.38,4.15,0,.07.03.07,1.04-.16,5.55-.98,14.31-1.05,19.21-.57.32.13,2.36.09,2.18.55-.65.74-2.78-.22-4.82-.05-1.9-.05-2.47-.56-2.08,1.49.04.09-.02,1.64-.07,1.76,1.5.05,8.33.3,9.91.24ZM85.84,119.82c.73-.88,2.28-5.9,2.86-6.23-.63,1.9-1.6,5.2-2.86,6.23ZM87.41,118.96c-.07-.34,4-8.5,2.16-4.02-.31.35-1.76,4.16-2.16,4.02ZM90.66,118.68c.14-.97,2.6-4.97,2.91-5.34-.36,1.85-2.23,4.19-2.91,5.34ZM95.4,117.51c-.25.19,2.17-4.45,1.95-3.08-.47.66-1.35,2.79-1.95,3.08ZM100.81,117.06c.09-.33,1.25-2.55,1.57-2.24-.18.43-1.14,2.48-1.57,2.24ZM97.46,116.96c0-.2,1.81-3.22,1.95-3.25.69-.35-1.22,2.44-1.41,2.77-.32.47-.44.75-.54.48ZM102.42,116.97c-.48.15,1.38-2.54,1.86-2.55.28.21-1.97,2.97-1.86,2.55ZM99.36,116.88c-.09-.43,1.42-2.4,1.5-2.22.5-.24-1.4,2.44-1.5,2.22ZM104.27,116.78c-.55-.49,2.25-2.97.97-1.15-.39.3-.62,1.32-.97,1.15ZM106.51,116.22c-.02-.05.03-.21.12-.39.2-.52.71-.31.31.17-.25.33-.37.39-.43.22ZM90.31,112.84c0-.15.16-.42.24-.42.22-.06-.23.78-.24.42ZM108.24,121.66c.04-.07-.14-.38-.2-.36-.17.11,0,.57.2.36ZM105.47,121.53c.05-.72.53-2.78.35-3.34-6.01-.15-14.7,1.12-20.42,2.92,4.9.27,15.16.34,20.07.42ZM106.95,121.53c-.17-.45-.73-.71-.05-1.1-.65-.62.09-.53-.04-1.46-.1-3.23-2.05,3.84.09,2.56ZM127.3,120.63c.18-5.12-.08-11.36-3.83-15-.8-.44.59.82-1.17.42-3.83-.44-7.82-.62-11.63-1.04-.58-.14-1.34-.24-.76.47.56,1.14,1.39,2.63,2.04,3.76,1.66,2.88,3.5,6.16,5.35,9.14,2.98.22,7.15,1.49,9.68,2.6.21.04.31.07.32-.36ZM107.98,120.61c.04-.11,0-.18-.1-.18-.17.03-.01.45.1.18ZM107.98,119.59c.04-.11-.06-.3-.14-.28-.18.05-.04.56.14.28ZM68.62,111.66c-.19-.98-.13-2.31-.89-2.74.08.22.39,2.99.93,3.56.03-.25.01-.43-.04-.82ZM126.94,106.07c0-.06-1.7-.38-2.02-.38-.72.39,2.12.47,2.02.38ZM112.53,104.67c-.44-.07-2.84-.31-3.15-.21.31.41,3.04.22,3.15.21ZM62.17,103.06c.07-1.63-.15-1.94-.38-.82.07.14.08,2.09.13,2.23.36.11.21.12.25-1.4ZM107.79,103.28c.05-.08-.12-.21-.27-.21-.36.13.11.4.27.21ZM85.57,102.7c.29-.2-2.2-.33-2.01-.15,0,.13,1.93.28,2.01.15ZM67.96,92.37c.5-.57,4.09.39,2.49-.36-1.25-.74-2.08-.56-3.33-.3-1.23-.03-2.85-1.07-4.03-1.3-.97-.21-.58,1.13-.52,1.45.69.08,1.11-.26,2,.36.76.45,2.51.5,3.4.16ZM162.44,242c.05-.13-5.66-.53-7.45-.61-.55-.03-.42.16-.81.34-.34.22-3.95.05-4.64,0-2.24-.24-5.17.1-7.21-.54-1.68-.17-3.73.49-5.52.11-8.12-.1,2.74-2.23,4.96-.76.62-.35,2.84-.08,4.3.16.2-.1.61-.3.81-.4,4.67.84,11.81-.43,15.97.23,1.09.71-1.95-.07-2.27.33-.11.09-.22.14-.35.14.09,0-4.58-.04-2.74.12.59.08,7.4.59,4.95.86ZM153.91,241.27c.27-.26-1.56-.06-1.16.07.19.05,1.1,0,1.16-.07ZM152.51,241.28c-.1-.07-.27-.07-.23,0,0,.05.37.09.23,0ZM156.33,240.97s-.09-.01-.13,0c-.09.04.22.04.13,0ZM155.82,240.87c-1.29-.19-.82.15.23.07l-.23-.07ZM139.56,240.79c.29-.34-1.88-.24-2.01,0,.1.07,1.84.06,2.01,0ZM22.82,241.8c-.77-.04-2.96-.52-4.22-.86-1.11,1.02-3.88.65-5.64.27-.08.41-1.14.1-1.08-.21.02-.08-.03-.11-.31-.2-.34-.14-.69-.07-.83-.3.22-.28,1.04-.14,1.5,0,1.28.47,3.79.85,5.05.43-.05-.13-.49-.31-.21-.52,1.4-.18,3.03.52,4.5.79.33.36,4.1-.14,3.81.51-.29.12-1.6.17-2.57.1ZM165.1,241.08c-.4-.14-1.6-.15-1.85-.27.02-.02.19-.04.37-.05,1.56-.08,1.86-.06,1.94.1.11.21-.11.33-.46.23Z"/>
        </g>
    </g>
</svg>