<?xml version="1.0" encoding="UTF-8"?>
<svg id="Layer_2" xmlns="http://www.w3.org/2000/svg" viewBox="0 0 175.68 123.9">
  <defs>
    <style>
      .cls-1 {
        fill: #4685b0;
      }

      .cls-2 {
        fill: #1d699e;
      }

      .cls-3 {
        fill: #1d689d;
      }

      .cls-4 {
        fill: #1c679c;
      }
    </style>
  </defs>
  <g id="Layer_1-2" data-name="Layer_1">
    <g>
      <path class="cls-2" d="M65.11,100.22s.04.03.06.05c.13.01.26.03.39.07.32.08.64.17.96.26.05-.02.09-.02.14-.04,4.51,1.05,9.03,2.09,14.28,3.31-2.96-5.35-3.9-10.51-3.4-15.67-.04-.17-.07-.34-.08-.51-.03-.43-.06-.86-.11-1.29,0-.04-.01-.08-.02-.13-.03-.17-.06-.33-.09-.5-.07-.32-.15-.63-.25-.94-.04-.13-.09-.27-.14-.4-.02-.03-.03-.06-.06-.11-.14-.26-.3-.5-.46-.75-.02-.02-.04-.04-.07-.07-.11-.11-.21-.22-.33-.33-.09-.08-.56-.42-.09-.1-.14-.09-.27-.19-.42-.28-.3-.19-.62-.35-.94-.51-.05-.02-.06-.03-.06-.03-.03,0-.06-.02-.1-.04-.26-.1-.53-.19-.8-.28-.47-.15-.96-.27-1.44-.37-1.11-.24-1.84-.32-2.9-.44-2.17-.25-4.35-.48-6.43-1.16-.14-.02-.26-.05-.38-.09-.05,0-.09.01-.14.01-.49,0-.89-.12-1.23-.32-.57-.06-1.14-.14-1.7-.25v-3.06c-.48,0-.95.03-1.43.05.09,1.04.23,2.09-.09,3.07-1.13.27-13.98,1.94-20.98,11.94l-.37,1.97c.02,3.1-1.26,9.14,3.66,6.14,4.7-.62,9.37.53,14.07-.29,5.34-.51,3.2,4.65,3.81,8.04,2.06,2.84,1.06-5.64,1.34-6.8,1.94-.41,3.85-.48,5.81-.16Z"/>
      <path class="cls-4" d="M88.29,84.17c.39-36.02-5.59-21.67,25.31-33.64,1.06-.45,2.2-1.69,3.31-.88-.46,15.92-.16,34.26,11.9,47.01,2.16,1.42,1.89,3.15-.97,2.76-13.15,1.24-25.78,4.13-37.14,10.87-2.01,1.19-2.46.65-2.44-1.36.05-8.25.02-16.5.02-24.76Z"/>
      <path class="cls-4" d="M175.68,100.24c-15.97-.14-30.77,1.44-43.91,10.6-.75-2.68-.53-5.09-.31-7.4.22-2.28,2.56-1.04,3.86-1.59,1.92,0,2.82-1.27.94-2.41-9.08-4.8-3.28-28.72-4.95-38.71-.03-2.36.54-3.46,3.27-3.9,7.12-1.14,14.03-3.18,20.59-6.09,2.66-1.18,3.24-.72,3.35,1.98.77,17.26,4.69,34.4,17.17,47.52Z"/>
      <path class="cls-2" d="M169.48,109.91c-8.88.9-18.38-1.67-26.82,1.72-3.96,1.8-8.02,3.39-12.55,3.57-37.83,1.75-76.61-.22-112.6-10.96-.71-.17-8.5-2.75-9.21-2.92.03.55,3,2,7.17,4.06,10.45,5.15,23.03,6.44,30.69,15.96,1.74,2.16,4.02,2.58,6.77,2.57,34.64-.07,69.27-.05,103.91-.05.03,0,.06-.03.09-.03,1.34-.24,2.69-.37,4.04-.54,1.11-.16,2.22-.37,3.27-.79,6.63-3.62,12.26-12.57,5.24-12.59Z"/>
      <path class="cls-3" d="M66.8,75.36c.11-.01.21-.03.32-.03h.33c.26,0,.51.05.74.13.09,0,.17-.02.26-.02,1.91.06,3.84.14,5.74.44.36.02.73.03,1.09.03.41,0,.82-.02,1.23-.04,5.98-3.29.22-17.56-4.96-17.15-3.05-1.15-12.79,1.8-12.74-2.29.01-5.3,9.3-.99,13.19-1.47-8.9-9.44,5.43-17.93-10.3-15.08-1.39.25-2.7.49-2.86-1.52-.6-4.09,4.53-2.36,7.03-2.66,1.37.04,1.84-.54,1.23-1.7-1.92-3.66,2.85-7.93.21-10.67-.74-.77-1.82-1-2.82-1.05-.66.1-1.32.2-1.98.26-.05,0-.11,0-.17.01-.22.03-.44.06-.65.09-.14,0-.28-.03-.41-.05,0,.03.02.05.04.07-.15,0-.46.05-1.07.21-.96.25-1.37-.63-1.52-1.98-.04-.1-.09-.2-.12-.3-.15-.47-.11-.98.05-1.44.02-2.51.39-5.57.06-6.91-.42.02-.84.03-1.27.05-.9,4.23,1.91,10.27-2.67,12.78-3.8,2.01-5.64,5.31-5.73,9.48-.09,4.25-.14,4.2,3.9,2.46,1.18-.51,2.63-1.49,3.78-.76,1.18.76.57,2.37.47,3.59-.13,1.48-1.69,1.45-2.73,1.92-7.1,3.19-10.77,9.59-9.23,16.51,1.9-1.17,11.41-6.54,11.98-2.8.05,1.36.84,3.17-1.49,3.74-8.71,1.26-16.6,7.08-16.72,14.93-.36,6.15-.32,6.18,5.69,4.02l10.35-1.67c2.88-2.58,2.26,2.48,2.45,4.22.43.22.87.43,1.3.65,0-1.36-.54-2.82,0-4.07.51-1.19,1.34-1.84,2.38-2.15.3-.14.66-.22,1.06-.22.04,0,.08.01.12.01,1.26-.09,2.71.14,4.22.46.08,0,.15,0,.22,0Z"/>
      <path class="cls-2" d="M88.28,5.29c4.46,15.4,14.75,27.07,26.46,38.43-37.06,8.17-24.18,28.47-26.46-38.43Z"/>
      <path class="cls-4" d="M131.35,5.63c3.93,15.31,15.54,26.53,25.37,37.87-35.26,9.16-23.31,27.26-25.37-37.87Z"/>
      <path class="cls-2" d="M0,91.59c7.65-8.65,16.62-15.17,24.91-23.12.84-.76,1.84-1.98,2.89-1.19,1.06.8-.61,1.47-.93,2.26-13.1,29.4,4.59,14.4-26.87,22.05Z"/>
      <path class="cls-2" d="M9.27,97.35c3.27-4.09,5.65-7.64,11.08-6.12,2.21.62,2.77-.52,2.7-2.4-.39-4.53,6.45-18.89,11.26-19.52.68.48-3.47,7.68-3.77,8.3-12.2,27.85,7.62,17.14-21.27,19.73Z"/>
      <path class="cls-2" d="M113.02,19.03c1.84-4.89,7.62-5.85,9.61-10.24,2.6-2.54,8.16-4.46,6.85,1.77-.17,1.4-1.37,1.4-2.49,1.47-5.16,1.4-8.06,6.39-13.97,6.99Z"/>
      <path class="cls-2" d="M86.53,2.59c1.27,4.74-4.73,1.95-6.24,5.06-1.58,2.73-5.34,2.21-7.4,4.39-1.53.92-1.8-1.12-.67-2.27,2.56-.85,14.38-15.6,14.3-7.18Z"/>
      <path class="cls-1" d="M58.72,12.21c-.42.02-.84.03-1.27.05-.48-1.28,1.58-1.34,1.27-.05Z"/>
    </g>
  </g>
</svg>